<svg xmlns="http://www.w3.org/2000/svg" width="800" height="800" viewBox="0 0 800 800">
<g>
<path d="M 408.79 259.99 C408.32,268.19 408.67,269.36 410.65,266.20 C410.99,265.65 412.24,263.98 413.93,261.81 C409.01,268.46 407.32,272.50 404.54,281.44 C402.50,288.00 399.74,295.63 398.41,298.38 C395.55,304.31 395.50,305.24 397.67,313.02 C399.11,318.22 399.15,319.36 397.94,321.62 C396.64,324.05 396.73,324.37 399.35,326.46 C401.87,328.47 403.67,328.76 417.24,329.35 C425.54,329.71 432.54,330.21 432.80,330.47 C433.52,331.19 430.96,336.83 426.66,344.00 C421.79,352.12 409.92,370.05 408.25,371.82 C407.56,372.55 407.00,373.52 407.00,373.98 C407.00,374.44 405.54,376.57 403.75,378.73 C401.96,380.88 398.92,384.59 397.00,386.97 L 393.50 391.30 L 393.48 411.40 L 393.46 430.90 L 393.38 412.47 C393.34,401.02 392.88,392.64 392.23,391.44 C390.41,388.03 387.53,365.66 388.86,365.21 C389.82,364.89 421.47,340.58 424.43,337.88 C424.95,337.41 425.10,336.76 424.76,336.43 C424.01,335.68 412.63,343.57 403.04,351.50 C399.05,354.80 394.94,357.99 393.91,358.58 C391.92,359.73 384.54,366.70 379.40,372.27 C374.25,377.87 358.81,388.85 353.67,390.59 C347.85,392.55 344.84,392.06 338.39,388.11 C334.15,385.52 309.23,370.51 305.00,368.00 C298.54,364.18 290.75,360.00 290.07,360.00 C289.24,360.00 282.16,372.69 274.68,386.98 C278.25,380.07 281.63,373.70 283.99,369.50 C290.06,358.71 291.35,354.84 293.04,342.50 C294.36,332.90 297.82,317.84 298.99,316.64 C299.45,316.17 299.10,313.82 298.21,311.43 L 296.60 307.08 L 299.59 303.29 C300.37,302.31 300.97,301.55 301.38,300.71 C302.79,297.84 301.99,293.89 298.45,276.00 C297.09,269.12 295.49,261.02 294.89,258.00 C294.29,254.98 292.49,247.79 290.89,242.03 C289.28,236.27 287.71,228.62 287.38,225.03 C286.15,211.42 290.48,195.28 296.01,192.83 C297.55,192.15 299.49,190.45 300.32,189.05 C301.31,187.36 303.85,184.44 307.02,181.17 C300.33,188.46 295.39,195.89 293.81,201.42 C293.17,203.67 292.32,205.95 291.91,206.50 C291.20,207.46 290.71,213.62 290.91,219.17 C291.02,222.36 295.08,227.47 299.21,229.61 C300.84,230.45 304.63,231.14 307.64,231.14 C314.10,231.14 323.44,227.18 329.46,221.90 C332.01,219.66 333.48,218.93 333.76,219.77 C333.99,220.47 334.81,221.67 335.59,222.45 C336.37,223.22 337.00,224.12 337.00,224.44 C337.00,226.59 350.64,242.66 354.98,245.63 C363.33,251.32 369.15,246.62 373.92,230.35 C375.97,223.39 376.10,223.21 379.16,223.35 C382.19,223.49 382.34,223.30 383.62,217.75 C384.31,214.78 385.05,211.01 385.33,209.09 C385.29,210.47 385.79,210.90 386.81,210.59 C387.74,210.31 392.55,209.10 397.50,207.90 C406.42,205.73 406.58,205.64 415.06,197.61 C418.70,194.16 422.07,190.98 425.19,188.05 C412.52,200.20 404.95,208.03 402.20,211.86 C399.12,216.13 399.09,216.28 400.61,219.86 C405.84,232.14 409.40,249.61 408.79,259.99 ZM 360.09 325.88 C364.16,326.35 367.86,326.80 368.30,326.87 C368.74,326.94 370.45,326.30 372.11,325.44 C375.09,323.90 375.11,323.82 374.69,316.94 C374.27,310.22 374.33,310.00 376.58,310.00 C379.74,310.00 380.84,307.59 379.94,302.68 C379.44,299.94 378.14,297.62 376.08,295.78 C373.42,293.40 372.11,293.00 367.04,293.00 C363.78,293.00 360.84,292.54 360.49,291.98 C360.15,291.43 360.41,288.54 361.07,285.56 L 362.28 280.16 L 370.67 279.46 C380.04,278.68 380.43,278.36 381.90,270.51 C382.26,268.59 382.67,267.41 382.26,266.76 C381.54,265.64 378.33,266.11 368.05,267.03 C354.52,268.24 351.43,268.50 350.67,269.96 C350.44,270.42 350.43,270.99 350.40,271.75 C350.35,273.26 349.81,278.77 349.20,284.00 C347.72,296.74 347.78,302.58 349.42,303.94 C350.42,304.76 352.62,304.75 357.81,303.89 C361.69,303.25 365.56,303.00 366.43,303.33 C368.29,304.05 368.57,308.99 366.75,309.02 C365.84,309.03 365.87,309.27 366.87,309.90 C367.87,310.53 367.20,311.11 364.43,312.02 L 360.62 313.28 L 363.53 315.78 L 366.43 318.28 L 358.47 317.56 C354.08,317.16 348.71,316.45 346.53,315.98 C344.34,315.50 342.43,315.23 342.29,315.38 C342.14,315.53 341.76,316.97 341.43,318.58 C340.87,321.42 341.03,321.56 346.76,323.27 C350.01,324.23 356.01,325.41 360.09,325.88 ZM 306.64 362.53 C307.66,363.30 308.95,363.95 309.50,363.97 C310.85,364.01 316.14,345.96 318.45,333.50 C321.32,317.92 321.34,314.69 318.55,310.43 C316.43,307.20 316.61,305.28 319.14,303.93 C321.13,302.86 321.24,302.25 320.66,295.14 C319.80,284.64 314.67,257.55 311.31,245.80 C308.95,237.52 308.19,236.01 306.15,235.50 C304.84,235.17 303.55,235.11 303.29,235.37 C303.03,235.63 304.04,241.84 305.53,249.17 C307.02,256.50 309.11,267.23 310.16,273.00 C311.22,278.77 312.54,285.75 313.10,288.50 C314.67,296.17 315.13,298.42 314.30,299.98 C313.95,300.64 313.39,301.17 312.58,301.92 C311.16,303.26 310.00,305.30 310.00,306.45 C310.00,308.71 312.33,312.72 314.81,314.73 C316.38,316.00 316.26,316.74 312.01,331.50 C311.53,333.15 309.71,340.49 307.97,347.81 C304.89,360.68 304.85,361.17 306.64,362.53 ZM 317.65 171.00 C320.91,168.12 323.91,165.71 325.87,164.50 C327.16,163.71 327.50,161.80 327.50,155.33 C327.50,148.06 327.77,146.87 329.92,144.58 C331.26,143.16 332.95,142.00 333.67,142.00 C335.57,142.00 335.34,141.19 332.46,137.77 C331.06,136.11 330.18,134.49 330.50,134.16 C330.83,133.84 332.18,134.91 333.51,136.54 L 335.93 139.50 L 335.39 135.31 C335.08,133.00 335.31,130.30 335.89,129.31 C336.88,127.61 336.95,127.62 337.08,129.50 C337.17,130.60 337.34,131.95 337.46,132.50 C337.59,133.05 337.78,134.62 337.89,136.00 C338.08,138.33 338.22,138.25 340.06,134.76 C343.12,128.97 346.16,127.50 355.10,127.50 L 362.78 127.50 L 371.40 119.95 C359.41,130.90 351.55,140.42 349.89,146.43 C349.23,148.83 347.63,150.55 343.93,152.85 C341.14,154.58 338.45,156.00 337.93,156.00 C337.42,156.00 337.00,156.46 337.00,157.03 C337.00,157.60 336.21,158.36 335.25,158.71 C332.81,159.62 324.46,165.39 318.50,170.29 C318.21,170.53 317.93,170.77 317.65,171.00 ZM 316.86 547.96 C317.23,550.01 317.96,551.17 319.12,551.54 C321.61,552.33 324.00,557.05 324.00,561.21 C324.00,564.78 323.64,566.10 319.13,579.00 C316.39,586.84 315.96,587.49 313.58,587.31 C311.42,587.15 310.99,587.56 310.93,589.81 C310.62,600.93 310.14,607.27 308.67,619.50 C307.85,626.36 306.54,637.78 305.48,647.21 C306.53,637.84 307.83,626.48 308.66,619.50 C309.57,611.80 310.45,601.45 310.61,596.50 C311.25,577.29 311.90,572.92 315.34,564.92 C316.84,561.44 317.29,557.03 316.86,547.96 ZM 394.07 147.67 L 399.46 152.84 L 405.11 158.27 L 400.30 157.64 L 395.50 157.00 L 395.30 164.50 C395.24,166.87 394.94,169.91 394.54,172.72 C395.59,164.62 395.50,153.80 394.07,151.12 C393.42,149.92 393.28,149.13 394.07,147.67 ZM 256.60 586.59 C259.19,579.78 259.54,578.38 259.03,577.90 C258.87,577.75 258.63,577.69 258.34,577.58 C257.51,577.26 256.07,577.00 255.13,577.00 C254.13,577.00 253.36,576.16 253.27,574.96 C253.14,573.22 253.66,572.95 256.81,573.12 C259.76,573.28 261.87,573.25 263.55,572.77 C263.22,572.99 262.91,573.24 262.64,573.50 C261.77,574.37 259.65,579.00 256.60,586.59 ZM 450.23 165.11 C458.17,158.25 461.73,156.00 463.68,156.00 C462.04,156.00 457.01,159.46 450.23,165.11 ZM 422.51 113.95 C414.02,123.22 405.13,133.39 398.62,141.46 L 397.84 142.42 C403.71,134.94 413.27,124.02 422.51,113.95 ZM 265.27 572.03 C266.35,571.38 267.26,570.40 268.19,568.97 C267.03,570.85 266.08,572.00 265.60,572.00 C265.50,572.00 265.39,572.01 265.27,572.03 ZM 317.08 462.50 L 316.31 477.00 C316.01,482.59 315.82,489.61 315.71,497.07 C315.80,489.48 316.00,482.41 316.29,477.00 L 317.08 462.50 ZM 396.87 99.25 C401.71,95.63 406.56,92.14 411.22,88.96 C407.01,91.86 402.31,95.24 396.87,99.25 ZM 436.42 233.29 C429.88,241.86 426.52,246.13 422.84,250.65 C427.53,244.80 430.86,240.56 436.42,233.29 ZM 389.13 194.88 C388.37,197.62 387.84,199.38 387.16,201.50 C386.92,202.27 386.69,202.99 386.50,203.66 C386.75,202.73 387.02,201.81 387.29,201.00 C387.78,199.51 388.47,197.20 389.13,194.88 Z" fill="rgba(0,0,0,1)"/>
<path d="M 392.47 361.07 C391.99,361.86 393.24,361.26 395.23,359.75 C397.23,358.24 399.12,357.00 399.43,357.00 C400.22,357.00 421.85,340.06 422.59,338.86 C423.80,336.90 422.55,337.17 418.64,339.74 C422.04,337.45 424.43,336.10 424.76,336.43 C425.10,336.76 424.95,337.41 424.43,337.88 C421.47,340.58 389.82,364.89 388.86,365.21 C387.53,365.66 390.41,388.03 392.23,391.44 C392.88,392.64 393.34,401.02 393.38,412.47 L 393.46 431.50 L 389.14 447.00 C385.01,461.84 383.51,466.97 379.56,477.07 C378.78,477.28 376.09,478.10 373.00,479.08 C363.52,482.08 347.49,483.96 331.27,483.98 L 317.04 484.00 L 316.27 486.75 C315.38,489.93 315.49,530.70 316.42,542.46 C316.72,546.17 317.31,549.40 317.90,550.68 C317.32,549.95 316.95,548.81 316.75,547.22 C315.47,536.90 315.23,497.42 316.31,477.00 L 317.08 462.50 L 314.88 466.00 C310.76,472.57 307.44,478.11 304.49,483.50 C305.32,481.80 305.75,480.41 305.51,480.02 C305.17,479.46 303.41,479.00 301.61,479.00 C295.43,479.00 286.50,476.76 279.21,473.38 C275.20,471.52 271.60,470.00 271.21,470.00 C270.82,470.00 266.72,467.75 262.10,465.00 C257.47,462.25 253.37,460.00 252.98,460.00 C251.94,460.00 247.71,469.86 245.09,478.01 C246.33,473.92 247.60,470.48 248.96,467.46 C250.77,463.44 251.76,459.41 251.91,455.46 C252.03,452.18 252.29,448.38 252.48,447.00 C252.67,445.62 253.30,440.81 253.88,436.30 C254.46,431.79 256.12,425.27 257.57,421.80 C263.90,406.73 288.47,360.00 290.07,360.00 C290.75,360.00 298.54,364.18 305.00,368.00 C309.23,370.51 334.15,385.52 338.39,388.11 C344.84,392.06 347.85,392.55 353.67,390.59 C358.81,388.85 374.25,377.87 379.40,372.27 C384.54,366.70 391.92,359.73 393.91,358.58 C394.53,358.23 396.24,356.95 398.36,355.28 C395.30,357.93 393.08,360.07 392.47,361.07 ZM 269.55 538.94 C272.27,539.39 274.74,539.82 275.03,539.88 C275.32,539.95 276.57,539.29 277.82,538.41 C275.98,539.71 275.88,540.00 277.28,540.00 C280.80,540.00 278.99,546.83 271.01,563.65 C266.80,572.54 265.26,573.57 256.81,573.12 C253.66,572.95 253.14,573.22 253.27,574.96 C253.36,576.16 254.13,577.00 255.13,577.00 C256.07,577.00 257.51,577.26 258.34,577.58 C258.63,577.69 258.87,577.75 259.03,577.90 C259.11,577.98 259.17,578.07 259.20,578.21 L 252.66 577.76 C239.42,576.85 223.62,569.36 216.82,560.77 L 213.59 556.70 L 212.81 559.60 C212.78,559.70 212.76,559.80 212.73,559.90 C212.99,558.18 213.27,556.54 213.57,554.95 C215.52,544.67 217.72,539.74 222.69,534.47 C224.79,532.26 227.83,528.67 229.46,526.51 C231.09,524.34 233.30,521.70 234.36,520.64 C235.49,519.51 236.59,516.17 238.03,509.31 C237.41,512.72 237.01,515.27 237.01,516.12 C237.00,517.00 240.04,520.74 243.75,524.43 C251.26,531.88 261.39,537.57 269.55,538.94 ZM 337.66 556.98 C344.56,558.18 361.12,556.24 362.46,554.07 C362.70,553.67 363.36,546.11 363.92,537.28 C364.06,535.13 364.24,532.85 364.45,530.55 C364.27,532.69 364.10,534.95 363.95,537.36 C362.89,553.80 362.92,554.28 364.93,556.43 C368.34,560.05 367.51,568.38 362.30,582.85 C360.45,588.00 358.98,590.51 357.37,591.24 C355.74,591.98 354.24,594.61 352.13,600.39 C351.97,600.84 351.79,601.33 351.58,601.86 C351.86,600.99 352.00,600.37 352.00,600.01 C352.00,599.61 348.06,598.96 343.25,598.57 C333.84,597.80 325.89,595.53 316.75,591.01 C311.05,588.18 311.00,588.18 310.93,590.33 C310.89,591.48 310.85,592.57 310.81,593.60 C310.85,592.39 310.89,591.14 310.93,589.81 C310.99,587.56 311.42,587.15 313.58,587.31 C315.96,587.49 316.39,586.84 319.13,579.00 C323.64,566.10 324.00,564.78 324.00,561.21 C324.00,557.61 322.21,553.57 320.10,552.05 C324.16,553.62 333.17,556.20 337.66,556.98 ZM 264.55 457.52 C266.40,459.03 267.46,460.01 268.20,459.81 C269.33,459.49 269.68,456.37 270.87,448.00 C273.08,432.40 274.11,430.02 296.78,388.10 C301.10,380.12 301.23,379.64 299.47,378.35 C296.73,376.35 293.66,376.71 292.10,379.21 C289.08,384.04 276.22,408.00 272.29,416.11 C266.66,427.73 264.44,434.75 262.90,445.80 L 261.60 455.11 ZM 364.17 314.15 C365.95,315.32 373.03,314.82 374.51,313.58 C374.54,314.47 374.60,315.57 374.69,316.94 C374.81,318.95 374.90,320.37 374.88,321.43 C374.46,320.32 372.97,319.45 370.50,319.23 C367.37,318.96 359.76,317.96 353.69,317.05 C355.28,317.24 356.94,317.42 358.47,317.56 L 366.43 318.28 L 363.53 315.78 L 360.62 313.28 L 364.43 312.02 C367.20,311.11 367.87,310.53 366.87,309.90 C365.87,309.27 365.84,309.03 366.75,309.02 C368.15,309.00 368.30,306.07 367.46,304.40 C367.66,304.71 367.84,305.07 368.00,305.50 C368.85,307.74 369.51,308.00 374.31,308.00 C376.92,308.00 379.29,307.81 380.01,307.57 C379.54,309.20 378.40,310.00 376.58,310.00 C375.00,310.00 374.50,310.11 374.49,312.51 C373.96,312.16 372.72,312.00 370.67,312.00 C364.99,312.00 362.26,312.90 364.17,314.15 ZM 290.70 513.00 C297.21,497.20 300.20,490.71 303.18,485.87 C303.26,485.73 303.35,485.59 303.43,485.44 C299.01,493.70 295.30,501.83 290.70,513.00 ZM 377.81 481.47 C376.61,484.45 375.21,487.88 373.52,492.00 C373.01,493.25 372.52,494.47 372.06,495.65 C373.97,490.39 376.06,485.19 377.81,481.47 ZM 365.75 303.22 C364.26,303.10 361.04,303.36 357.81,303.89 C357.14,304.00 356.52,304.10 355.94,304.18 C356.16,304.15 356.38,304.11 356.61,304.06 C361.54,303.15 364.19,302.82 365.75,303.22 ZM 379.88 302.35 C379.04,299.85 377.59,297.13 376.08,295.78 C378.06,297.55 379.34,299.76 379.88,302.35 ZM 368.16 507.45 C367.13,511.29 366.33,515.17 365.69,519.49 C366.09,516.58 366.50,514.07 366.87,512.36 C367.17,510.97 367.61,509.30 368.16,507.45 ZM 210.74 582.00 C210.45,589.20 210.28,597.59 210.27,606.60 C210.25,597.25 210.41,589.14 210.74,582.00 ZM 372.08 325.46 C373.35,324.80 374.19,324.05 374.63,323.31 C374.29,324.30 373.54,324.70 372.11,325.44 C372.10,325.45 372.09,325.46 372.08,325.46 ZM 242.59 487.36 C241.84,490.59 241.01,494.40 240.22,498.17 C241.03,494.20 241.81,490.62 242.59,487.36 ZM 308.67 619.50 C309.49,612.67 310.00,607.67 310.35,602.65 C310.01,607.73 309.52,612.42 308.67,619.50 ZM 251.82 599.00 C253.08,595.74 254.87,591.10 256.26,587.49 C255.16,590.36 253.71,594.11 251.82,599.00 ZM 349.42 303.94 C348.78,303.40 348.37,302.16 348.22,300.08 C348.38,302.15 348.79,303.39 349.45,303.96 C349.44,303.95 349.43,303.94 349.42,303.94 ZM 342.29 315.38 C342.36,315.31 342.88,315.34 343.65,315.45 C342.88,315.35 342.37,315.33 342.28,315.39 C342.28,315.39 342.28,315.38 342.29,315.38 ZM 211.61 660.22 C211.62,660.27 211.63,660.30 211.63,660.34 C211.68,660.57 211.72,660.81 211.74,661.03 C211.73,660.96 211.71,660.88 211.69,660.81 C211.67,660.70 211.64,660.51 211.61,660.22 Z" fill="rgba(18,24,37,1)"/>
<path d="M 588.50 85.84 L 588.50 78.50 C588.50,68.39 585.99,62.83 577.78,54.74 C570.92,47.99 566.52,45.06 559.06,42.29 C554.33,40.53 553.88,40.14 555.56,39.25 C559.12,37.39 568.01,36.00 576.37,36.00 C584.92,36.00 592.56,37.72 599.35,41.18 C601.46,42.26 603.40,42.94 603.65,42.69 C603.68,42.65 603.71,42.60 603.72,42.53 C606.58,58.37 600.91,74.59 588.50,85.84 ZM 368.00 305.50 C366.92,302.65 365.34,302.45 356.61,304.06 C352.36,304.85 350.50,304.83 349.47,303.97 C347.78,302.57 347.70,296.87 349.20,284.00 C349.81,278.77 350.35,273.26 350.40,271.75 C350.43,270.99 350.44,270.42 350.67,269.96 C351.43,268.50 354.52,268.24 368.05,267.03 C378.33,266.11 381.54,265.64 382.26,266.76 C382.67,267.41 382.26,268.59 381.90,270.51 C380.43,278.36 380.04,278.68 370.67,279.46 L 362.28 280.16 L 361.07 285.56 C360.41,288.54 360.15,291.43 360.49,291.98 C360.84,292.54 363.78,293.00 367.04,293.00 C372.11,293.00 373.42,293.40 376.08,295.78 C378.97,298.36 381.66,306.01 380.19,307.47 C379.90,307.76 377.26,308.00 374.31,308.00 C369.51,308.00 368.85,307.74 368.00,305.50 ZM 564.47 2.58 C558.96,1.66 555.16,3.78 548.44,10.60 C540.57,18.59 536.18,27.23 535.32,36.46 C534.99,40.06 534.30,43.00 533.81,43.00 C531.68,43.00 528.08,37.47 526.00,31.01 C523.73,23.95 523.53,14.27 525.54,9.53 C526.38,7.57 526.37,7.57 523.30,9.53 C522.91,9.78 522.53,10.03 522.16,10.28 C522.59,9.98 523.04,9.68 523.49,9.38 C535.42,1.46 550.57,-0.63 564.47,2.58 ZM 499.66 53.41 L 502.87 56.15 C511.82,63.82 524.81,68.06 533.60,66.18 C536.28,65.61 538.59,65.26 538.74,65.40 C539.57,66.24 526.96,78.52 521.81,81.89 C516.66,85.25 515.34,85.72 513.62,84.80 C511.84,83.85 511.06,84.29 507.49,88.35 L 511.69 83.57 L 507.56 77.53 C502.20,69.71 499.92,62.87 499.66,53.41 ZM 360.09 325.88 C356.01,325.41 350.01,324.23 346.76,323.27 C341.03,321.56 340.87,321.42 341.43,318.58 C341.76,316.97 342.13,315.53 342.27,315.39 C342.41,315.25 344.54,315.52 347.01,315.97 C352.09,316.91 365.98,318.84 370.50,319.23 C375.75,319.69 376.60,323.12 372.05,325.47 C370.43,326.31 368.74,326.94 368.30,326.87 C367.86,326.80 364.16,326.35 360.09,325.88 ZM 552.03 105.04 C554.84,102.65 556.00,101.41 556.00,100.90 C556.00,100.40 553.75,100.00 551.00,100.00 C548.25,100.00 546.00,99.66 546.00,99.25 C546.00,98.84 547.51,97.30 549.36,95.82 C552.99,92.93 556.43,86.54 557.53,80.68 C557.91,78.66 558.64,77.00 559.16,77.00 C561.24,77.00 563.96,85.55 563.98,92.18 L 564.00 98.58 C563.97,98.58 563.95,98.59 563.92,98.60 C559.34,99.71 556.30,101.17 553.92,103.39 C553.49,103.79 552.84,104.35 552.03,105.04 ZM 392.47 361.07 C394.05,358.48 406.54,348.13 416.36,341.29 C422.04,337.33 424.01,336.56 422.59,338.86 C421.85,340.06 400.22,357.00 399.43,357.00 C399.12,357.00 397.23,358.24 395.23,359.75 C393.24,361.26 391.99,361.86 392.47,361.07 ZM 544.94 90.61 C539.67,97.30 537.67,98.79 535.21,97.88 C533.99,97.43 533.00,96.69 533.00,96.23 C533.00,94.60 544.17,85.00 546.07,85.00 C548.72,85.00 548.50,86.09 544.94,90.61 ZM 364.17 314.15 C362.26,312.90 364.99,312.00 370.67,312.00 C373.82,312.00 375.04,312.37 374.76,313.25 C374.27,314.72 366.10,315.42 364.17,314.15 ZM 514.72 16.22 C508.61,22.02 504.18,28.97 501.63,36.74 C503.93,28.99 508.25,22.23 514.72,16.22 ZM 583.84 11.31 C579.71,8.39 575.04,5.98 569.92,4.13 C574.88,5.83 579.60,8.23 583.84,11.31 ZM 602.43 37.19 C601.61,34.85 600.52,32.11 599.40,29.68 C600.64,32.14 601.65,34.65 602.43,37.19 ZM 519.65 133.73 C523.34,128.84 524.33,127.79 526.50,125.66 C528.03,124.15 532.80,120.20 537.44,116.59 C532.91,120.14 528.57,123.72 527.00,125.23 C524.47,127.66 523.50,128.64 519.65,133.73 ZM 575.23 94.63 C577.76,93.40 580.40,91.93 582.35,90.63 L 582.90 90.25 C580.52,91.88 577.96,93.35 575.23,94.63 ZM 540.96 113.86 C543.79,111.67 546.15,109.82 548.11,108.25 C545.91,110.02 543.40,111.99 540.96,113.86 Z" fill="rgba(31,54,77,1)"/>
<path d="M 303.86 666.25 C304.05,668.61 305.24,668.46 309.60,665.50 C312.99,663.20 316.45,661.92 323.00,660.58 C324.88,660.19 326.10,658.48 329.62,650.72 C327.37,655.87 325.99,659.27 326.15,659.39 C326.34,659.53 328.57,660.41 331.10,661.35 C335.87,663.12 338.00,665.93 338.00,670.47 C338.00,673.51 333.02,678.51 328.50,680.00 L 325.97 680.84 C325.95,680.27 324.96,679.83 322.51,679.11 C320.16,678.42 316.09,676.76 313.45,675.43 C310.82,674.09 307.37,673.00 305.79,673.00 C302.68,673.00 297.46,677.31 298.51,679.01 C298.84,679.55 298.66,680.00 298.11,680.00 C297.56,680.00 295.65,683.04 293.88,686.75 C291.02,692.74 290.67,694.40 290.79,701.50 C290.86,705.90 291.44,711.30 292.08,713.50 C294.03,720.27 294.28,727.07 292.97,737.75 C291.22,751.92 289.55,751.09 290.39,736.47 C291.07,724.64 289.30,709.21 286.73,704.57 C284.84,701.15 282.34,693.27 282.60,691.52 C282.76,690.43 282.36,690.28 281.67,690.82 C282.56,689.87 283.96,687.65 284.98,685.55 C286.12,683.19 290.19,677.82 294.03,673.61 C297.86,669.40 301.00,665.52 301.00,664.98 C301.00,664.44 301.60,664.00 302.33,664.00 C303.07,664.00 303.72,663.44 303.78,662.75 C303.88,661.56 304.35,657.23 304.98,651.58 C304.08,660.20 303.74,664.71 303.86,666.25 ZM 241.00 674.08 C241.06,673.42 240.05,673.43 238.25,674.33 C236.74,675.10 234.27,676.01 232.77,676.37 C231.27,676.73 228.40,678.47 226.39,680.23 C223.01,683.20 222.18,683.44 214.91,683.60 C209.36,683.73 206.73,683.38 205.94,682.43 C205.16,681.49 203.65,681.87 202.02,683.10 C205.40,679.73 206.00,678.49 206.00,675.02 C206.00,671.89 206.75,669.94 209.10,667.03 C211.45,664.11 212.05,662.58 211.66,660.45 C211.95,661.87 212.34,663.00 212.54,663.00 C212.76,663.00 215.00,661.69 217.53,660.08 C220.06,658.48 224.24,656.66 226.82,656.04 L 231.52 654.92 L 233.13 650.42 C232.44,652.48 232.00,653.90 232.00,654.15 C232.00,654.62 233.39,655.00 235.10,655.00 C239.22,655.00 243.65,657.74 245.07,661.16 C246.46,664.53 245.33,668.39 241.45,673.47 C241.29,673.69 241.14,673.89 241.00,674.08 ZM 248.02 786.51 C248.06,785.85 247.82,785.73 247.23,786.63 C246.83,787.26 244.78,788.73 242.68,789.90 C239.45,791.72 238.29,791.89 235.08,791.02 C227.26,788.91 217.62,779.28 209.37,765.33 C204.44,757.00 198.00,741.97 198.00,738.82 C198.00,737.09 198.21,737.03 199.98,738.27 C203.10,740.46 207.32,747.23 207.49,750.30 C207.57,751.92 208.77,754.16 210.31,755.59 C211.78,756.95 213.62,759.29 214.39,760.80 C215.17,762.30 218.26,765.84 221.25,768.67 C227.14,774.25 231.44,775.99 239.38,775.99 C243.69,776.00 244.66,775.58 247.63,772.43 C249.48,770.47 250.49,768.83 250.85,767.14 C251.12,773.38 250.73,778.67 249.59,781.73 C249.05,783.16 248.45,785.01 248.02,786.51 ZM 309.24 793.12 C310.97,792.68 312.49,791.95 313.47,790.97 C315.43,789.01 315.43,789.00 313.25,789.00 C312.04,789.00 309.08,788.04 306.66,786.87 C301.48,784.35 297.63,778.93 295.40,771.01 C294.54,767.98 293.41,764.07 292.88,762.32 C291.03,756.18 290.98,752.85 292.74,753.19 C293.63,753.36 294.69,754.76 295.11,756.31 C296.43,761.26 306.73,774.29 311.10,776.55 C314.82,778.47 321.99,778.39 324.84,776.40 C326.10,775.52 327.60,773.61 328.17,772.15 C328.18,772.11 328.20,772.08 328.21,772.05 C325.67,779.44 322.16,785.48 318.66,787.48 C316.92,788.48 314.59,790.11 313.47,791.11 C312.45,792.03 310.94,792.70 309.24,793.12 ZM 325.97 696.75 C325.28,695.68 325.00,693.98 325.00,691.21 C325.00,686.77 324.73,686.10 322.83,685.82 C319.91,685.39 319.20,683.00 321.99,683.00 C322.96,683.00 324.19,682.60 325.00,682.06 L 325.00 688.72 C325.00,693.41 325.21,695.54 325.97,696.75 ZM 316.29 685.00 C315.68,687.33 314.69,687.54 313.13,685.66 C311.83,684.09 312.62,683.00 315.07,683.00 C316.32,683.00 316.66,683.57 316.29,685.00 ZM 329.49 767.92 C330.87,762.56 332.00,755.21 332.00,750.75 C332.00,756.25 331.04,762.31 329.49,767.92 ZM 249.48 753.83 C248.46,748.15 247.11,741.96 245.94,738.14 C247.44,743.03 248.63,748.46 249.48,753.83 ZM 276.37 699.89 C276.08,701.10 276.10,702.28 276.45,703.84 C276.16,702.83 276.00,702.08 276.00,701.73 C276.00,701.27 276.14,700.63 276.37,699.89 ZM 244.33 793.99 C245.20,793.10 245.96,792.04 246.60,790.80 C246.88,790.27 247.12,789.72 247.32,789.19 C246.74,791.10 245.71,792.72 244.33,793.99 ZM 240.60 683.74 C239.99,682.15 239.53,680.34 239.38,678.82 C239.50,679.63 239.74,680.62 240.09,681.97 C240.25,682.61 240.43,683.20 240.60,683.74 ZM 238.53 635.37 C245.93,614.74 249.48,605.03 251.82,599.00 C250.22,603.12 246.65,612.80 243.89,620.50 C242.26,625.03 240.27,630.54 238.53,635.37 ZM 239.38 677.01 C239.45,676.44 239.61,675.99 239.88,675.72 C239.63,676.17 239.46,676.58 239.38,677.01 ZM 197.73 688.13 C197.48,688.56 197.25,688.99 197.03,689.44 C196.91,689.69 196.80,689.93 196.69,690.18 C196.98,689.46 197.33,688.79 197.73,688.13 ZM 280.99 691.46 C280.59,691.91 280.13,692.50 279.65,693.20 C280.12,692.50 280.58,691.90 280.99,691.46 Z" fill="rgba(84,87,95,1)"/>
<path d="M 324.00 553.40 C321.22,552.51 319.00,551.69 318.28,551.22 C317.58,550.76 316.78,546.97 316.42,542.46 C315.49,530.70 315.38,489.93 316.27,486.75 L 317.04 484.00 L 331.27 483.98 C347.49,483.96 363.52,482.08 373.00,479.08 C376.58,477.95 379.62,477.02 379.78,477.01 C379.93,477.01 379.42,478.24 378.65,479.75 C377.45,482.11 376.02,485.40 374.56,489.06 C375.40,486.67 375.90,484.89 375.80,484.47 C375.57,483.50 374.11,483.65 369.50,485.11 C364.23,486.79 345.64,491.18 337.68,492.63 C336.03,492.93 333.90,492.51 332.52,491.61 C329.23,489.45 328.33,491.05 328.14,499.39 C328.04,503.91 327.51,506.67 326.61,507.39 C325.11,508.59 323.90,516.91 324.75,520.16 C325.50,523.02 326.96,520.45 326.98,516.25 C326.99,514.17 327.49,513.00 328.37,513.00 C330.24,513.00 330.88,518.72 330.25,529.76 C329.84,536.88 329.44,538.72 328.37,538.31 C327.61,538.02 327.00,536.77 327.00,535.52 C327.00,534.27 326.71,531.81 326.36,530.04 C325.13,523.88 324.03,529.30 324.02,541.64 L 324.00 553.40 ZM 309.83 225.50 C310.91,226.58 313.28,225.89 316.32,223.61 C318.07,222.30 321.33,220.31 323.57,219.19 C325.81,218.06 330.57,214.52 334.15,211.32 C346.83,199.99 356.41,193.08 357.69,194.35 C358.46,195.13 355.45,200.55 353.25,202.32 C350.11,204.87 350.47,206.91 354.87,211.30 C357.72,214.16 361.13,215.99 368.58,218.67 C377.47,221.87 380.67,223.24 382.13,222.19 C382.29,222.08 382.43,221.93 382.55,221.76 C381.90,223.39 381.15,223.45 379.16,223.35 C376.10,223.21 375.97,223.39 373.92,230.35 C373.14,233.01 372.34,235.35 371.50,237.40 C371.46,236.83 370.99,236.53 370.05,236.02 C368.97,235.45 367.73,235.07 367.29,235.20 C366.21,235.51 362.00,232.72 362.00,231.70 C362.00,231.25 362.56,231.21 363.25,231.60 C363.98,232.02 364.15,231.94 363.67,231.41 C363.21,230.91 362.53,230.48 362.17,230.46 C360.43,230.37 357.00,227.78 357.00,226.56 C357.00,225.80 354.64,223.23 351.75,220.84 C348.86,218.45 346.35,216.16 346.17,215.75 C345.43,214.09 343.04,215.19 340.10,218.53 C338.40,220.48 337.00,222.73 337.00,223.54 C337.00,224.89 339.63,228.85 343.01,233.11 C339.66,229.06 337.00,225.39 337.00,224.44 C337.00,224.12 336.37,223.22 335.59,222.45 C334.81,221.67 333.99,220.47 333.76,219.77 C333.48,218.93 332.01,219.66 329.46,221.90 C323.44,227.18 314.10,231.14 307.64,231.14 C304.63,231.14 300.84,230.45 299.21,229.61 C295.08,227.47 291.02,222.36 290.91,219.17 C290.71,213.62 291.20,207.46 291.91,206.50 C292.32,205.95 293.17,203.67 293.81,201.42 C294.92,197.53 297.70,192.70 301.57,187.64 C296.10,195.09 292.75,202.27 292.82,206.78 C292.93,215.15 299.46,223.85 306.21,224.64 C307.93,224.84 309.56,225.22 309.83,225.50 ZM 211.62 660.25 C211.50,659.67 211.35,657.03 211.19,653.01 C211.41,653.80 211.85,653.58 212.75,652.87 C213.71,652.12 215.09,650.71 215.81,649.75 C216.53,648.79 217.83,648.00 218.70,648.00 C221.38,648.00 229.00,643.73 229.00,642.23 C229.00,641.45 229.88,639.57 230.95,638.06 C233.13,635.01 235.83,627.82 238.51,618.00 C240.94,609.10 242.57,604.03 244.33,599.95 C248.55,590.16 252.46,580.48 252.62,579.42 C252.71,578.74 251.03,577.94 248.77,577.58 C244.25,576.86 239.30,575.27 234.60,573.17 C240.45,575.67 246.81,577.35 252.66,577.76 L 259.82 578.25 L 257.27 584.88 C255.87,588.52 253.41,594.88 251.82,599.00 C249.15,605.88 244.91,617.53 235.18,644.71 L 231.52 654.92 L 226.82 656.04 C224.24,656.66 220.06,658.48 217.53,660.08 C215.00,661.69 212.76,663.00 212.54,663.00 C212.33,663.00 211.91,661.76 211.62,660.25 ZM 408.79 259.99 C409.40,249.61 405.84,232.14 400.61,219.86 C399.09,216.28 399.12,216.13 402.20,211.86 C405.72,206.97 417.06,195.57 436.85,177.00 C449.98,164.70 461.08,156.00 463.68,156.00 C458.85,156.00 421.79,189.61 422.40,193.44 C422.58,194.57 421.71,197.52 420.47,200.00 C414.18,212.58 413.09,215.90 411.50,227.25 L 409.86 239.01 L 412.18 241.90 C413.46,243.49 415.85,245.48 417.50,246.33 C421.67,248.47 422.73,248.36 425.59,245.50 C426.89,244.20 428.33,243.12 428.91,243.01 C425.80,246.98 422.86,250.64 418.64,255.88 C414.86,260.56 411.27,265.20 410.65,266.20 C408.67,269.36 408.32,268.19 408.79,259.99 ZM 269.55 538.94 C266.41,538.41 262.98,537.25 259.52,535.59 C262.47,536.96 264.90,537.87 265.34,537.72 C267.08,537.14 276.13,518.84 280.04,508.00 C287.73,486.67 288.40,485.03 289.02,486.04 C289.37,486.60 289.28,489.86 288.81,493.27 C287.28,504.46 289.30,504.60 294.52,493.66 C296.40,489.72 298.88,485.06 300.03,483.31 L 302.13 480.11 L 298.31 479.10 C297.58,478.90 296.65,478.68 295.65,478.46 C297.80,478.81 299.82,479.00 301.61,479.00 C303.41,479.00 305.17,479.46 305.51,480.02 C305.86,480.58 304.81,483.21 303.18,485.87 C300.20,490.71 297.21,497.20 290.70,513.00 C284.25,528.62 280.10,536.81 277.82,538.41 C276.57,539.29 275.32,539.95 275.03,539.88 C274.74,539.82 272.27,539.39 269.55,538.94 ZM 303.86 666.25 C303.64,663.38 304.99,650.24 308.67,619.50 C310.12,607.42 310.52,602.27 310.93,590.33 C311.00,588.18 311.05,588.18 316.75,591.01 C318.79,592.02 320.77,592.92 322.73,593.71 C318.78,592.18 315.49,591.18 315.22,591.45 C314.93,591.74 314.28,596.97 313.78,603.07 C313.03,612.21 313.14,614.95 314.41,618.69 C315.56,622.05 315.72,624.31 315.06,627.36 C314.29,630.88 313.50,648.13 313.88,653.04 C313.98,654.28 315.40,654.59 320.91,654.59 L 327.81 654.59 C325.60,659.10 324.51,660.26 323.00,660.58 C316.45,661.92 312.99,663.20 309.60,665.50 C305.24,668.46 304.05,668.61 303.86,666.25 ZM 428.12 78.24 C428.75,77.88 429.38,77.54 430.00,77.20 L 437.50 73.11 L 437.23 63.94 C437.75,71.39 438.42,73.15 441.87,80.30 C445.55,87.95 446.37,89.02 448.15,88.45 C448.17,88.45 448.19,88.44 448.21,88.44 C444.26,89.83 409.94,126.73 397.01,143.49 C395.29,145.71 394.31,147.08 393.85,148.12 C393.78,145.78 394.13,144.54 394.89,144.07 C395.52,143.68 396.24,142.36 396.47,141.15 C397.02,138.31 400.45,133.96 403.26,132.56 C404.47,131.96 406.37,129.84 407.48,127.87 C409.91,123.53 428.19,100.83 432.75,96.47 C434.54,94.76 436.00,93.08 436.00,92.73 C436.00,92.39 434.88,90.89 433.50,89.41 C430.58,86.26 430.27,84.16 432.75,84.36 C434.15,84.47 434.48,83.75 434.38,80.72 C434.32,78.64 434.00,76.66 433.67,76.34 C433.19,75.86 431.24,76.56 428.12,78.24 ZM 518.75 124.01 L 522.99 128.81 L 526.25 125.76 C528.04,124.08 533.55,119.58 538.50,115.77 C533.55,119.58 528.15,124.03 526.50,125.66 C524.52,127.60 523.53,128.65 520.57,132.50 C521.23,131.49 521.03,131.00 519.95,131.00 C519.38,131.00 517.73,129.82 516.28,128.37 C512.97,125.06 506.42,122.05 502.45,122.02 C500.44,122.01 499.14,122.69 496.31,125.81 C497.16,124.76 497.80,123.86 498.15,123.22 C499.88,119.98 495.78,111.88 491.14,109.38 C490.68,109.13 490.27,108.91 489.93,108.70 L 493.14 110.28 C496.09,111.73 502.10,114.33 506.50,116.06 C512.86,118.57 515.37,120.19 518.75,124.01 ZM 474.99 43.14 C473.68,47.08 473.39,49.84 473.07,55.25 C472.65,62.37 472.76,64.70 473.61,64.97 C469.99,66.00 464.90,68.01 461.66,69.72 C457.71,71.81 455.96,70.07 458.16,66.24 C459.03,64.73 459.56,63.02 459.35,62.44 C459.13,61.85 461.02,59.89 463.54,58.08 C469.95,53.48 472.63,50.60 473.41,47.50 C473.57,46.88 474.15,45.29 474.99,43.14 ZM 468.81 191.20 C465.45,195.17 460.76,201.17 454.46,209.50 C441.16,227.09 435.10,235.09 429.92,241.72 C430.18,241.06 430.43,240.19 430.61,239.25 C430.99,237.19 432.75,233.70 434.53,231.50 C436.31,229.30 438.69,225.65 439.83,223.39 C440.97,221.13 444.51,216.62 447.70,213.37 C450.89,210.12 454.28,206.27 455.22,204.81 C456.17,203.35 457.81,201.88 458.86,201.55 C459.90,201.21 463.54,197.55 466.94,193.42 C467.56,192.66 468.19,191.91 468.81,191.20 ZM 370.57 179.71 C366.55,185.05 363.53,187.38 364.75,184.20 C365.80,181.46 370.54,174.77 374.48,170.48 C384.52,159.50 385.97,158.00 386.50,158.00 C387.24,158.00 385.38,161.47 383.72,163.17 C383.01,163.90 381.39,166.19 380.13,168.25 C378.87,170.31 377.08,172.56 376.16,173.25 C375.24,173.94 372.72,176.84 370.57,179.71 ZM 249.50 466.24 C251.07,462.60 252.45,460.00 252.98,460.00 C253.37,460.00 257.47,462.25 262.10,465.00 C266.72,467.75 270.82,470.00 271.21,470.00 C271.60,470.00 275.20,471.52 279.21,473.38 C283.14,475.20 287.54,476.69 291.74,477.68 C291.12,477.57 290.53,477.47 290.00,477.38 C287.52,477.00 284.60,476.10 283.49,475.39 C282.38,474.67 280.13,474.19 278.49,474.33 C276.85,474.47 274.38,474.00 273.00,473.30 C271.62,472.59 269.92,472.01 269.21,472.01 C267.73,472.00 264.35,469.95 258.11,465.28 C255.69,463.48 253.16,462.00 252.49,462.00 C251.83,462.00 250.75,463.62 249.50,466.24 ZM 508.70 87.00 C511.27,84.20 512.07,83.96 513.62,84.80 C515.12,85.60 516.32,85.35 520.01,83.04 C517.71,84.56 516.02,85.87 516.01,86.16 C516.01,86.53 518.32,88.67 521.15,90.93 L 526.29 95.03 L 522.53 94.54 C516.79,93.81 515.03,93.04 511.66,89.83 L 508.70 87.00 ZM 420.41 212.92 C418.99,214.62 417.41,216.00 416.91,216.00 C415.71,216.00 415.75,215.71 417.42,212.49 C418.20,210.98 418.60,209.13 418.31,208.38 C418.02,207.62 418.25,207.00 418.81,207.00 C419.38,207.00 420.55,206.73 421.42,206.39 C423.97,205.41 423.35,209.43 420.41,212.92 ZM 271.00 537.75 C271.00,538.44 271.38,539.00 271.85,539.00 C272.81,539.00 276.22,530.88 275.54,530.21 C274.96,529.62 271.01,536.18 271.00,537.75 ZM 278.06 523.00 C278.06,525.41 278.11,525.43 279.53,523.56 C280.34,522.49 281.00,520.49 281.00,519.12 C281.00,516.70 280.95,516.69 279.53,518.56 C278.72,519.63 278.06,521.62 278.06,523.00 ZM 502.24 156.35 C491.08,169.83 477.49,184.57 475.43,184.99 C479.15,182.59 491.84,168.89 502.24,156.35 ZM 485.77 136.87 C488.50,134.33 491.37,131.42 493.68,128.86 C493.65,128.91 493.61,128.95 493.57,129.00 C490.36,132.85 487.46,136.01 487.12,136.02 C486.96,136.03 486.46,136.35 485.77,136.87 ZM 435.44 44.64 C434.51,40.99 433.10,33.57 432.51,28.88 C432.25,26.79 432.51,25.88 433.20,26.03 C432.06,26.33 432.54,31.17 434.69,40.50 C434.93,41.57 435.19,42.99 435.44,44.64 ZM 210.30 615.87 C210.32,616.92 210.34,617.97 210.37,619.00 C210.63,629.71 210.86,640.40 210.95,645.82 C210.77,640.01 210.59,632.93 210.44,625.50 C210.37,622.26 210.33,619.04 210.30,615.87 ZM 394.08 151.16 C394.76,152.46 395.13,155.60 395.22,159.41 C395.14,158.38 395.02,157.39 394.87,156.48 C394.52,154.41 394.25,152.65 394.08,151.16 ZM 476.88 82.51 C473.16,86.38 469.26,89.65 465.47,91.98 C469.17,89.36 473.87,85.53 476.88,82.51 ZM 484.48 58.02 C484.49,58.01 484.49,58.01 484.50,58.00 C488.63,53.70 491.64,51.59 493.24,51.55 C492.83,51.62 492.34,51.79 491.76,52.09 C490.60,52.70 487.42,55.30 484.48,58.02 ZM 372.59 494.21 C370.74,499.22 369.01,504.40 367.86,508.49 C369.08,503.59 370.59,499.04 372.48,494.48 C372.52,494.39 372.55,494.30 372.59,494.21 ZM 313.83 174.35 C315.35,172.96 316.90,171.61 318.50,170.29 C321.96,167.45 326.23,164.31 329.67,162.00 C325.80,164.61 321.02,168.21 318.00,170.91 C316.39,172.35 314.84,173.63 313.83,174.35 ZM 351.96 599.93 C351.99,599.96 352.00,599.99 352.00,600.01 C352.00,601.73 348.80,609.35 342.79,622.00 C339.25,629.42 333.92,641.03 330.93,647.78 C329.77,650.41 328.82,652.50 328.01,654.17 L 332.10 645.04 C334.46,639.79 339.38,629.16 343.06,621.42 C348.89,609.13 352.00,601.60 351.96,599.93 ZM 362.46 554.07 C361.73,555.25 356.47,556.37 350.72,556.94 C356.31,556.24 361.85,555.04 362.46,554.07 ZM 253.12 531.97 C249.79,529.80 246.58,527.24 243.75,524.43 C246.63,527.09 250.02,529.85 253.12,531.97 ZM 337.66 556.98 C335.82,556.66 333.23,556.04 330.52,555.31 L 330.75 555.36 C333.72,556.06 336.98,556.77 338.87,557.15 C338.44,557.10 338.04,557.05 337.66,556.98 ZM 354.98 245.63 C359.31,248.57 363.08,248.62 366.35,245.74 C363.12,248.74 359.41,248.64 354.98,245.63 ZM 386.51 203.61 C385.98,205.54 385.54,207.54 385.38,208.75 C385.19,210.15 384.67,212.94 384.10,215.59 C384.78,212.15 385.35,208.86 385.42,208.06 C385.47,207.42 385.92,205.63 386.51,203.61 ZM 212.62 560.37 C211.81,564.15 211.13,572.52 210.71,582.68 C211.11,572.25 211.77,564.25 212.62,560.37 ZM 519.97 133.29 C518.10,135.75 515.51,139.25 511.62,144.50 C510.32,146.25 508.86,148.14 507.29,150.13 C508.82,148.19 510.25,146.33 511.50,144.62 C515.60,139.05 519.41,133.96 519.97,133.29 ZM 394.39 173.76 C394.16,175.33 393.89,176.77 393.57,178.00 C392.64,181.57 391.18,187.20 390.33,190.50 C389.77,192.64 389.00,195.37 388.31,197.71 C389.02,195.29 389.77,192.57 390.31,190.50 C391.15,187.20 392.39,182.48 393.04,180.00 C393.59,177.96 394.04,175.86 394.39,173.76 ZM 465.07 154.96 C465.64,153.88 469.94,150.06 478.10,143.38 C476.18,145.00 474.04,146.79 472.12,148.38 C468.53,151.34 465.54,154.14 465.07,154.96 ZM 457.50 93.84 C457.60,93.89 457.69,93.94 457.79,93.99 C456.42,93.43 454.92,92.22 452.84,90.28 C451.62,89.14 450.51,88.49 449.51,88.34 C450.51,88.48 451.59,89.11 452.84,90.27 C454.30,91.62 456.40,93.23 457.50,93.84 ZM 365.57 520.45 C364.89,525.63 364.26,531.89 363.92,537.28 C364.32,530.98 364.85,525.46 365.57,520.45 ZM 503.28 93.13 L 505.60 90.50 L 503.29 93.32 L 503.28 93.13 ZM 486.97 69.76 C484.67,73.30 482.10,76.68 479.40,79.77 C482.17,76.57 484.75,73.12 486.97,69.76 ZM 403.64 94.31 C409.54,90.06 414.51,86.64 418.98,83.77 C414.58,86.62 409.39,90.18 403.64,94.31 ZM 239.47 501.86 C240.99,494.31 242.87,485.79 244.05,481.50 C244.20,480.95 244.36,480.38 244.54,479.79 C244.37,480.37 244.20,480.96 244.04,481.55 C242.87,485.80 240.99,494.31 239.47,501.86 ZM 537.43 67.55 C538.40,66.41 538.91,65.62 538.74,65.41 C538.74,65.41 538.75,65.41 538.75,65.41 C538.94,65.60 538.41,66.40 537.43,67.55 ZM 488.26 103.46 C488.27,103.32 488.29,103.18 488.31,103.04 C488.53,101.12 489.37,96.28 490.37,91.14 C489.37,96.28 488.52,101.14 488.30,103.07 L 488.26 103.46 ZM 521.76 81.92 C521.77,81.91 521.79,81.90 521.81,81.89 C522.60,81.37 523.57,80.65 524.63,79.78 C523.53,80.68 522.54,81.42 521.76,81.92 ZM 334.02 159.30 C334.52,159.03 334.93,158.83 335.25,158.71 C336.09,158.40 336.80,157.78 336.96,157.25 C336.80,157.78 336.09,158.40 335.25,158.72 C334.93,158.84 334.51,159.04 334.02,159.30 ZM 324.51 594.41 C325.27,594.70 326.03,594.97 326.79,595.23 C326.02,594.97 325.26,594.70 324.51,594.41 Z" fill="rgba(116,69,45,1)"/>
<path d="M 240.74 731.40 C241.17,731.84 242.59,731.78 244.04,731.44 C244.01,731.47 244.00,731.49 244.00,731.51 C244.00,731.66 244.87,734.65 245.94,738.14 C248.14,745.32 250.99,760.88 251.00,765.68 C251.00,767.92 250.00,769.91 247.63,772.43 C244.66,775.58 243.69,776.00 239.38,775.99 C231.44,775.99 227.14,774.25 221.25,768.67 C218.26,765.84 215.17,762.30 214.39,760.80 C213.62,759.29 211.78,756.95 210.31,755.59 C208.77,754.16 207.57,751.92 207.49,750.30 C207.32,747.23 203.10,740.46 199.98,738.27 C198.21,737.03 198.00,737.09 198.00,738.82 C198.00,741.82 203.83,755.56 208.63,764.06 C205.95,759.40 203.47,754.34 201.32,749.04 C195.98,735.91 195.64,732.04 199.09,723.44 C201.82,716.63 202.41,713.25 201.78,708.24 C201.44,705.54 200.45,705.24 197.90,707.08 C195.94,708.48 195.24,713.00 196.98,713.00 C197.59,713.00 197.61,713.88 197.04,715.40 C196.54,716.72 196.44,718.14 196.81,718.56 C197.19,718.98 197.01,719.04 196.42,718.71 C195.88,718.40 195.12,719.19 194.33,720.63 C195.34,717.67 195.43,714.69 195.28,706.00 C195.11,695.35 195.37,692.90 197.03,689.44 C199.55,684.23 204.32,680.48 205.94,682.43 C206.73,683.38 209.36,683.73 214.91,683.60 C222.18,683.44 223.01,683.20 226.39,680.23 C228.40,678.47 231.27,676.73 232.77,676.37 C234.27,676.01 236.74,675.10 238.25,674.33 C241.04,672.93 241.92,673.68 239.89,675.71 C238.13,677.47 240.85,686.82 243.35,687.61 C244.34,687.92 244.79,688.11 244.73,688.36 C244.27,687.64 239.43,687.72 230.50,689.21 C218.20,691.26 216.25,691.97 217.48,693.97 C217.87,694.61 219.38,694.89 220.85,694.60 C222.31,694.31 227.32,693.34 232.00,692.43 C237.44,691.38 241.10,690.39 243.06,689.61 C241.56,691.02 241.73,693.75 243.60,694.80 C243.96,695.00 244.23,695.18 244.41,695.36 C243.88,695.21 242.70,695.63 240.84,696.61 C238.45,697.87 235.50,698.33 230.50,698.21 C223.59,698.05 223.53,698.07 225.82,699.83 L 228.14 701.61 L 225.57 702.79 C222.27,704.29 222.34,705.20 225.96,708.63 L 228.92 711.42 L 225.71 714.11 C221.53,717.62 222.71,718.70 227.86,716.07 C232.77,713.57 234.82,713.48 237.92,715.66 L 240.28 717.31 L 236.59 719.20 C233.40,720.84 232.44,720.93 229.48,719.86 C225.61,718.46 224.08,719.19 226.01,721.51 C227.10,722.83 226.88,723.52 224.57,725.93 C220.71,729.96 223.01,730.86 228.95,727.63 C233.66,725.06 233.78,725.05 238.52,726.66 C242.65,728.07 243.09,728.46 241.67,729.50 C240.77,730.16 240.35,731.01 240.74,731.40 ZM 325.96 734.05 C328.72,735.17 330.41,735.76 331.12,735.79 C331.28,736.76 331.42,737.66 331.50,738.37 C331.75,740.50 332.75,742.85 333.73,743.59 C335.40,744.86 335.41,744.94 333.75,744.97 C332.29,744.99 332.00,745.95 332.00,750.75 C332.00,756.57 330.08,767.30 328.17,772.15 C327.60,773.61 326.10,775.52 324.84,776.40 C321.99,778.39 314.82,778.47 311.10,776.55 C306.73,774.29 296.43,761.26 295.11,756.31 C294.69,754.76 293.63,753.36 292.74,753.19 C291.51,752.95 291.16,754.49 291.69,757.52 C291.64,757.22 291.59,756.96 291.56,756.74 C291.40,755.51 290.92,753.67 290.49,752.66 C290.18,751.91 290.06,748.04 290.17,743.16 C290.17,750.88 291.54,749.30 292.97,737.75 C294.28,727.07 294.03,720.27 292.08,713.50 C291.44,711.30 290.86,705.90 290.79,701.50 C290.67,694.40 291.02,692.74 293.88,686.75 C295.65,683.04 297.56,680.00 298.11,680.00 C298.66,680.00 298.84,679.55 298.51,679.01 C297.46,677.31 302.68,673.00 305.79,673.00 C307.37,673.00 310.82,674.09 313.45,675.43 C316.09,676.76 320.16,678.42 322.51,679.11 C326.03,680.15 326.54,680.60 325.46,681.68 C324.73,682.41 323.17,683.00 321.99,683.00 C319.20,683.00 319.91,685.39 322.83,685.82 C324.73,686.10 325.00,686.77 325.00,691.21 C325.00,694.52 325.40,696.30 326.42,697.32 C323.69,696.11 316.26,693.82 310.99,692.64 C309.61,692.34 307.81,692.51 306.99,693.04 C304.92,694.38 306.99,695.62 312.71,696.48 C315.12,696.84 318.75,697.71 320.78,698.41 C322.72,699.08 324.66,699.34 325.98,699.22 C324.34,700.36 324.53,705.00 326.67,705.00 C327.58,705.00 328.03,705.30 327.66,705.67 C328.03,705.30 327.15,705.00 325.70,705.00 C323.42,705.00 319.32,703.39 312.76,699.92 C310.28,698.60 307.76,698.79 308.24,700.25 C308.46,700.94 310.26,702.27 312.25,703.22 C317.44,705.70 317.66,706.83 313.32,708.63 C308.04,710.83 307.52,712.09 310.75,714.84 C312.54,716.37 313.07,717.36 312.26,717.67 C311.58,717.94 310.01,719.01 308.76,720.05 L 306.50 721.93 L 308.67 721.97 C309.87,721.99 313.05,721.49 315.74,720.87 C319.69,719.96 321.15,720.02 323.34,721.16 C324.82,721.94 326.92,722.64 328.00,722.73 C328.53,722.77 328.91,722.78 329.15,722.73 C329.23,723.22 329.25,723.71 329.19,724.10 C329.04,724.99 329.40,727.69 329.98,730.10 C330.30,731.43 330.65,733.15 330.95,734.78 C330.53,734.35 329.88,733.77 329.00,733.04 C326.00,730.55 325.75,730.04 327.25,729.46 C330.74,728.12 329.05,726.72 324.66,727.32 C321.41,727.77 319.40,727.43 316.66,725.96 C310.86,722.85 308.30,723.47 311.65,727.17 C313.20,728.88 313.19,729.14 311.48,731.02 C308.77,734.02 310.72,734.99 316.46,733.49 C320.87,732.35 321.94,732.41 325.96,734.05 ZM 244.38 702.72 C244.35,702.75 244.31,702.77 244.27,702.80 C242.74,703.79 243.74,717.00 245.34,717.00 C246.00,717.00 245.95,717.45 245.20,718.20 C244.54,718.86 244.00,721.53 244.00,724.13 C244.00,726.80 244.13,728.02 244.75,728.66 C244.29,728.40 244.00,728.01 244.00,727.56 C244.00,726.78 242.44,725.57 240.53,724.88 C236.55,723.43 237.03,722.16 242.54,719.55 C245.84,717.98 245.92,717.83 244.25,716.09 C243.29,715.09 241.44,713.72 240.15,713.05 L 237.80 711.82 L 240.65 708.76 C242.22,707.07 242.82,705.92 242.00,706.20 C241.18,706.49 238.90,707.29 236.94,707.99 C233.93,709.07 232.93,709.02 230.44,707.70 L 227.50 706.14 L 231.32 704.53 C233.42,703.64 237.12,703.02 239.55,703.14 C241.90,703.26 243.57,703.10 244.38,702.72 ZM 289.74 717.52 C289.65,716.89 289.54,716.25 289.43,715.60 C288.01,707.41 285.59,701.00 283.92,701.00 C283.56,701.00 282.07,702.74 280.60,704.86 L 277.98 708.64 C275.48,701.90 275.66,700.58 277.93,696.14 C280.21,691.67 282.98,688.93 282.60,691.52 C282.34,693.27 284.84,701.15 286.73,704.57 C287.99,706.85 289.06,711.73 289.74,717.52 ZM 329.65 709.36 C330.04,709.94 329.70,710.00 328.62,710.00 C327.21,710.00 326.99,710.81 327.31,714.85 C327.34,715.22 327.38,715.59 327.42,715.96 C327.03,715.65 326.03,715.63 324.15,715.81 C321.77,716.04 318.97,715.52 316.93,714.47 L 313.61 712.75 L 317.44 710.78 C320.43,709.25 322.28,708.97 325.88,709.50 C329.25,710.01 330.13,710.12 329.65,709.36 ZM 327.50 744.00 C332.82,745.00 335.47,745.14 334.71,744.38 C333.22,742.89 311.55,736.05 310.77,736.83 C310.30,737.30 310.49,738.16 311.21,738.74 C312.74,739.99 321.86,742.93 327.50,744.00 ZM 221.00 734.06 C221.00,735.32 229.57,735.25 234.25,733.95 C240.89,732.10 238.67,730.77 230.25,731.54 C222.02,732.29 221.00,732.57 221.00,734.06 ZM 316.29 685.00 C316.66,683.57 316.32,683.00 315.07,683.00 C312.62,683.00 311.83,684.09 313.13,685.66 C314.69,687.54 315.68,687.33 316.29,685.00 ZM 192.53 724.77 C191.44,727.84 190.54,731.52 190.33,734.50 C190.29,735.05 190.26,735.58 190.24,736.09 C190.14,732.12 190.91,728.53 192.53,724.77 ZM 327.52 716.80 C327.70,718.09 327.94,719.29 328.19,720.12 C327.54,718.94 327.23,717.55 327.50,716.86 C327.51,716.84 327.52,716.82 327.52,716.80 ZM 280.12 714.32 C281.73,718.46 282.15,720.41 281.89,728.84 C282.11,721.27 281.73,718.76 280.12,714.32 ZM 247.69 729.59 L 248.50 729.75 L 247.12 730.20 C247.24,730.11 247.36,730.02 247.45,729.93 C247.58,729.80 247.66,729.69 247.69,729.59 ZM 327.59 698.26 C328.27,698.84 328.11,698.93 327.11,698.96 C327.45,698.80 327.63,698.56 327.59,698.26 ZM 295.40 771.01 C294.54,767.98 293.40,764.03 292.85,762.24 C292.73,761.84 292.61,761.41 292.49,760.96 C292.61,761.40 292.74,761.85 292.88,762.32 C293.41,764.07 294.54,767.98 295.40,771.01 ZM 244.65 696.28 C244.56,696.67 244.29,697.17 243.85,697.88 C243.33,698.72 243.05,699.28 243.02,699.71 C243.04,699.29 243.32,698.75 243.82,697.93 C244.24,697.25 244.52,696.70 244.65,696.28 Z" fill="rgba(103,111,124,1)"/>
<path d="M 548.43 85.51 C548.17,85.99 547.80,86.57 547.36,87.22 C548.34,85.50 547.86,85.00 546.07,85.00 C544.53,85.00 536.85,91.35 534.04,94.60 C534.70,93.78 535.76,92.73 537.25,91.34 C539.59,89.16 542.27,85.93 543.21,84.17 C545.15,80.55 547.60,79.20 549.24,80.84 C550.05,81.65 549.83,82.91 548.43,85.51 ZM 533.40 96.86 C533.80,97.22 534.46,97.61 535.21,97.88 C536.06,98.19 536.85,98.22 537.74,97.85 C536.85,98.33 536.15,98.28 535.25,97.93 C534.33,97.58 533.70,97.25 533.40,96.86 Z" fill="rgba(102,77,62,1)"/>
<path d="M 199.27 722.97 C200.29,719.73 199.30,719.37 196.42,722.08 C195.00,723.41 193.54,724.33 193.17,724.11 C193.03,724.03 192.87,724.10 192.71,724.28 C194.00,720.76 195.51,718.19 196.42,718.71 C197.01,719.04 197.19,718.98 196.81,718.56 C196.44,718.14 196.54,716.72 197.04,715.40 C197.61,713.88 197.59,713.00 196.98,713.00 C195.24,713.00 195.94,708.48 197.90,707.08 C200.45,705.24 201.44,705.54 201.78,708.24 C202.40,713.14 201.84,716.47 199.27,722.97 ZM 286.87 705.49 C286.23,705.04 284.64,706.09 282.57,708.35 C279.98,711.18 279.37,711.94 279.87,713.68 L 277.92 708.72 L 280.60 704.86 C282.07,702.74 283.56,701.00 283.92,701.00 C284.78,701.00 285.85,702.71 286.87,705.49 ZM 313.22 710.20 C313.92,710.66 315.62,710.74 317.00,710.37 C317.47,710.25 318.18,710.13 319.04,710.04 C318.53,710.24 318.01,710.49 317.44,710.78 L 313.61 712.75 L 316.93 714.47 C317.38,714.70 317.87,714.91 318.39,715.08 C317.89,714.94 317.43,714.79 317.00,714.62 C313.00,713.02 311.90,713.50 314.24,715.84 C315.23,716.83 315.18,717.28 313.99,718.03 C313.17,718.54 311.77,718.98 310.87,718.98 C310.55,718.99 310.18,719.08 309.80,719.23 C310.78,718.50 311.76,717.87 312.26,717.67 C313.07,717.36 312.54,716.37 310.75,714.84 C307.52,712.09 308.04,710.83 313.32,708.63 C315.81,707.60 316.80,706.79 316.21,705.82 L 317.49 706.82 L 314.72 708.08 C312.70,709.00 312.29,709.58 313.22,710.20 ZM 323.34 721.16 C321.53,720.21 320.21,720.01 317.58,720.49 C320.49,719.73 322.94,718.86 323.30,718.28 C323.74,717.58 324.98,717.00 326.05,717.00 C326.65,717.00 327.19,716.89 327.55,716.71 C327.54,716.76 327.52,716.81 327.50,716.86 C327.20,717.64 327.63,719.31 328.46,720.58 C329.85,722.71 329.82,722.86 328.00,722.73 C326.92,722.64 324.82,721.94 323.34,721.16 ZM 329.55 733.50 C327.86,732.55 325.60,731.66 324.85,731.80 C324.50,731.87 324.44,731.02 324.73,729.91 C325.18,728.21 324.90,727.99 322.88,728.49 C321.23,728.91 319.45,728.31 317.06,726.54 C313.79,724.13 310.34,723.30 310.16,724.69 C310.12,723.43 312.59,723.78 316.66,725.96 C319.40,727.43 321.41,727.77 324.66,727.32 C329.05,726.72 330.74,728.12 327.25,729.46 C325.75,730.04 326.00,730.55 329.00,733.04 C329.19,733.20 329.38,733.35 329.55,733.50 ZM 313.83 704.02 C313.36,703.77 312.84,703.50 312.25,703.22 C310.26,702.27 308.46,700.94 308.24,700.25 C307.76,698.79 310.28,698.60 312.76,699.92 C314.31,700.74 315.72,701.46 317.01,702.07 C315.90,701.77 314.69,701.55 313.63,701.49 C310.20,701.30 309.81,701.45 311.37,702.38 C312.00,702.76 312.93,703.39 313.83,704.02 ZM 320.78 698.41 C319.99,698.14 318.96,697.84 317.85,697.56 C318.95,697.74 319.92,697.87 320.46,697.90 C322.28,697.99 322.30,697.87 320.81,696.38 C319.19,694.76 312.36,692.67 308.97,692.51 C309.64,692.46 310.36,692.50 310.99,692.64 C315.22,693.59 320.83,695.25 324.30,696.49 C324.08,696.61 324.00,696.93 324.00,697.46 C324.00,698.33 324.87,699.00 326.00,699.00 C326.45,699.00 326.88,698.96 327.21,698.90 C326.23,699.47 323.50,699.35 320.78,698.41 ZM 231.62 720.48 C231.27,720.46 230.93,720.42 230.60,720.36 C228.27,719.89 227.82,720.08 228.29,721.31 C228.68,722.32 227.66,723.79 225.36,725.54 C224.62,726.11 224.03,726.60 223.60,727.04 C223.86,726.70 224.19,726.33 224.57,725.93 C226.88,723.52 227.10,722.83 226.01,721.51 C224.08,719.19 225.61,718.46 229.48,719.86 C230.32,720.16 231.00,720.37 231.62,720.48 ZM 310.72 726.00 C311.21,726.55 312.01,727.12 312.81,727.49 C315.67,728.78 315.58,729.83 312.50,731.00 C311.73,731.29 311.13,731.64 310.71,732.01 C310.90,731.71 311.15,731.38 311.48,731.02 C313.19,729.14 313.20,728.88 311.65,727.17 C311.26,726.74 310.95,726.35 310.72,726.00 ZM 244.69 701.54 C244.23,701.22 243.30,701.00 242.25,701.00 L 239.50 700.99 L 242.50 698.58 C243.56,697.74 244.24,697.03 244.58,696.50 C244.43,696.88 244.17,697.36 243.82,697.93 C242.71,699.73 242.73,700.21 243.97,700.98 C244.29,701.17 244.52,701.36 244.69,701.54 ZM 221.00 734.06 C221.00,732.57 222.02,732.29 230.25,731.54 C231.01,731.47 231.72,731.41 232.38,731.38 C232.02,731.41 231.64,731.44 231.25,731.49 C224.05,732.25 223.00,732.58 223.00,734.06 C223.00,734.63 224.34,734.92 226.25,734.96 C223.34,735.01 221.00,734.72 221.00,734.06 ZM 193.28 750.13 C191.37,744.71 190.53,741.72 190.30,738.80 C191.24,745.34 195.21,755.91 200.21,765.89 C197.42,760.42 194.92,754.81 193.28,750.13 ZM 290.36 737.72 C290.68,731.08 290.39,723.53 289.72,717.38 C290.64,723.38 290.79,728.79 290.36,737.72 ZM 231.38 704.50 C233.51,703.60 236.89,702.94 238.88,703.03 C240.43,703.10 241.60,703.14 242.48,703.12 C241.68,703.19 240.70,703.20 239.55,703.14 C237.15,703.02 233.49,703.63 231.38,704.50 ZM 196.98 735.21 C196.48,731.59 196.93,728.78 198.21,725.76 C197.03,729.17 196.59,731.94 196.98,735.21 ZM 327.66 705.67 C327.30,706.04 327.78,707.21 328.74,708.27 C330.19,709.87 330.36,710.13 327.63,709.76 C329.84,709.69 329.70,709.33 328.57,708.08 C327.71,707.12 327.30,706.04 327.66,705.67 ZM 320.59 703.67 C322.84,704.57 324.51,705.00 325.70,705.00 C327.15,705.00 328.03,705.30 327.66,705.67 C328.03,705.30 327.01,705.00 325.39,705.00 C323.96,705.00 321.93,704.42 320.59,703.67 ZM 280.62 715.63 C281.71,718.29 282.08,720.25 281.94,726.84 C282.06,720.89 281.71,718.65 280.62,715.63 ZM 307.77 721.95 L 306.50 721.93 L 307.60 721.02 C307.19,721.60 307.22,721.86 307.77,721.95 ZM 312.40 696.43 C310.49,696.13 309.01,695.79 307.97,695.41 C308.06,695.44 308.15,695.46 308.25,695.49 C309.11,695.69 310.75,696.06 312.40,696.43 ZM 239.89 717.51 L 236.89 719.12 C236.33,719.42 235.77,719.67 235.21,719.88 C235.62,719.69 236.08,719.47 236.59,719.20 L 239.89 717.51 ZM 244.63 695.49 C244.15,695.24 242.84,695.56 240.84,696.61 C243.03,695.46 244.28,695.08 244.63,695.49 ZM 238.12 732.02 C238.26,732.49 237.03,733.18 234.25,733.95 C236.92,733.21 238.15,732.51 238.12,732.02 ZM 326.76 715.74 C326.15,715.69 325.36,715.71 324.50,715.81 C324.18,715.85 323.81,715.86 323.41,715.86 C323.66,715.85 323.91,715.84 324.15,715.81 C325.36,715.70 326.21,715.67 326.76,715.74 ZM 222.67 728.97 C222.72,729.09 222.79,729.19 222.89,729.29 C223.03,729.43 223.20,729.52 223.41,729.57 C222.96,729.52 222.70,729.32 222.67,728.97 ZM 314.58 733.92 C315.18,733.79 315.82,733.65 316.46,733.48 C318.47,732.96 319.78,732.70 321.00,732.71 C319.78,732.70 318.47,732.97 316.46,733.49 C315.78,733.67 315.15,733.81 314.58,733.92 ZM 326.99 697.59 C327.24,697.72 327.40,697.83 327.45,697.92 C327.45,697.92 327.45,697.92 327.45,697.92 C327.32,697.82 327.16,697.70 326.99,697.59 Z" fill="rgba(121,130,143,1)"/>
<path d="M 417.50 246.33 C415.85,245.48 413.46,243.49 412.18,241.90 L 409.86 239.01 L 411.50 227.25 C413.09,215.90 414.18,212.58 420.47,200.00 C421.71,197.52 422.58,194.57 422.40,193.44 C421.79,189.61 458.85,156.00 463.68,156.00 C464.40,156.00 465.00,155.61 465.00,155.13 C465.00,154.65 468.20,151.61 472.12,148.38 C476.03,145.15 480.87,141.05 482.87,139.27 C484.87,137.50 486.78,136.04 487.12,136.02 C487.46,136.01 490.36,132.85 493.57,129.00 C495.00,127.28 496.14,125.97 497.09,124.97 C496.91,125.24 496.74,125.54 496.57,125.87 C494.95,129.00 495.34,130.00 498.17,130.00 C501.64,130.00 500.20,134.29 494.75,140.16 C489.62,145.70 478.42,155.00 476.88,155.00 C476.46,155.00 475.52,156.23 474.80,157.73 C473.90,159.60 472.63,160.52 470.76,160.67 C469.26,160.78 466.38,162.13 464.37,163.67 C459.55,167.34 453.99,169.42 447.75,169.87 C446.41,169.97 446.00,170.90 446.00,173.83 C446.00,176.83 445.49,177.94 443.64,178.93 C441.29,180.18 440.76,181.65 434.31,204.50 C431.41,214.80 428.90,222.55 428.02,223.98 C427.39,224.98 427.64,226.05 428.78,227.31 C430.39,229.09 430.61,229.00 434.48,224.75 C452.12,205.41 458.33,198.99 462.29,195.97 C464.81,194.06 467.35,191.47 467.93,190.20 C468.52,188.94 470.86,187.07 473.13,186.05 C474.97,185.23 476.64,184.15 479.22,181.75 C477.10,183.77 475.54,185.07 474.81,185.32 C473.87,185.63 470.33,189.28 466.94,193.42 C463.54,197.55 459.90,201.21 458.86,201.55 C457.81,201.88 456.17,203.35 455.22,204.81 C454.28,206.27 450.89,210.12 447.70,213.37 C444.51,216.62 440.97,221.13 439.83,223.39 C438.69,225.65 436.31,229.30 434.53,231.50 C432.75,233.70 430.99,237.19 430.61,239.25 C430.22,241.31 429.50,243.00 429.00,243.00 C428.50,243.00 426.97,244.12 425.59,245.50 C422.73,248.36 421.67,248.47 417.50,246.33 ZM 415.23 86.24 C425.70,79.22 432.71,75.38 433.67,76.34 C434.00,76.66 434.32,78.64 434.38,80.72 C434.48,83.75 434.15,84.47 432.75,84.36 C430.27,84.16 430.58,86.26 433.50,89.41 C434.88,90.89 436.00,92.39 436.00,92.73 C436.00,93.08 434.54,94.76 432.75,96.47 C428.19,100.83 409.91,123.53 407.48,127.87 C406.37,129.84 404.47,131.96 403.26,132.56 C400.45,133.96 397.02,138.31 396.47,141.15 C396.24,142.36 395.52,143.68 394.89,144.07 C393.50,144.93 393.49,148.42 394.87,156.48 C394.93,156.86 394.99,157.25 395.04,157.66 C394.91,156.88 394.73,156.33 394.49,156.09 C393.94,155.54 393.00,155.40 392.42,155.79 C390.10,157.33 386.00,164.61 386.00,167.18 C386.00,169.09 385.00,170.66 382.62,172.48 C380.76,173.89 378.97,176.28 378.64,177.78 C378.31,179.27 376.34,182.38 374.27,184.68 C368.89,190.65 364.76,195.86 361.53,200.75 C359.61,203.67 358.03,205.00 356.47,205.00 C354.39,205.00 354.27,205.28 355.03,208.64 C355.38,210.17 356.05,211.87 356.69,212.92 C356.04,212.42 355.44,211.88 354.87,211.30 C350.47,206.91 350.11,204.87 353.25,202.32 C355.45,200.55 358.46,195.13 357.69,194.35 C356.41,193.08 346.83,199.99 334.15,211.32 C330.90,214.23 326.68,217.41 324.25,218.81 C328.37,216.10 332.98,212.07 340.54,204.75 C347.78,197.74 354.14,192.00 354.68,192.00 C355.23,192.00 359.01,187.65 363.09,182.33 C367.16,177.02 374.71,168.13 379.86,162.58 C386.43,155.50 390.08,150.60 392.12,146.13 C393.72,142.63 396.20,138.35 397.63,136.63 C399.07,134.91 401.96,131.48 404.05,129.00 C422.22,107.54 425.52,103.86 424.78,101.38 C424.58,100.70 424.07,100.12 423.48,99.28 C422.65,98.09 421.80,94.43 421.60,91.15 C421.40,87.87 420.93,84.69 420.56,84.09 C420.20,83.51 418.67,84.07 415.23,86.24 ZM 332.33 555.73 C331.80,555.61 331.27,555.48 330.75,555.36 L 324.00 553.78 L 324.02 541.64 C324.03,529.30 325.13,523.88 326.36,530.04 C326.71,531.81 327.00,534.27 327.00,535.52 C327.00,536.77 327.61,538.02 328.37,538.31 C329.44,538.72 329.84,536.88 330.25,529.76 C330.88,518.72 330.24,513.00 328.37,513.00 C327.49,513.00 326.99,514.17 326.98,516.25 C326.96,520.45 325.50,523.02 324.75,520.16 C323.90,516.91 325.11,508.59 326.61,507.39 C327.51,506.67 328.04,503.91 328.14,499.39 C328.33,491.05 329.23,489.45 332.52,491.61 C333.90,492.51 336.03,492.93 337.68,492.63 C345.64,491.18 364.23,486.79 369.50,485.11 C374.11,483.65 375.57,483.50 375.80,484.47 C375.96,485.17 374.47,489.67 372.48,494.48 C369.69,501.22 367.72,507.91 366.31,515.80 C367.46,508.93 368.88,503.23 370.42,499.53 C372.14,495.42 372.48,491.41 371.17,490.61 C370.72,490.32 368.74,491.23 366.78,492.63 C362.30,495.82 355.98,497.32 352.55,496.02 C351.15,495.49 350.00,494.58 350.00,494.02 C350.00,493.36 349.36,493.31 348.25,493.87 C345.47,495.29 341.68,496.82 339.38,497.46 C337.44,498.00 337.19,499.02 336.48,509.28 C336.05,515.45 335.79,521.88 335.91,523.58 C336.03,525.37 335.47,527.19 334.56,527.95 C332.73,529.47 332.36,539.48 334.10,540.56 C335.19,541.24 335.00,543.62 333.21,551.73 L 332.33 555.73 ZM 313.88 653.04 C313.50,648.13 314.29,630.88 315.06,627.36 C315.72,624.31 315.56,622.05 314.41,618.69 C313.14,614.95 313.03,612.21 313.78,603.07 C314.28,596.97 314.93,591.74 315.22,591.45 C315.51,591.16 319.29,592.33 323.62,594.06 C329.08,596.24 334.58,597.54 341.50,598.28 C347.00,598.87 351.66,599.47 351.85,599.61 C351.92,599.66 351.95,599.77 351.96,599.94 C351.53,599.54 348.00,598.96 343.75,598.61 C339.21,598.24 332.90,597.21 329.72,596.33 C326.55,595.44 323.69,594.98 323.37,595.30 C323.06,595.61 322.56,602.54 322.28,610.68 C321.98,619.41 321.23,626.73 320.47,628.50 C318.62,632.79 317.72,641.75 318.98,643.25 C319.55,643.94 320.95,645.74 322.09,647.26 C323.23,648.78 324.57,649.77 325.07,649.46 C325.57,649.15 326.77,649.33 327.73,649.87 C328.62,650.37 329.40,650.71 329.57,650.69 L 327.83 654.59 L 320.91 654.59 C315.40,654.59 313.98,654.28 313.88,653.04 ZM 260.23 535.91 C260.40,535.96 260.53,535.99 260.62,535.99 C261.93,536.00 272.00,521.42 272.00,519.51 C272.00,518.79 273.73,514.44 275.83,509.85 C280.54,499.60 282.73,492.29 283.37,484.70 C283.86,478.96 283.84,478.89 280.68,477.57 C278.93,476.84 275.70,475.68 273.50,474.99 C270.00,473.90 260.09,468.62 253.25,464.22 C251.92,463.36 251.34,463.08 250.58,464.16 C251.36,462.79 252.03,462.00 252.49,462.00 C253.16,462.00 255.69,463.48 258.11,465.28 C264.35,469.95 267.73,472.00 269.21,472.01 C269.92,472.01 271.62,472.59 273.00,473.30 C274.38,474.00 276.85,474.47 278.49,474.33 C280.13,474.19 282.38,474.67 283.49,475.39 C284.60,476.10 287.52,477.00 290.00,477.38 C292.48,477.77 296.22,478.54 298.31,479.10 L 302.13 480.11 L 300.03 483.31 C298.88,485.06 296.40,489.72 294.52,493.66 C289.30,504.60 287.28,504.46 288.81,493.27 C289.28,489.86 289.37,486.60 289.02,486.04 C288.40,485.03 287.73,486.67 280.04,508.00 C276.13,518.84 267.08,537.14 265.34,537.72 C264.94,537.85 262.85,537.10 260.23,535.91 ZM 582.44 36.31 L 589.17 36.60 L 588.62 33.83 C588.31,32.30 586.91,29.23 585.49,26.99 C582.40,22.09 565.34,3.99 564.56,4.78 C564.25,5.08 564.00,4.53 564.00,3.54 C564.00,3.06 563.94,2.71 563.77,2.48 C565.10,2.64 566.53,3.00 568.13,3.52 C580.64,7.61 590.62,15.03 596.89,24.87 C599.83,29.48 604.51,41.82 603.65,42.69 C603.40,42.94 601.46,42.26 599.35,41.18 C594.21,38.56 588.58,36.94 582.44,36.31 ZM 503.37 93.22 L 508.56 86.86 L 511.66 89.83 C515.03,93.04 516.79,93.81 522.53,94.54 L 526.29 95.03 L 521.15 90.93 C519.58,89.68 518.18,88.47 517.24,87.58 C520.19,90.25 529.25,96.00 530.84,95.98 C531.75,95.97 533.74,94.57 535.89,92.63 C532.37,96.06 532.45,96.85 535.25,97.93 C537.16,98.66 538.17,98.07 542.00,93.93 C543.18,92.66 544.45,91.14 545.57,89.69 C544.74,90.78 543.79,91.98 542.70,93.29 C539.03,97.74 538.87,98.18 540.51,99.38 C542.15,100.58 541.96,101.09 537.89,106.25 C532.82,112.69 531.04,113.77 529.34,111.45 C528.37,110.13 528.46,109.10 529.78,106.34 C531.66,102.39 531.19,101.76 525.00,100.01 C523.08,99.46 520.15,98.12 518.50,97.02 C516.85,95.91 515.16,95.01 514.75,95.01 C513.27,94.99 514.04,97.08 515.75,97.70 C517.76,98.43 525.00,105.12 525.00,106.25 C525.00,106.66 523.19,107.00 520.98,107.00 C517.35,107.00 516.65,106.56 513.79,102.51 C512.05,100.04 508.98,96.93 506.96,95.59 L 503.37 93.22 ZM 459.10 41.06 C460.87,42.15 461.46,41.50 463.66,36.00 C465.02,32.61 465.42,29.06 465.32,21.64 C465.22,14.87 464.89,11.66 463.82,10.68 C463.98,10.69 464.09,10.72 464.15,10.78 C465.02,11.68 465.84,19.48 465.93,27.75 C465.97,31.44 466.43,34.00 467.06,34.00 C467.64,34.00 467.87,33.60 467.57,33.11 C467.27,32.63 467.70,31.66 468.53,30.98 C469.36,30.29 470.74,28.24 471.60,26.43 C472.47,24.59 473.81,22.68 475.30,21.01 C472.95,23.96 470.66,28.13 468.65,33.26 C467.19,36.98 466.00,40.90 466.00,41.98 C466.00,44.81 462.49,46.26 455.04,46.51 C449.15,46.71 447.57,46.72 447.14,47.43 C446.96,47.73 446.98,48.14 446.97,48.75 C446.94,50.33 446.80,50.32 445.47,48.56 C444.66,47.49 444.00,45.92 443.99,45.06 C443.99,44.30 443.25,42.40 442.15,40.09 L 444.78 45.20 L 445.40 38.50 C444.97,43.32 445.13,44.20 446.11,43.25 C446.82,42.56 449.22,42.00 451.45,42.00 L 455.50 42.00 L 455.50 28.00 C455.50,15.69 455.30,14.00 453.86,14.00 C453.78,14.00 453.69,14.01 453.60,14.02 C455.73,13.09 458.24,12.14 460.29,11.49 C459.23,12.41 459.00,13.86 458.99,17.79 C458.98,20.93 458.69,27.26 458.34,31.85 C457.85,38.41 458.01,40.39 459.10,41.06 ZM 210.98 648.87 C210.97,645.92 210.70,632.47 210.37,619.00 C210.70,632.47 210.97,644.06 210.98,644.75 C211.01,646.38 211.97,646.33 213.92,644.59 C214.79,643.82 217.52,642.09 220.00,640.76 C232.26,634.14 233.20,632.98 236.04,621.00 C238.43,610.90 239.55,607.53 245.04,593.99 C248.32,585.89 251.00,579.02 251.00,578.73 C251.00,578.47 249.11,577.81 246.65,577.19 C247.37,577.34 248.07,577.47 248.77,577.58 C251.03,577.94 252.71,578.74 252.62,579.42 C252.46,580.48 248.55,590.16 244.33,599.95 C242.57,604.03 240.94,609.10 238.51,618.00 C235.83,627.82 233.13,635.01 230.95,638.06 C229.88,639.57 229.00,641.45 229.00,642.23 C229.00,643.73 221.38,648.00 218.70,648.00 C217.83,648.00 216.53,648.79 215.81,649.75 C215.09,650.71 213.71,652.12 212.75,652.87 C211.13,654.14 211.00,653.84 210.98,648.87 ZM 477.28 37.45 C475.26,42.33 473.68,46.41 473.41,47.50 C472.63,50.60 469.95,53.48 463.54,58.08 C461.02,59.89 459.13,61.85 459.35,62.44 C459.56,63.02 459.03,64.73 458.16,66.24 C455.96,70.07 457.71,71.81 461.66,69.72 C464.96,67.97 470.19,65.93 473.82,64.91 C469.75,66.06 464.53,68.38 462.12,70.20 C458.01,73.30 454.00,71.94 454.00,67.45 C454.00,64.57 450.59,61.61 448.03,62.28 C445.66,62.90 444.74,61.85 445.62,59.55 C446.20,58.05 446.39,58.04 448.02,59.52 C449.66,61.00 450.04,60.91 453.15,58.31 C457.02,55.07 459.58,53.39 462.74,52.02 C463.98,51.49 466.20,50.26 467.67,49.29 C469.15,48.33 470.97,47.53 471.72,47.52 C472.32,47.51 474.71,42.97 477.28,37.45 ZM 339.11 219.75 C339.42,219.34 339.76,218.93 340.10,218.53 C343.04,215.19 345.43,214.09 346.17,215.75 C346.35,216.16 348.86,218.45 351.75,220.84 C354.64,223.23 357.00,225.80 357.00,226.56 C357.00,227.78 360.43,230.37 362.17,230.46 C362.53,230.48 363.21,230.91 363.67,231.41 C364.15,231.94 363.98,232.02 363.25,231.60 C362.56,231.21 362.00,231.25 362.00,231.70 C362.00,232.72 366.21,235.51 367.29,235.20 C367.73,235.07 368.97,235.45 370.05,236.02 C371.91,237.02 371.93,237.24 370.40,240.19 C369.98,241.01 369.54,241.77 369.09,242.47 L 361.94 236.13 C357.85,232.51 351.94,226.95 348.81,223.78 C343.69,218.57 342.87,218.10 340.59,218.97 C340.02,219.18 339.52,219.45 339.11,219.75 ZM 361.58 164.23 C359.77,165.47 358.10,165.10 356.00,163.00 C353.29,160.29 353.48,157.79 356.70,153.83 C358.18,152.00 359.52,150.33 359.67,150.12 C359.82,149.90 361.30,150.30 362.97,150.99 C365.06,151.85 366.00,152.93 366.00,154.47 C366.00,156.97 363.22,163.12 361.58,164.23 ZM 499.09 123.14 C500.28,122.26 501.24,122.01 502.45,122.02 C506.42,122.05 512.97,125.06 516.28,128.37 C517.73,129.82 519.38,131.00 519.95,131.00 C521.28,131.00 521.28,131.75 519.97,133.29 C519.57,133.77 517.46,136.58 514.77,140.20 C517.22,136.73 518.68,134.30 518.43,133.89 C518.15,133.43 516.13,132.52 513.95,131.87 C511.76,131.21 509.48,130.07 508.87,129.34 C508.25,128.60 506.24,128.00 504.38,128.00 C501.44,128.00 501.00,127.67 501.00,125.50 C501.00,123.54 500.16,122.77 499.09,123.14 ZM 370.57 179.71 C372.72,176.84 375.24,173.94 376.16,173.25 C377.08,172.56 378.87,170.31 380.13,168.25 C381.39,166.19 383.01,163.90 383.72,163.17 C385.38,161.47 387.24,158.00 386.50,158.00 C385.97,158.00 384.52,159.50 374.48,170.48 C370.54,174.77 365.80,181.46 364.75,184.20 C363.53,187.38 366.55,185.05 370.57,179.71 ZM 327.18 163.73 C330.62,161.28 333.83,159.25 335.25,158.72 C336.21,158.36 337.00,157.60 337.00,157.03 C337.00,156.46 337.42,156.00 337.93,156.00 C338.45,156.00 341.14,154.58 343.93,152.85 C347.63,150.55 349.23,148.83 349.89,146.43 C350.82,143.07 353.65,138.66 358.05,133.50 C356.90,134.85 355.86,136.15 354.92,137.40 C351.50,141.97 351.08,144.13 354.15,141.40 C356.28,139.51 356.28,139.51 355.14,141.70 C354.50,142.91 353.19,144.48 352.22,145.20 C349.89,146.92 346.50,152.12 346.49,154.00 C346.48,154.96 345.52,155.49 343.85,155.47 C342.30,155.45 341.41,155.90 341.67,156.57 C342.30,158.23 337.72,160.89 334.38,160.80 C332.71,160.75 330.23,161.78 327.18,163.73 ZM 420.41 212.92 C423.35,209.43 423.97,205.41 421.42,206.39 C420.55,206.73 419.38,207.00 418.81,207.00 C418.25,207.00 418.02,207.62 418.31,208.38 C418.60,209.13 418.20,210.98 417.42,212.49 C415.75,215.71 415.71,216.00 416.91,216.00 C417.41,216.00 418.99,214.62 420.41,212.92 ZM 309.83 225.50 C309.56,225.22 307.93,224.84 306.21,224.64 C302.91,224.25 299.66,221.97 297.19,218.76 C299.55,221.34 302.67,222.74 306.00,222.32 C308.10,222.05 310.26,222.43 311.40,223.28 C312.98,224.46 313.94,224.32 319.21,221.67 C318.10,222.36 317.07,223.05 316.32,223.61 C313.28,225.89 310.91,226.58 309.83,225.50 ZM 579.40 92.43 C580.07,91.83 580.50,91.19 580.84,90.44 C581.43,89.16 583.56,86.28 585.58,84.04 C587.14,82.32 588.03,81.24 588.50,80.15 L 588.50 86.50 L 582.35 90.63 C581.48,91.21 580.48,91.82 579.40,92.43 ZM 271.00 537.75 C271.01,536.18 274.96,529.62 275.54,530.21 C276.22,530.88 272.81,539.00 271.85,539.00 C271.38,539.00 271.00,538.44 271.00,537.75 ZM 278.06 523.00 C278.06,521.62 278.72,519.63 279.53,518.56 C280.95,516.69 281.00,516.70 281.00,519.12 C281.00,520.49 280.34,522.49 279.53,523.56 C278.11,525.43 278.06,525.41 278.06,523.00 ZM 587.16 68.30 C585.38,63.67 582.25,59.15 577.78,54.74 C582.78,59.66 585.66,63.65 587.16,68.30 ZM 216.82 560.77 C221.16,566.25 230.35,571.89 239.59,575.17 C230.09,571.87 221.25,566.37 216.82,560.77 ZM 338.53 226.91 C337.57,225.37 337.00,224.17 337.00,223.54 C337.00,223.26 337.17,222.80 337.47,222.23 C337.21,223.55 337.56,225.13 338.53,226.91 ZM 516.66 87.00 C516.24,86.58 516.01,86.28 516.01,86.16 C516.02,85.80 518.55,83.93 521.63,82.00 C522.31,81.58 523.15,80.96 524.10,80.21 C523.15,80.96 522.31,81.58 521.64,82.00 C518.55,83.93 516.16,85.95 516.32,86.50 C516.35,86.63 516.47,86.80 516.66,87.00 ZM 376.35 221.46 C374.41,220.80 371.89,219.87 368.58,218.67 C366.31,217.86 364.42,217.12 362.80,216.41 C364.53,217.12 366.51,217.87 368.54,218.59 C371.61,219.67 374.43,220.71 376.35,221.46 ZM 395.28 160.34 C395.52,164.53 395.16,169.48 394.28,174.39 C395.05,169.73 395.43,164.13 395.28,160.34 ZM 450.16 15.73 C450.15,15.74 450.15,15.74 450.14,15.75 C449.19,16.55 448.45,17.97 447.80,20.61 C448.31,18.29 448.82,16.82 449.30,16.35 C449.49,16.17 449.78,15.96 450.16,15.73 ZM 434.18 26.48 C435.29,27.49 436.99,30.15 439.26,34.47 C437.33,30.97 435.30,27.68 434.18,26.48 ZM 559.89 2.61 C557.91,3.17 555.74,4.31 553.52,5.93 C555.81,4.11 557.82,3.05 559.89,2.61 ZM 383.96 216.31 C383.96,216.34 383.95,216.37 383.95,216.39 C383.35,219.40 383.16,221.23 382.31,222.04 C382.87,221.07 383.37,219.27 383.96,216.31 ZM 362.46 554.07 C361.92,554.95 357.39,556.00 352.42,556.71 C357.33,555.95 361.97,554.86 362.46,554.07 ZM 340.00 557.36 C339.33,557.25 337.99,556.98 336.36,556.62 C338.22,556.93 340.23,557.30 340.99,557.48 C340.63,557.45 340.29,557.41 340.00,557.36 ZM 494.06 165.92 C490.65,169.80 487.29,173.48 484.35,176.58 C486.86,173.91 490.00,170.45 494.06,165.92 ZM 539.87 21.89 C537.33,26.60 535.81,31.46 535.32,36.46 C535.79,31.43 537.31,26.57 539.87,21.89 ZM 348.81 239.89 C345.96,236.82 342.93,233.15 340.66,230.02 C343.36,233.64 346.22,237.09 348.81,239.89 ZM 566.19 98.13 L 569.25 97.06 C570.31,96.69 571.27,96.35 572.14,96.03 C571.40,96.34 570.71,96.60 570.10,96.81 L 566.19 98.13 ZM 484.89 17.04 C484.96,17.23 485.00,17.44 485.00,17.67 C485.00,17.87 484.87,18.37 484.65,19.08 C484.67,18.97 484.70,18.85 484.72,18.75 C484.86,18.00 484.93,17.45 484.89,17.04 ZM 556.99 41.49 C554.22,40.38 554.16,39.99 555.56,39.23 C557.02,38.46 559.38,37.78 562.25,37.26 C559.39,37.80 557.02,38.49 555.56,39.25 C554.17,39.99 554.23,40.38 556.99,41.49 ZM 343.92 619.59 C343.64,620.19 343.35,620.80 343.06,621.42 C340.95,625.85 338.44,631.23 336.24,636.00 C338.39,631.31 341.07,625.58 343.25,621.00 C343.48,620.52 343.70,620.06 343.92,619.59 ZM 392.94 102.18 C394.12,101.29 395.32,100.39 396.54,99.49 C398.19,98.27 399.81,97.08 401.39,95.94 C399.74,97.14 397.96,98.45 396.04,99.87 C394.99,100.64 393.96,101.42 392.94,102.18 ZM 481.24 16.29 C481.72,16.10 482.16,16.00 482.55,16.00 C482.73,16.00 482.91,16.01 483.07,16.02 C483.00,16.02 482.93,16.02 482.86,16.02 C482.33,16.03 481.79,16.12 481.24,16.29 ZM 542.42 85.43 C542.73,84.98 543.00,84.55 543.21,84.15 C544.17,82.37 545.24,81.15 546.29,80.56 C545.24,81.16 544.17,82.39 543.21,84.17 C543.02,84.54 542.75,84.96 542.42,85.43 ZM 244.56 479.72 C245.22,477.47 245.93,475.28 246.65,473.26 C245.92,475.34 245.18,477.63 244.56,479.72 ZM 367.43 244.67 C366.94,245.21 366.44,245.69 365.92,246.09 C366.20,245.87 366.47,245.63 366.73,245.36 L 367.43 244.67 ZM 432.83 26.40 C432.96,26.13 433.13,26.00 433.36,26.01 C433.14,26.05 432.96,26.18 432.83,26.40 ZM 393.39 178.63 C393.28,179.09 393.17,179.55 393.04,180.00 C392.98,180.24 392.91,180.51 392.84,180.79 C393.01,180.10 393.20,179.38 393.39,178.63 ZM 538.22 90.39 C538.67,89.93 539.12,89.46 539.55,88.99 C539.11,89.47 538.67,89.94 538.22,90.39 ZM 390.19 190.96 C390.04,191.51 389.89,192.10 389.72,192.70 C389.87,192.16 390.02,191.58 390.19,190.96 ZM 549.36 83.53 C549.25,83.83 549.12,84.14 548.95,84.48 C549.11,84.14 549.25,83.82 549.36,83.53 ZM 549.26 80.86 C549.26,80.86 549.27,80.87 549.28,80.88 C549.38,80.98 549.46,81.10 549.53,81.23 C549.46,81.09 549.37,80.97 549.26,80.86 Z" fill="rgba(128,83,53,1)"/>
<path d="M 306.64 362.53 C304.85,361.17 304.89,360.68 307.97,347.81 C309.71,340.49 311.53,333.15 312.01,331.50 C316.26,316.74 316.38,316.00 314.81,314.73 C312.33,312.72 310.00,308.71 310.00,306.45 C310.00,305.30 311.16,303.26 312.58,301.92 C313.39,301.17 313.95,300.64 314.30,299.98 C315.13,298.42 314.67,296.17 313.10,288.50 C312.54,285.75 311.22,278.77 310.16,273.00 C309.11,267.23 307.02,256.50 305.53,249.17 C304.04,241.84 303.03,235.63 303.29,235.37 C303.55,235.11 304.84,235.17 306.15,235.50 C308.19,236.01 308.95,237.52 311.31,245.80 C314.67,257.55 319.80,284.64 320.66,295.14 C321.24,302.25 321.13,302.86 319.14,303.93 C316.61,305.28 316.43,307.20 318.55,310.43 C321.34,314.69 321.32,317.92 318.45,333.50 C316.14,345.96 310.85,364.01 309.50,363.97 C308.95,363.95 307.66,363.30 306.64,362.53 ZM 298.25 792.05 C293.38,789.02 286.15,776.70 284.61,768.80 C284.36,767.54 283.39,763.58 282.45,760.00 C281.03,754.62 280.86,751.08 281.42,739.50 C282.29,721.60 282.21,719.45 280.53,715.42 C279.19,712.20 279.25,711.97 282.57,708.35 C284.72,706.01 286.35,704.96 286.94,705.55 C289.22,707.88 291.00,724.59 290.36,737.72 C290.01,744.93 290.07,751.65 290.49,752.66 C290.92,753.67 291.40,755.51 291.56,756.74 C291.73,757.97 292.31,760.44 292.85,762.24 C293.40,764.03 294.54,767.98 295.40,771.01 C297.63,778.93 301.48,784.35 306.66,786.87 C309.08,788.04 312.04,789.00 313.25,789.00 C315.43,789.00 315.43,789.01 313.47,790.97 C310.42,794.01 302.32,794.59 298.25,792.05 ZM 228.88 796.55 C222.90,795.03 215.47,789.65 210.78,783.47 C200.85,770.35 189.94,745.33 190.09,736.00 C190.16,731.04 192.12,723.51 193.17,724.11 C193.54,724.33 195.00,723.41 196.42,722.08 C199.98,718.73 200.65,720.06 198.23,725.72 C195.68,731.70 196.36,736.84 201.32,749.04 C210.03,770.49 224.18,788.09 235.08,791.02 C238.29,791.89 239.45,791.72 242.68,789.90 C244.78,788.73 246.83,787.26 247.23,786.63 C248.59,784.54 248.07,787.96 246.60,790.80 C243.49,796.81 237.51,798.76 228.88,796.55 ZM 264.55 457.52 L 261.60 455.11 L 262.90 445.80 C264.44,434.75 266.66,427.73 272.29,416.11 C276.22,408.00 289.08,384.04 292.10,379.21 C293.66,376.71 296.73,376.35 299.47,378.35 C301.23,379.64 301.10,380.12 296.78,388.10 C274.11,430.02 273.08,432.40 270.87,448.00 C269.68,456.37 269.33,459.49 268.20,459.81 C267.46,460.01 266.40,459.03 264.55,457.52 ZM 240.74 731.40 C240.35,731.01 240.77,730.16 241.67,729.50 C243.09,728.46 242.65,728.07 238.52,726.66 C233.77,725.04 233.67,725.06 228.83,727.69 C225.40,729.56 223.63,730.03 222.89,729.29 C222.14,728.54 222.88,727.43 225.36,725.54 C227.66,723.79 228.68,722.32 228.29,721.31 C227.82,720.08 228.27,719.89 230.60,720.36 C232.46,720.73 234.72,720.29 236.89,719.12 L 240.28 717.31 L 237.92 715.65 C234.82,713.48 232.77,713.57 227.86,716.07 C222.71,718.70 221.53,717.62 225.71,714.11 L 228.92 711.42 L 225.96 708.63 C222.34,705.20 222.27,704.29 225.57,702.79 L 228.14 701.61 L 225.82 699.83 C223.53,698.07 223.59,698.05 230.50,698.21 C235.50,698.33 238.45,697.87 240.84,696.61 C245.25,694.29 246.30,695.54 242.50,698.58 L 239.50 700.99 L 242.25 701.00 C243.76,701.00 245.00,701.45 245.00,702.00 C245.00,703.12 244.11,703.27 238.88,703.03 C236.89,702.94 233.51,703.60 231.38,704.50 L 227.50 706.14 L 230.44 707.70 C232.93,709.02 233.93,709.07 236.94,707.99 C238.90,707.29 241.18,706.49 242.00,706.20 C242.82,705.92 242.22,707.07 240.65,708.76 L 237.80 711.82 L 240.15 713.05 C241.44,713.72 243.29,715.09 244.25,716.09 C245.92,717.83 245.84,717.98 242.54,719.55 C237.03,722.16 236.55,723.43 240.53,724.88 C242.44,725.57 244.00,726.78 244.00,727.56 C244.00,728.38 244.96,729.00 246.20,729.00 C247.57,729.00 248.04,729.35 247.45,729.93 C246.10,731.25 241.57,732.24 240.74,731.40 ZM 325.96 734.05 C321.95,732.41 320.85,732.35 316.46,733.48 C313.73,734.18 311.16,734.56 310.75,734.32 C309.26,733.45 310.05,731.93 312.50,731.00 C315.58,729.83 315.67,728.78 312.81,727.49 C311.61,726.94 310.45,725.94 310.23,725.25 C309.56,723.13 313.42,723.86 317.06,726.54 C319.45,728.31 321.23,728.91 322.88,728.49 C324.90,727.99 325.18,728.21 324.73,729.91 C324.44,731.02 324.50,731.87 324.85,731.80 C326.00,731.58 330.79,733.85 331.46,734.94 C332.35,736.38 331.28,736.21 325.96,734.05 ZM 313.22 710.20 C312.29,709.58 312.70,709.00 314.72,708.08 L 317.49 706.82 L 315.37 705.16 C314.19,704.25 312.40,703.00 311.37,702.38 C309.81,701.45 310.20,701.30 313.63,701.49 C315.91,701.62 318.82,702.46 320.10,703.36 C321.39,704.26 323.77,705.00 325.39,705.00 C327.01,705.00 328.03,705.30 327.66,705.67 C327.30,706.04 327.71,707.12 328.57,708.08 C330.06,709.72 329.83,709.82 324.83,709.76 C321.90,709.73 318.38,710.00 317.00,710.37 C315.62,710.74 313.92,710.66 313.22,710.20 ZM 217.48 693.97 C216.25,691.97 218.20,691.26 230.50,689.21 C248.61,686.19 249.90,688.96 232.00,692.43 C227.32,693.34 222.31,694.31 220.85,694.60 C219.38,694.89 217.87,694.61 217.48,693.97 ZM 308.00 720.50 C308.68,719.67 309.98,718.99 310.87,718.98 C311.77,718.98 313.17,718.54 313.99,718.03 C315.18,717.28 315.23,716.83 314.24,715.84 C311.90,713.50 313.00,713.02 317.00,714.62 C319.20,715.50 322.58,716.03 324.50,715.81 C326.43,715.59 328.00,715.76 328.00,716.20 C328.00,716.64 327.12,717.00 326.05,717.00 C324.98,717.00 323.74,717.58 323.30,718.28 C322.55,719.49 312.59,722.00 308.57,722.00 C307.07,722.00 306.97,721.74 308.00,720.50 ZM 327.50 744.00 C321.86,742.93 312.74,739.99 311.21,738.74 C310.49,738.16 310.30,737.30 310.77,736.83 C311.55,736.05 333.22,742.89 334.71,744.38 C335.47,745.14 332.82,745.00 327.50,744.00 ZM 314.50 696.90 C312.30,696.41 309.49,695.77 308.25,695.49 C305.69,694.89 305.30,693.48 307.46,692.65 C309.55,691.85 318.88,694.46 320.81,696.38 C322.30,697.87 322.28,697.99 320.46,697.90 C319.38,697.84 316.70,697.40 314.50,696.90 ZM 223.00 734.06 C223.00,732.58 224.05,732.25 231.25,731.49 C238.80,730.68 240.62,732.18 234.25,733.95 C229.57,735.25 223.00,735.31 223.00,734.06 ZM 324.00 697.46 C324.00,696.24 324.40,696.15 326.00,697.00 C327.10,697.59 328.00,698.28 328.00,698.54 C328.00,698.79 327.10,699.00 326.00,699.00 C324.87,699.00 324.00,698.33 324.00,697.46 Z" fill="rgba(144,153,166,1)"/>
<path d="M 311.40 223.28 C310.26,222.43 308.10,222.05 306.00,222.32 C299.01,223.21 292.94,216.06 292.82,206.78 C292.74,201.28 297.74,191.78 305.50,182.69 C309.11,178.46 312.38,174.99 312.78,174.97 C313.18,174.96 315.52,173.13 318.00,170.90 C325.21,164.43 331.24,160.71 334.38,160.80 C337.72,160.89 342.30,158.23 341.67,156.57 C341.41,155.90 342.30,155.45 343.85,155.47 C345.52,155.49 346.48,154.96 346.49,154.00 C346.50,152.12 349.89,146.92 352.22,145.20 C353.19,144.48 354.50,142.91 355.14,141.70 C356.28,139.51 356.28,139.51 354.15,141.40 C351.08,144.13 351.50,141.97 354.92,137.40 C362.57,127.19 377.40,113.65 396.04,99.87 C413.91,86.66 419.80,82.87 420.56,84.09 C420.93,84.69 421.40,87.87 421.60,91.15 C421.80,94.43 422.65,98.09 423.48,99.28 C424.07,100.12 424.58,100.70 424.78,101.38 C425.52,103.86 422.22,107.54 404.05,129.00 C401.96,131.48 399.07,134.91 397.63,136.63 C396.20,138.35 393.72,142.63 392.12,146.13 C390.08,150.60 386.43,155.50 379.86,162.58 C374.71,168.13 367.16,177.02 363.09,182.33 C359.01,187.65 355.23,192.00 354.68,192.00 C354.14,192.00 347.78,197.74 340.54,204.75 C330.54,214.44 325.69,218.36 320.34,221.10 C314.07,224.30 313.09,224.54 311.40,223.28 ZM 428.78 227.31 C427.64,226.05 427.39,224.98 428.02,223.98 C428.90,222.55 431.41,214.80 434.31,204.50 C440.76,181.65 441.29,180.18 443.64,178.93 C445.49,177.94 446.00,176.83 446.00,173.83 C446.00,170.90 446.41,169.97 447.75,169.87 C453.99,169.42 459.55,167.34 464.37,163.67 C466.38,162.13 469.26,160.78 470.76,160.67 C472.63,160.52 473.90,159.60 474.80,157.73 C475.52,156.23 476.46,155.00 476.88,155.00 C478.42,155.00 489.62,145.70 494.75,140.16 C500.20,134.29 501.64,130.00 498.17,130.00 C495.34,130.00 494.95,129.00 496.57,125.87 C498.42,122.29 501.00,122.07 501.00,125.50 C501.00,127.67 501.44,128.00 504.38,128.00 C506.24,128.00 508.25,128.60 508.87,129.34 C509.48,130.07 511.76,131.21 513.95,131.87 C516.13,132.52 518.15,133.43 518.43,133.89 C519.15,135.05 505.75,152.85 495.67,164.12 C480.54,181.03 477.31,184.18 473.13,186.05 C470.86,187.07 468.52,188.94 467.93,190.20 C467.35,191.47 464.81,194.06 462.29,195.97 C458.33,198.99 452.12,205.41 434.48,224.75 C430.61,229.00 430.39,229.09 428.78,227.31 ZM 254.50 533.09 C248.61,529.69 237.00,518.42 237.01,516.11 C237.02,513.18 241.81,489.64 244.05,481.50 C245.26,477.10 247.32,471.08 248.62,468.13 C250.91,462.94 251.07,462.81 253.25,464.22 C260.09,468.62 270.00,473.90 273.50,474.99 C275.70,475.68 278.93,476.84 280.68,477.57 C283.84,478.89 283.86,478.96 283.37,484.70 C282.73,492.29 280.54,499.60 275.83,509.85 C273.73,514.44 272.00,518.79 272.00,519.51 C272.00,521.42 261.93,536.00 260.62,535.99 C260.00,535.99 257.25,534.68 254.50,533.09 ZM 210.98 644.75 C210.97,644.06 210.70,632.47 210.37,619.00 C209.79,595.61 211.00,566.29 212.81,559.60 L 213.59 556.70 L 216.82 560.77 C222.20,567.57 234.09,574.22 245.75,576.96 C248.64,577.64 251.00,578.44 251.00,578.73 C251.00,579.02 248.32,585.89 245.04,593.99 C239.55,607.53 238.43,610.90 236.04,621.00 C233.20,632.98 232.26,634.14 220.00,640.76 C217.52,642.09 214.79,643.82 213.92,644.59 C211.97,646.33 211.01,646.38 210.98,644.75 ZM 341.00 557.48 C340.17,557.29 337.87,556.87 335.89,556.55 L 332.28 555.96 L 333.21 551.73 C335.00,543.62 335.19,541.24 334.10,540.56 C332.36,539.48 332.73,529.47 334.56,527.95 C335.47,527.19 336.03,525.37 335.91,523.58 C335.79,521.88 336.05,515.45 336.48,509.28 C337.19,499.02 337.44,498.00 339.38,497.46 C341.68,496.82 345.47,495.29 348.25,493.87 C349.36,493.31 350.00,493.36 350.00,494.02 C350.00,494.58 351.15,495.49 352.55,496.02 C355.98,497.32 362.30,495.82 366.78,492.63 C368.74,491.23 370.72,490.32 371.17,490.61 C372.48,491.41 372.14,495.42 370.42,499.53 C367.44,506.66 364.94,521.23 363.92,537.28 C363.36,546.11 362.70,553.67 362.46,554.07 C361.50,555.62 344.59,558.31 341.00,557.48 ZM 457.50 93.84 C456.40,93.23 454.30,91.62 452.84,90.27 C451.01,88.57 449.55,88.01 448.15,88.45 C446.37,89.02 445.55,87.95 441.87,80.30 C437.82,71.91 437.59,70.93 436.96,59.50 C436.60,52.90 435.57,44.35 434.69,40.50 C432.22,29.74 431.91,26.00 433.52,26.00 C434.97,26.00 443.99,42.40 443.99,45.06 C444.00,45.92 444.66,47.49 445.47,48.56 C446.80,50.32 446.94,50.33 446.97,48.75 C446.98,48.14 446.96,47.73 447.14,47.43 C447.57,46.72 449.15,46.71 455.04,46.51 C462.49,46.26 466.00,44.81 466.00,41.98 C466.00,40.90 467.19,36.98 468.65,33.26 C472.83,22.60 478.22,16.07 482.86,16.02 C484.90,16.00 485.16,16.38 484.72,18.75 C483.75,23.92 473.10,47.50 471.72,47.52 C470.97,47.53 469.15,48.33 467.67,49.29 C466.20,50.26 463.98,51.49 462.74,52.02 C459.58,53.39 457.02,55.07 453.15,58.31 C450.04,60.91 449.66,61.00 448.02,59.52 C446.39,58.04 446.20,58.05 445.62,59.55 C444.74,61.85 445.66,62.90 448.03,62.28 C450.59,61.61 454.00,64.57 454.00,67.45 C454.00,71.94 458.01,73.30 462.12,70.20 C464.86,68.14 471.18,65.43 475.38,64.52 C476.96,64.18 480.79,61.51 483.88,58.58 C486.97,55.66 490.52,52.74 491.76,52.09 C499.79,47.92 490.42,67.76 477.92,81.43 C473.30,86.47 461.99,95.07 460.09,94.97 C459.77,94.95 458.60,94.44 457.50,93.84 ZM 518.75 124.01 C515.37,120.19 512.86,118.57 506.50,116.06 C502.10,114.33 496.09,111.73 493.14,110.28 L 487.78 107.64 L 488.30 103.07 C488.59,100.56 489.94,93.10 491.30,86.50 C492.67,79.90 494.09,72.74 494.47,70.59 L 495.15 66.68 L 498.71 70.24 C502.20,73.73 502.28,74.00 502.77,83.48 L 503.28 93.16 L 506.96 95.59 C508.98,96.93 512.05,100.04 513.79,102.51 C516.65,106.56 517.35,107.00 520.98,107.00 C523.19,107.00 525.00,106.66 525.00,106.25 C525.00,105.12 517.76,98.43 515.75,97.70 C514.04,97.08 513.27,94.99 514.75,95.01 C515.16,95.01 516.85,95.91 518.50,97.02 C520.15,98.12 523.08,99.46 525.00,100.01 C531.19,101.76 531.66,102.39 529.78,106.34 C528.46,109.10 528.37,110.13 529.34,111.45 C531.04,113.77 532.82,112.69 537.89,106.25 C541.96,101.09 542.15,100.58 540.51,99.38 C540.22,99.17 539.99,98.98 539.82,98.79 C540.42,98.92 541.30,99.00 542.27,99.00 C544.34,99.00 546.49,98.09 548.51,96.52 C547.07,97.76 546.00,98.90 546.00,99.25 C546.00,99.66 548.25,100.00 551.00,100.00 C553.75,100.00 556.00,100.40 556.00,100.90 C556.00,101.92 551.43,105.80 538.50,115.77 C533.55,119.58 528.04,124.08 526.25,125.76 L 522.99 128.81 ZM 378.87 222.53 C378.61,222.28 373.97,220.50 368.54,218.59 C363.12,216.68 358.05,214.47 357.27,213.70 C356.49,212.92 355.48,210.64 355.03,208.64 C354.27,205.28 354.39,205.00 356.47,205.00 C358.03,205.00 359.61,203.67 361.53,200.75 C364.76,195.86 368.89,190.65 374.27,184.68 C376.34,182.38 378.31,179.27 378.64,177.78 C378.97,176.28 380.76,173.89 382.62,172.48 C385.00,170.66 386.00,169.09 386.00,167.18 C386.00,164.61 390.10,157.33 392.42,155.79 C393.00,155.40 393.94,155.54 394.49,156.09 C395.96,157.57 395.36,171.02 393.49,178.25 C389.45,193.93 388.66,196.81 387.16,201.50 C386.27,204.25 385.49,207.20 385.42,208.06 C385.35,208.92 384.69,212.64 383.96,216.31 C382.97,221.32 382.22,223.00 380.98,223.00 C380.08,223.00 379.12,222.79 378.87,222.53 ZM 327.73 649.87 C326.77,649.33 325.57,649.15 325.07,649.46 C324.57,649.77 323.23,648.78 322.09,647.26 C320.95,645.74 319.55,643.94 318.98,643.25 C317.72,641.75 318.62,632.79 320.47,628.50 C321.23,626.73 321.98,619.41 322.28,610.68 C322.56,602.54 323.06,595.61 323.37,595.30 C323.69,594.98 326.55,595.44 329.72,596.33 C332.90,597.21 339.21,598.24 343.75,598.61 C348.29,598.98 352.00,599.62 352.00,600.02 C352.00,601.69 348.85,609.25 343.25,621.00 C339.98,627.88 335.59,637.33 333.51,642.00 C331.43,646.67 329.67,650.58 329.60,650.67 C329.54,650.77 328.70,650.41 327.73,649.87 ZM 354.98 245.63 C351.53,243.27 345.13,236.19 339.67,228.68 C336.33,224.09 336.67,220.46 340.59,218.97 C342.87,218.10 343.69,218.57 348.81,223.78 C351.94,226.95 357.85,232.51 361.94,236.13 L 369.37 242.72 L 366.73 245.36 C363.42,248.67 359.58,248.76 354.98,245.63 ZM 445.49 37.50 C446.92,22.56 447.99,17.55 450.14,15.75 C451.28,14.79 452.96,14.00 453.86,14.00 C455.30,14.00 455.50,15.69 455.50,28.00 L 455.50 42.00 L 451.45 42.00 C449.22,42.00 446.82,42.56 446.11,43.25 C445.06,44.27 444.95,43.20 445.49,37.50 ZM 459.10 41.06 C458.01,40.39 457.85,38.41 458.34,31.85 C458.69,27.26 458.98,20.93 458.99,17.79 C459.00,13.00 459.34,11.89 461.11,10.94 C464.45,9.15 465.16,10.96 465.32,21.64 C465.42,29.06 465.02,32.61 463.66,36.00 C461.46,41.50 460.87,42.15 459.10,41.06 ZM 552.98 6.32 C555.73,4.23 558.41,2.87 560.77,2.40 C563.45,1.86 564.00,2.06 564.00,3.54 C564.00,4.53 564.25,5.08 564.56,4.78 C565.34,3.99 582.40,22.09 585.49,26.99 C586.91,29.23 588.31,32.30 588.62,33.83 L 589.17 36.60 L 579.54 36.18 C575.84,36.02 571.94,36.13 568.34,36.45 C571.00,36.18 573.87,36.02 576.75,36.02 C587.38,36.00 587.53,35.82 583.33,28.29 C577.99,18.70 569.17,10.68 558.72,5.92 C556.78,5.04 555.06,5.06 552.98,6.32 ZM 361.58 164.23 C363.22,163.12 366.00,156.97 366.00,154.47 C366.00,152.93 365.06,151.85 362.97,150.99 C361.30,150.30 359.82,149.90 359.67,150.12 C359.52,150.33 358.18,152.00 356.70,153.83 C353.48,157.79 353.29,160.29 356.00,163.00 C358.10,165.10 359.77,165.47 361.58,164.23 ZM 588.64 73.89 C588.70,74.30 588.75,74.72 588.79,75.14 C589.22,79.60 588.97,80.29 585.58,84.04 C583.56,86.28 581.43,89.16 580.84,90.44 C579.71,92.94 577.55,94.17 569.25,97.06 L 565.84 98.25 C570.64,96.36 586.36,81.97 588.05,77.89 C588.54,76.70 588.72,75.35 588.64,73.89 ZM 555.27 26.21 C554.91,25.22 554.48,25.19 553.40,26.08 C552.30,26.99 552.00,26.91 552.00,25.71 C552.00,24.86 552.56,23.98 553.24,23.75 C554.77,23.24 557.52,25.83 556.48,26.80 C556.07,27.18 555.52,26.92 555.27,26.21 ZM 565.48 98.38 L 564.00 98.89 L 563.98 92.42 C564.00,97.85 564.19,98.76 565.48,98.38 ZM 578.86 55.84 C581.86,58.96 584.20,62.15 585.85,65.38 C584.14,62.21 581.72,58.93 578.86,55.84 ZM 539.05 23.49 C540.63,20.25 542.69,17.07 545.22,13.97 C546.00,13.02 546.80,12.11 547.60,11.25 C546.99,11.93 546.35,12.68 545.67,13.50 C542.90,16.82 540.70,20.13 539.05,23.49 ZM 554.70 40.21 C554.89,40.57 555.68,40.98 557.26,41.60 C557.07,41.55 556.87,41.50 556.68,41.45 C555.26,41.10 554.65,40.67 554.70,40.21 ZM 554.07 89.94 C552.68,92.38 551.04,94.48 549.36,95.82 C549.35,95.83 549.34,95.83 549.34,95.84 C551.09,94.30 552.71,92.27 554.07,89.94 ZM 566.59 45.75 C568.48,46.84 570.26,48.08 572.13,49.60 C570.34,48.19 568.49,46.89 566.59,45.75 ZM 540.14 96.57 C540.65,95.81 541.48,94.77 542.70,93.29 C546.05,89.25 548.17,86.24 549.11,84.14 C548.18,86.22 546.10,89.19 542.83,93.14 C541.79,94.41 540.84,95.62 540.14,96.57 Z" fill="rgba(144,98,64,1)"/>
<path d="M 539.00 98.39 C539.00,98.05 540.73,95.69 542.83,93.14 C548.60,86.17 550.65,82.25 549.28,80.88 C547.60,79.20 545.17,80.52 543.21,84.15 C540.98,88.30 532.97,95.96 530.84,95.98 C528.96,96.00 516.76,88.04 516.32,86.50 C516.16,85.95 518.55,83.93 521.64,82.00 C526.39,79.03 539.58,66.25 538.75,65.41 C538.60,65.26 536.28,65.61 533.60,66.18 C524.81,68.06 511.82,63.82 502.87,56.15 L 498.78 52.66 L 499.44 46.85 C501.18,31.41 509.56,18.31 523.30,9.53 C526.37,7.57 526.38,7.57 525.54,9.53 C523.53,14.27 523.73,23.95 526.00,31.01 C528.08,37.47 531.68,43.00 533.81,43.00 C534.30,43.00 534.98,40.14 535.30,36.64 C536.07,28.47 539.40,21.02 545.67,13.50 C551.98,5.93 554.95,4.20 558.72,5.92 C569.17,10.68 577.99,18.70 583.33,28.29 C587.53,35.82 587.38,36.00 576.75,36.02 C562.96,36.04 549.55,39.67 556.68,41.45 C573.40,45.62 592.31,67.59 588.05,77.89 C586.35,81.99 570.45,96.53 565.75,98.29 C564.19,98.87 564.00,98.19 563.98,92.22 C563.96,85.55 561.25,77.00 559.16,77.00 C558.64,77.00 557.91,78.66 557.53,80.68 C555.69,90.48 548.60,99.00 542.27,99.00 C540.47,99.00 539.00,98.72 539.00,98.39 ZM 555.27 26.21 C555.52,26.92 556.07,27.18 556.48,26.80 C557.52,25.83 554.77,23.24 553.24,23.75 C552.56,23.98 552.00,24.86 552.00,25.71 C552.00,26.91 552.30,26.99 553.40,26.08 C554.48,25.19 554.91,25.22 555.27,26.21 Z" fill="rgba(177,137,44,1)"/>
</g>
</svg>