<svg xmlns="http://www.w3.org/2000/svg" width="800" height="800" viewBox="0 0 800 800">
<g>
<path d="M 276.58 603.25 C277.00,603.66 278.21,604.00 279.29,604.00 C280.91,604.00 281.03,603.75 280.00,602.50 C278.96,601.25 279.10,601.00 280.82,601.00 C281.95,601.00 283.13,600.60 283.43,600.11 C284.09,599.05 280.68,598.03 276.38,598.01 C274.66,598.01 271.06,596.99 268.38,595.75 L 263.50 593.50 L 269.83 593.20 C275.12,592.95 276.86,593.31 280.45,595.42 C285.05,598.11 287.05,597.82 284.35,594.83 C282.78,593.10 282.83,593.00 285.22,593.00 C287.95,593.00 290.25,590.97 289.79,588.98 C289.63,588.30 290.51,587.65 291.75,587.54 C294.18,587.32 295.65,586.32 294.80,585.47 C294.51,585.18 291.85,584.68 288.89,584.37 C285.92,584.05 282.38,583.01 281.00,582.05 C278.67,580.43 274.63,578.21 272.58,577.36 C272.59,577.36 272.60,577.36 272.61,577.37 C273.65,577.69 275.17,577.52 276.00,576.99 C277.00,576.35 277.08,576.03 276.25,576.02 C275.56,576.01 275.00,575.55 275.00,575.00 C275.00,574.90 275.03,574.80 275.08,574.71 C275.82,575.65 279.25,577.53 284.75,579.84 C295.10,584.18 297.42,584.75 296.76,582.77 C296.30,581.39 282.76,575.30 278.05,574.36 C277.28,574.21 276.65,574.11 276.17,574.08 C276.40,574.03 276.65,574.00 276.90,574.00 C278.55,574.00 278.74,573.45 278.28,570.05 C277.82,566.63 278.14,565.72 280.66,563.30 C282.27,561.76 284.44,560.01 285.50,559.42 C286.70,558.74 287.04,558.30 285.85,556.02 L 287.50 558.73 L 294.59 559.34 C298.49,559.67 302.77,560.38 304.09,560.91 C309.05,562.89 309.38,562.30 309.21,552.00 C309.19,550.62 306.49,533.36 303.58,515.48 C303.75,516.53 303.92,517.58 304.09,518.63 C309.14,549.60 309.43,550.82 311.92,552.32 C313.34,553.18 316.62,555.82 319.22,558.19 C323.79,562.36 323.98,562.76 324.97,570.32 C325.54,574.62 326.00,580.78 326.00,583.99 C326.00,588.61 326.73,591.36 329.50,597.14 C331.42,601.16 333.00,605.64 333.00,607.11 C333.00,608.07 333.29,609.48 333.72,610.78 L 331.46 613.68 C329.94,615.61 324.78,618.93 317.76,622.48 C305.98,628.44 302.47,630.97 290.54,642.03 C280.31,651.51 277.04,652.50 256.00,652.49 C241.43,652.49 238.69,652.21 232.57,650.17 C223.13,647.02 218.58,644.57 216.26,641.38 C214.99,639.64 213.92,639.05 213.17,639.54 C213.26,639.47 213.36,639.42 213.46,639.38 C214.72,638.89 214.69,638.45 213.24,636.25 C212.16,634.60 211.55,631.58 211.53,627.74 C211.50,622.15 211.71,621.60 215.00,618.83 C220.88,613.86 230.06,609.23 241.18,605.63 C252.10,602.09 257.38,599.42 256.45,597.92 C256.16,597.45 256.82,596.51 257.91,595.82 C259.26,594.98 259.59,594.21 258.94,593.43 C258.93,593.41 258.91,593.39 258.90,593.37 L 260.32 594.60 C263.16,597.05 262.94,597.49 258.50,598.21 C253.79,598.96 257.64,600.57 266.39,601.50 C271.58,602.05 276.17,602.84 276.58,603.25 ZM 644.50 657.69 C644.55,657.71 644.59,657.73 644.64,657.75 C643.01,657.25 642.00,656.61 642.00,655.92 C642.00,655.42 640.95,655.00 639.66,655.00 C631.89,655.00 609.60,643.78 605.00,637.56 C602.79,634.57 601.07,630.26 601.80,629.53 C602.16,629.18 601.99,628.58 601.44,628.20 C600.78,627.73 596.78,620.01 593.70,613.61 C594.51,613.43 596.36,612.10 598.86,609.64 C602.73,605.83 604.84,604.62 609.59,603.48 C617.82,601.52 617.86,601.54 613.62,605.88 C610.83,608.73 608.75,609.90 605.78,610.30 C603.55,610.60 601.02,611.56 600.15,612.42 C598.71,613.86 598.79,614.01 601.04,614.12 C602.39,614.18 604.13,614.15 604.91,614.04 C605.77,613.92 605.29,615.05 603.66,617.00 C602.20,618.73 601.02,620.91 601.05,621.83 C601.08,622.92 602.75,621.68 605.87,618.25 C608.51,615.36 611.40,613.00 612.31,613.00 C614.75,613.00 622.00,609.92 622.00,608.89 C622.00,608.40 620.64,608.00 618.97,608.00 L 615.94 608.00 L 618.45 603.50 C619.83,601.03 620.63,598.94 620.23,598.88 C619.83,598.81 617.03,598.85 614.00,598.98 L 608.50 599.20 L 610.75 596.79 C613.02,594.35 613.71,592.00 612.16,592.00 C611.70,592.00 609.78,593.73 607.88,595.84 C605.27,598.75 603.39,599.84 600.09,600.37 C597.69,600.75 595.57,600.91 595.38,600.71 C595.18,600.52 596.13,598.85 597.49,597.01 C599.25,594.63 601.63,593.10 605.73,591.71 C612.53,589.41 613.84,588.44 612.28,586.88 C611.46,586.06 610.31,586.05 608.08,586.82 C604.68,588.01 604.25,587.37 606.47,584.44 C610.53,579.07 606.30,579.98 602.00,585.40 C599.93,588.00 596.47,590.77 593.54,592.15 C588.02,594.77 585.91,597.74 590.37,596.62 C593.39,595.87 593.81,597.34 591.47,600.44 C589.10,603.57 589.74,604.83 594.14,605.70 L 598.28 606.52 L 595.51 609.80 C594.30,611.24 593.61,612.28 593.36,612.90 C591.47,608.95 590.00,605.64 590.00,605.09 C590.00,604.58 589.62,604.02 589.15,603.83 C588.35,603.52 583.52,596.32 583.09,594.80 C582.98,594.41 581.61,592.73 580.05,591.05 C577.32,588.13 576.96,588.03 571.21,588.64 C565.65,589.22 565.11,589.09 563.69,586.88 C562.85,585.57 562.01,583.60 561.83,582.50 C561.66,581.45 560.98,580.71 558.35,579.87 C561.15,580.28 562.00,579.42 562.00,577.00 C562.00,571.69 567.48,566.91 577.21,563.74 L 585.62 561.00 L 591.83 563.10 C596.58,564.71 598.41,565.89 599.55,568.10 C601.33,571.55 603.42,572.01 602.49,568.75 C601.45,565.12 596.37,561.08 591.97,560.38 C589.75,560.02 586.32,558.44 584.33,556.87 C582.35,555.29 580.34,554.00 579.86,554.00 C579.39,554.00 579.00,553.13 579.00,552.07 C579.00,550.80 574.63,546.46 568.45,541.20 C571.35,543.60 573.88,545.80 575.69,547.50 C578.02,549.70 580.95,551.60 582.21,551.72 C590.48,552.53 610.59,556.09 616.22,557.74 C617.80,558.20 619.21,558.67 620.49,559.18 C620.23,559.53 622.15,563.97 624.79,569.10 C629.18,577.65 630.29,579.01 637.06,584.10 C655.56,598.02 670.11,622.24 669.94,638.86 C669.86,647.53 668.24,651.05 663.00,653.98 C659.13,656.15 657.31,656.49 650.00,656.42 C642.10,656.35 641.71,656.44 644.50,657.69 ZM 227.03 460.09 C227.84,460.64 230.52,460.85 233.00,460.57 C235.48,460.28 241.77,459.76 247.00,459.39 C252.23,459.03 257.08,458.27 257.79,457.71 C258.55,457.11 258.89,455.44 258.61,453.60 C258.36,451.89 257.84,447.35 257.45,443.50 C256.11,430.19 248.25,410.42 245.42,413.25 C245.17,413.49 245.85,414.81 246.91,416.16 C250.71,420.99 256.00,441.08 256.00,450.67 L 256.00 454.84 L 249.25 455.41 C238.67,456.30 226.75,457.91 226.13,458.54 C225.95,458.72 226.01,459.03 226.24,459.37 C222.50,455.79 221.24,453.29 215.53,438.53 C212.75,431.32 210.84,424.57 210.49,420.71 C209.98,415.05 210.18,414.15 212.72,410.60 C215.62,406.53 217.99,405.45 230.50,402.52 C232.28,402.10 234.67,401.53 237.01,400.97 C236.65,401.12 236.40,401.27 236.26,401.41 C235.96,401.71 236.57,402.22 237.61,402.55 C252.66,407.28 261.82,412.87 273.60,424.50 C282.79,433.58 288.05,442.16 291.66,453.93 C292.96,458.17 294.58,462.39 295.26,463.32 C296.06,464.40 303.03,466.61 315.00,469.58 C316.53,469.96 318.03,470.34 319.48,470.72 C318.54,470.48 317.58,470.24 316.61,470.00 C307.32,467.72 298.66,465.44 297.36,464.95 C295.02,464.06 294.55,463.89 295.75,470.45 L 286.17 467.52 C277.45,464.85 275.12,464.55 262.50,464.53 C251.90,464.51 246.50,464.98 240.26,466.48 C236.00,467.51 233.68,467.87 232.99,469.13 C232.73,469.62 232.71,470.24 232.93,471.10 C232.55,470.16 232.19,469.23 231.84,468.30 C230.76,465.42 228.61,461.84 226.87,459.98 C226.92,460.02 226.97,460.06 227.03,460.09 ZM 503.00 570.94 C503.00,571.52 503.70,572.00 504.55,572.00 C507.92,572.00 510.86,558.79 507.92,556.93 C507.14,556.43 504.92,555.96 503.00,555.88 C501.08,555.79 497.92,555.61 496.00,555.47 C494.08,555.33 487.89,555.09 482.26,554.95 C472.08,554.68 472.00,554.70 466.26,558.25 C460.22,562.00 456.68,565.79 457.37,567.73 C445.17,556.77 428.77,537.32 414.59,517.52 C415.92,519.34 417.35,521.27 418.89,523.34 C431.45,540.18 445.68,556.92 448.39,558.04 C451.63,559.38 458.66,558.37 462.45,556.03 C468.13,552.52 476.63,542.48 481.52,533.51 C485.97,525.35 486.12,524.80 485.45,519.26 C485.31,518.13 485.15,517.00 484.98,516.01 C485.20,517.08 485.44,518.31 485.64,519.50 L 486.50 524.50 L 495.80 524.79 C502.61,525.00 509.62,524.06 516.19,522.09 L 518.56 526.33 C521.58,531.73 523.54,542.98 522.58,549.37 C522.17,552.06 519.68,558.47 517.04,563.62 L 512.36 572.75 C508.61,572.64 504.23,572.61 498.50,572.62 C486.95,572.63 474.87,573.11 471.67,573.68 L 465.83 574.72 L 461.17 570.97 C460.28,570.25 459.36,569.48 458.41,568.65 C458.67,568.62 458.97,568.43 459.31,568.09 C459.91,567.49 461.21,567.00 462.20,567.00 C463.19,567.00 464.00,566.65 464.00,566.22 C464.00,565.04 469.39,559.40 471.71,558.15 C474.07,556.89 503.92,557.69 505.39,559.05 C505.90,559.52 505.58,562.00 504.64,564.87 C503.74,567.62 503.00,570.35 503.00,570.94 ZM 306.63 623.16 C307.26,624.26 310.77,622.91 312.64,620.85 C314.35,618.96 314.17,618.42 307.51,605.20 C303.71,597.66 300.43,591.28 300.21,591.00 C299.99,590.72 298.31,592.29 296.47,594.47 C294.56,596.74 293.47,598.89 293.92,599.47 C294.36,600.04 297.31,605.45 300.49,611.50 C303.66,617.55 306.43,622.80 306.63,623.16 ZM 617.89 587.79 C619.78,589.31 633.18,589.06 633.62,587.50 C633.78,586.95 631.60,584.72 628.78,582.54 C624.29,579.07 622.85,578.52 617.32,578.17 C613.84,577.95 611.00,578.11 611.00,578.54 C611.00,579.59 615.92,586.20 617.89,587.79 ZM 583.00 592.51 C583.00,594.91 584.98,594.26 590.41,590.06 C600.37,582.36 606.37,574.64 600.10,577.59 C596.41,579.33 583.00,591.04 583.00,592.51 ZM 270.00 609.38 C277.41,611.60 279.00,611.71 279.00,610.01 C279.00,607.90 252.92,600.75 251.26,602.41 C250.60,603.07 257.56,606.16 260.50,606.51 C261.60,606.64 262.50,606.83 262.50,606.93 C262.50,607.04 265.88,608.14 270.00,609.38 ZM 602.00 628.58 C602.00,630.98 603.88,630.18 608.79,625.70 C611.38,623.34 615.92,619.42 618.88,617.00 C621.85,614.57 623.78,612.43 623.18,612.23 C620.40,611.30 602.00,625.51 602.00,628.58 ZM 284.00 588.50 C286.42,589.88 286.33,589.93 281.50,589.93 C278.65,589.93 275.67,589.31 274.56,588.47 C272.76,587.11 272.94,587.00 277.06,587.04 C279.50,587.05 282.62,587.71 284.00,588.50 ZM 311.49 572.42 C310.94,575.34 310.99,575.40 312.45,573.56 C314.39,571.13 314.44,566.99 312.58,564.44 C310.65,561.81 309.70,563.08 311.01,566.54 C311.60,568.08 311.82,570.73 311.49,572.42 ZM 265.49 585.98 L 267.53 587.60 L 270.34 589.85 L 266.67 590.53 C264.65,590.91 263.00,591.67 263.00,592.23 C263.00,592.43 262.84,592.59 262.56,592.69 C262.89,592.45 263.00,591.98 263.00,591.24 C263.00,590.14 263.67,588.69 264.49,588.01 C265.31,587.33 265.76,586.42 265.50,586.00 C265.49,585.99 265.49,585.98 265.49,585.98 ZM 674.60 647.11 C672.28,654.74 666.78,658.12 656.46,658.78 C655.40,658.85 654.34,658.88 653.29,658.87 C658.64,658.79 664.62,657.78 667.64,656.08 C670.85,654.28 673.23,651.05 674.60,647.11 ZM 642.52 585.07 C643.46,585.97 644.53,586.92 645.76,587.99 C652.01,593.41 658.36,600.98 664.05,609.72 C658.58,601.42 651.97,593.40 646.00,588.23 C644.67,587.08 643.53,586.05 642.52,585.07 ZM 251.59 397.81 C261.17,396.21 272.95,395.00 280.21,395.00 C273.27,395.00 261.31,396.29 251.59,397.81 ZM 235.18 476.35 C235.84,477.67 236.62,479.20 237.52,481.00 C239.04,484.04 240.57,486.93 242.26,489.92 C239.41,484.99 237.11,480.57 235.18,476.35 ZM 552.74 578.49 C549.67,577.85 545.58,577.10 540.12,576.15 C545.26,577.00 549.96,577.86 552.74,578.49 ZM 483.92 512.07 C483.20,510.59 482.98,508.47 482.92,503.17 C482.97,507.87 483.15,509.71 483.92,512.07 ZM 260.24 517.80 C261.70,519.90 263.25,522.13 264.90,524.50 C267.95,528.86 271.13,533.48 273.99,537.69 C271.13,533.49 267.94,528.87 264.89,524.50 C263.26,522.17 261.72,519.94 260.24,517.80 ZM 517.40 521.72 C518.97,521.22 520.51,520.66 522.02,520.04 C520.49,520.68 519.08,521.23 518.34,521.45 L 517.40 521.72 ZM 629.11 565.24 C630.42,566.83 631.64,568.77 632.93,571.16 C631.54,568.65 630.32,566.75 629.11,565.24 ZM 237.35 661.91 C228.53,660.43 221.13,657.08 216.64,652.92 C221.14,657.07 228.57,660.44 237.35,661.91 ZM 271.19 577.33 C271.11,577.76 271.17,578.55 271.40,579.45 C271.54,580.02 271.61,580.49 271.58,580.89 C271.61,580.47 271.53,579.97 271.37,579.34 C271.09,578.23 271.00,577.61 271.19,577.33 ZM 335.49 614.94 C335.68,615.55 335.81,616.14 335.87,616.72 C335.80,616.16 335.67,615.58 335.49,614.94 ZM 531.01 517.34 C533.31,517.40 535.76,518.14 538.73,519.65 C535.76,518.14 533.31,517.40 531.01,517.34 ZM 212.00 643.99 L 212.00 643.95 C212.00,643.20 212.04,642.54 212.13,641.96 C212.05,642.54 212.00,643.22 212.00,643.99 Z" fill="rgba(0,0,0,1)"/>
<path d="M 268.99 233.75 C267.83,235.22 266.13,236.00 264.11,236.00 C260.17,236.00 260.17,234.73 264.10,231.93 C275.77,223.62 280.34,199.78 273.73,181.75 C272.36,178.04 271.39,175.00 271.56,175.00 C275.36,175.00 288.22,185.06 293.04,191.79 C297.62,198.21 301.54,206.62 302.90,212.99 C303.89,217.59 303.82,218.54 302.37,220.15 C300.44,222.28 298.84,222.57 299.07,220.75 C299.16,220.06 299.18,218.75 299.12,217.84 C298.93,215.25 294.36,216.28 290.68,219.73 C288.93,221.37 283.73,224.69 279.13,227.11 C274.53,229.52 269.96,232.51 268.99,233.75 ZM 307.89 154.36 C304.83,150.05 300.96,149.50 288.00,149.50 C275.98,149.50 275.24,149.62 268.65,152.74 C264.89,154.53 260.46,157.11 258.83,158.49 C254.80,161.88 254.10,161.67 254.42,157.16 C255.02,148.84 263.35,137.12 272.33,131.99 L 277.24 129.19 C277.62,129.34 277.90,129.44 278.00,129.47 C285.06,131.34 296.12,139.03 302.09,146.21 C304.27,148.82 306.20,151.54 307.89,154.36 ZM 221.77 139.85 L 222.24 148.07 C222.95,160.57 228.33,171.54 236.47,177.12 C238.33,178.39 239.63,179.79 239.37,180.22 C238.27,181.99 224.10,180.96 215.60,178.50 C210.85,177.12 206.75,176.00 206.48,176.00 C206.33,176.00 206.19,176.55 206.10,177.40 C206.04,162.59 211.99,149.27 221.77,139.85 ZM 213.35 204.91 C214.94,207.32 216.93,209.48 218.39,209.99 C223.95,211.92 231.09,211.19 237.84,208.00 C242.88,205.61 244.38,204.88 244.82,205.28 C245.02,205.47 245.00,205.91 245.00,206.54 C245.00,209.67 240.95,215.86 235.98,220.33 L 231.07 224.74 C229.08,223.29 227.04,221.60 226.00,220.53 C224.62,219.12 222.04,216.55 220.25,214.82 C218.46,213.09 217.00,211.08 217.00,210.34 C217.00,209.60 216.66,209.00 216.25,209.00 C215.79,209.00 214.54,207.11 213.35,204.91 ZM 314.91 195.18 C315.31,192.69 315.59,189.83 315.74,186.50 C316.04,180.21 315.70,175.03 314.54,170.08 C316.25,176.65 316.28,187.15 314.91,195.18 ZM 264.59 126.14 C261.08,125.80 257.30,125.67 253.94,125.80 C257.35,125.58 260.86,125.67 264.46,126.12 C264.50,126.12 264.55,126.13 264.59,126.14 ZM 234.49 227.16 C236.10,228.19 236.83,228.99 236.11,229.00 C236.10,229.00 236.09,229.00 236.08,229.00 C236.53,228.95 235.86,228.20 234.49,227.16 ZM 236.07 229.00 C235.12,229.10 228.11,232.19 220.32,235.95 C228.24,232.13 235.31,229.00 236.03,229.00 C236.04,229.00 236.05,229.00 236.07,229.00 ZM 207.04 187.41 C207.33,188.87 207.65,190.34 207.98,191.67 C207.81,191.00 207.65,190.30 207.48,189.57 C207.32,188.85 207.18,188.12 207.04,187.41 ZM 240.62 128.41 C239.57,128.78 238.51,129.18 237.46,129.60 C238.50,129.17 239.55,128.77 240.62,128.41 ZM 209.84 196.98 C209.86,196.99 209.89,197.00 209.91,197.00 C210.30,197.00 210.62,197.57 210.66,198.30 C210.62,197.57 210.30,197.00 209.90,197.00 C209.88,197.00 209.86,196.99 209.84,196.98 Z" fill="rgba(23,58,89,1)"/>
<path d="M 463.64 498.31 C464.02,498.69 468.54,499.00 473.69,499.00 L 482.51 499.00 C482.77,500.70 482.91,502.10 482.92,503.17 C482.94,504.87 482.97,506.24 483.04,507.37 C482.83,505.64 482.35,503.94 481.91,503.40 C481.35,502.72 473.54,502.05 461.26,501.62 C450.39,501.24 435.42,500.27 428.00,499.46 C410.13,497.51 406.85,497.21 406.55,496.09 C406.46,495.79 406.60,495.43 406.72,494.96 C407.00,493.88 406.29,490.64 405.13,487.75 C403.97,484.86 400.82,475.02 398.12,465.87 C391.81,444.51 390.10,440.73 385.33,437.50 C366.93,425.03 358.52,420.90 362.38,426.25 C365.46,430.51 373.00,445.96 373.00,448.00 C373.00,449.27 372.04,450.42 370.46,451.01 C369.07,451.55 366.34,453.06 364.39,454.38 C359.69,457.57 357.58,456.81 355.43,451.16 C349.47,435.44 337.10,417.09 324.30,404.98 C316.55,397.65 315.67,397.10 310.52,396.46 C307.50,396.08 305.23,395.44 305.48,395.03 C305.73,394.62 309.30,393.06 313.41,391.56 C322.79,388.14 324.46,386.47 319.83,385.14 L 316.50 384.18 L 320.65 384.09 C322.94,384.04 329.24,384.93 334.65,386.06 C340.07,387.19 346.98,388.49 350.00,388.95 C359.81,390.42 383.14,395.72 398.50,399.97 C419.48,405.77 426.01,407.32 426.68,406.66 C426.99,406.34 426.12,403.91 424.73,401.26 C423.35,398.61 421.65,394.56 420.96,392.26 C419.00,385.72 413.36,382.00 405.42,382.00 C401.01,382.00 396.70,380.29 397.57,378.89 C398.03,378.14 399.97,378.01 403.38,378.48 C406.20,378.88 410.70,379.27 413.38,379.35 L 418.27 379.50 L 419.55 375.17 C420.72,371.24 420.66,370.66 418.92,368.92 C417.86,367.86 415.90,367.00 414.56,367.00 C411.40,367.00 410.41,365.32 412.29,363.19 C413.11,362.26 414.34,358.12 415.02,354.00 C415.70,349.88 416.88,344.06 417.66,341.08 C418.58,337.51 418.73,335.33 418.07,334.67 C416.68,333.28 414.00,335.71 414.00,338.37 C414.01,341.27 408.94,355.00 407.87,355.00 C405.86,355.00 406.60,347.36 409.45,338.55 C411.86,331.12 411.77,328.05 409.13,327.92 C398.71,327.37 339.54,329.06 338.67,329.93 C338.43,330.17 338.48,332.73 338.73,336.37 C338.39,331.89 338.17,327.82 338.14,324.95 C338.42,325.74 339.18,325.99 340.75,325.98 C342.26,325.98 344.12,325.58 344.88,325.09 C345.96,324.41 345.80,324.09 344.13,323.61 C342.96,323.27 341.10,322.74 340.00,322.43 C338.95,322.13 338.40,322.20 338.16,322.78 C338.16,322.74 338.16,322.70 338.16,322.66 L 338.46 315.86 C339.14,315.88 339.82,315.89 340.50,315.90 C348.20,316.04 366.65,316.48 381.50,316.90 C427.33,318.19 434.62,318.16 435.87,316.66 C437.87,314.24 442.80,301.28 445.12,292.30 C449.28,276.25 447.80,257.10 441.82,249.50 C439.91,247.07 439.38,246.93 434.35,247.56 L 428.94 248.24 L 422.82 242.06 C419.24,238.44 417.08,235.52 417.60,235.00 C418.10,234.51 420.30,233.66 422.50,233.10 C424.70,232.54 428.70,231.52 431.39,230.84 C436.39,229.57 437.64,228.64 442.00,218.31 L 447.75 223.49 C450.91,226.33 456.65,231.39 460.50,234.73 C464.35,238.06 470.40,243.75 473.95,247.37 C480.02,253.57 480.38,254.20 480.17,258.23 C480.14,258.73 480.06,259.38 479.94,260.13 C479.53,258.66 477.10,256.33 472.25,252.74 C467.99,249.59 463.12,245.89 461.43,244.51 C459.74,243.14 456.14,241.57 453.43,241.03 C450.72,240.49 447.60,239.79 446.50,239.48 C445.40,239.16 443.69,239.50 442.69,240.23 C440.98,241.49 441.07,241.87 444.31,247.26 C452.94,261.58 453.16,284.20 444.91,308.26 C443.25,313.08 442.17,317.47 442.51,318.01 C443.63,319.84 445.12,319.03 451.06,313.36 C455.97,308.68 462.89,299.55 467.87,291.46 C461.64,302.16 453.81,311.69 445.55,318.24 C440.07,322.59 439.76,323.34 432.38,349.33 L 428.74 362.16 L 430.85 365.01 C432.83,367.69 432.87,368.11 431.49,372.04 C430.68,374.33 430.32,376.71 430.70,377.32 C431.07,377.93 434.56,382.54 438.44,387.58 C454.16,407.96 456.35,410.79 463.47,431.96 C460.50,423.52 458.21,418.09 457.47,418.37 C456.72,418.66 452.81,417.99 448.80,416.87 C444.78,415.76 440.38,414.70 439.00,414.52 C434.78,413.96 430.56,412.77 429.31,411.79 C426.46,409.55 411.00,406.81 411.00,408.54 C411.00,409.64 415.37,417.64 418.31,421.94 C419.99,424.38 422.82,430.90 424.62,436.44 C426.41,441.97 429.30,450.10 431.05,454.50 C432.79,458.90 435.10,465.20 436.16,468.50 C439.48,478.74 445.21,493.44 446.38,494.70 C447.98,496.40 452.99,497.15 453.03,495.68 C453.05,495.03 453.53,495.30 454.10,496.29 C454.86,497.60 456.18,498.01 459.04,497.84 C461.19,497.72 463.26,497.92 463.64,498.31 ZM 324.77 202.60 C324.91,202.45 325.00,202.25 325.00,202.05 C325.00,201.61 326.20,200.16 328.03,198.23 L 332.60 201.88 C335.30,204.02 339.01,207.67 340.87,209.98 C343.34,213.06 344.76,214.04 346.21,213.65 C348.03,213.18 348.13,213.45 347.37,216.82 C346.03,222.76 346.69,229.47 349.05,234.10 C352.13,240.13 356.76,251.43 358.94,258.22 C361.11,265.00 360.80,265.43 353.00,266.42 C349.98,266.81 344.80,267.47 341.50,267.91 C339.62,268.15 338.29,268.30 337.13,268.27 C338.53,267.98 338.91,266.32 338.89,263.16 C338.86,259.54 338.88,257.59 337.93,256.47 C336.78,255.10 334.19,254.95 328.35,254.51 C323.75,254.17 316.83,253.25 311.87,252.36 C317.06,253.28 324.58,254.09 329.52,254.22 L 339.50 254.50 L 340.22 249.50 C340.61,246.75 341.60,239.83 342.42,234.12 L 343.91 223.75 L 341.38 218.76 C339.99,216.02 336.23,211.08 333.03,207.79 C329.97,204.64 328.45,203.00 326.66,202.60 C326.08,202.47 325.47,202.48 324.77,202.60 ZM 250.00 268.10 C247.77,268.70 245.84,269.22 244.16,269.67 C237.69,271.40 235.07,271.97 233.03,271.13 C232.98,271.10 232.93,271.08 232.87,271.06 C232.78,271.02 232.68,270.98 232.59,270.95 C230.88,270.22 229.54,268.62 227.19,266.04 C223.30,261.77 222.22,259.98 223.16,259.40 C223.66,259.09 229.81,258.81 238.35,258.66 C241.90,258.59 245.93,258.55 250.25,258.55 C268.39,258.51 274.48,258.39 279.90,257.43 C281.70,257.11 283.43,256.69 285.50,256.15 C289.06,255.23 292.89,254.00 295.42,253.00 C295.97,252.79 296.46,252.58 296.87,252.39 C297.19,252.24 297.47,252.10 297.69,251.98 L 317.80 260.10 C312.53,258.29 311.52,258.26 298.37,259.61 C290.42,260.42 282.86,261.43 275.66,262.62 C266.52,264.14 257.98,265.96 250.00,268.10 ZM 368.51 186.76 C369.87,187.19 371.33,187.65 372.89,188.15 C383.01,191.37 392.03,194.00 392.94,194.00 C393.85,194.00 395.14,194.54 395.80,195.20 C396.23,195.63 396.55,195.79 396.77,195.76 C396.64,195.87 396.46,195.92 396.25,195.88 C395.84,195.82 393.36,195.82 390.75,195.88 C386.45,195.99 386.00,196.23 386.00,198.37 C386.00,199.67 386.93,203.61 388.08,207.12 C390.81,215.52 391.25,218.00 390.02,218.00 C389.46,218.00 389.00,217.59 389.00,217.08 C389.00,216.58 387.39,214.66 385.41,212.83 C383.44,211.00 380.52,206.77 378.93,203.44 C377.34,200.11 374.90,196.32 373.52,195.02 C372.05,193.63 371.00,191.54 371.00,189.98 C371.00,188.40 370.77,187.68 368.51,186.76 ZM 268.99 233.75 C269.96,232.51 274.53,229.52 279.13,227.11 C283.73,224.69 288.93,221.37 290.68,219.73 C294.36,216.28 298.93,215.25 299.12,217.84 C299.18,218.75 299.16,220.06 299.07,220.75 C298.92,221.97 299.59,222.24 300.63,221.64 L 299.30 222.84 C293.60,227.99 285.18,232.46 277.30,234.51 C273.43,235.52 268.26,236.04 264.78,235.97 C266.51,235.81 267.96,235.05 268.99,233.75 ZM 227.03 460.09 C226.22,459.55 225.81,458.85 226.13,458.54 C226.75,457.91 238.67,456.30 249.25,455.41 L 255.27 454.90 C255.11,455.11 254.93,455.26 254.75,455.34 C253.90,455.68 253.98,455.87 255.01,455.92 C255.84,455.96 257.06,455.14 257.71,454.09 C258.67,452.55 258.62,451.93 257.46,450.96 C256.25,449.96 256.00,450.19 256.00,452.29 L 256.00 450.67 C256.00,441.08 250.71,420.99 246.91,416.16 C245.85,414.81 245.17,413.49 245.42,413.25 C248.25,410.42 256.11,430.19 257.45,443.50 C257.84,447.35 258.36,451.89 258.61,453.60 C258.68,454.04 258.71,454.47 258.71,454.88 C258.70,454.86 258.69,454.83 258.68,454.81 C258.36,454.01 258.13,454.25 258.08,455.42 C258.05,456.23 258.18,456.76 258.39,456.82 C258.24,457.21 258.04,457.52 257.79,457.71 C257.08,458.27 252.23,459.03 247.00,459.39 C246.28,459.44 245.53,459.50 244.78,459.55 C245.11,459.41 245.36,459.23 245.50,459.00 C245.84,458.45 247.19,458.00 248.50,458.00 C249.81,458.00 251.16,457.55 251.50,457.00 C252.23,455.82 240.53,455.74 237.54,456.91 C235.60,457.66 235.60,457.68 237.54,458.80 C238.47,459.34 239.73,459.69 240.97,459.85 C237.61,460.12 234.55,460.39 233.00,460.57 C230.52,460.85 227.84,460.64 227.03,460.09 ZM 508.88 558.50 C509.95,562.54 507.40,572.00 504.55,572.00 C504.45,572.00 504.35,571.99 504.26,571.98 C504.69,571.89 504.81,571.50 504.53,571.04 C504.20,570.52 504.63,568.44 505.47,566.42 C506.31,564.41 507.00,561.66 507.00,560.32 C507.00,558.95 507.44,558.15 508.00,558.50 C508.38,558.73 508.71,558.72 508.88,558.50 ZM 490.81 555.32 C490.01,555.64 490.25,555.87 491.42,555.92 C492.47,555.96 493.06,555.73 492.73,555.40 C492.69,555.36 492.64,555.32 492.59,555.29 C494.12,555.36 495.32,555.42 496.00,555.47 C496.45,555.50 496.96,555.53 497.50,555.57 C495.29,555.63 493.40,555.95 492.56,556.57 C491.76,557.16 491.43,557.51 491.95,557.72 C483.25,557.39 473.29,557.44 471.76,558.13 C471.81,558.10 471.85,558.08 471.89,558.06 C473.33,557.29 477.08,557.01 482.32,557.28 C486.82,557.52 489.48,557.51 488.24,557.28 C486.99,557.05 486.23,556.44 486.54,555.93 C486.79,555.53 485.39,555.19 483.26,554.97 C485.97,555.05 488.75,555.14 491.07,555.23 C490.98,555.25 490.90,555.28 490.81,555.32 ZM 589.09 596.85 C589.32,596.81 589.57,596.74 589.87,596.65 C591.04,596.29 592.90,595.72 594.00,595.38 C595.43,594.94 596.00,595.23 596.00,596.38 C596.00,597.27 595.35,598.00 594.56,598.00 C593.83,598.00 592.80,598.80 591.90,599.84 C593.74,597.16 593.19,595.92 590.37,596.62 C589.86,596.75 589.43,596.82 589.09,596.85 ZM 401.00 365.00 C401.00,365.55 400.13,366.00 399.06,366.00 C397.99,366.00 396.84,365.55 396.50,365.00 C396.15,364.43 396.99,364.00 398.44,364.00 C399.85,364.00 401.00,364.45 401.00,365.00 ZM 349.21 323.60 C348.14,324.76 348.27,325.00 349.96,325.00 C351.08,325.00 352.00,324.58 352.00,324.06 C352.00,322.40 350.54,322.17 349.21,323.60 ZM 332.77 315.61 C329.74,315.88 325.99,315.53 322.50,314.66 C322.25,314.60 321.96,314.53 321.65,314.45 C323.57,314.90 327.88,315.33 332.77,315.61 ZM 302.67 219.80 C303.82,218.38 303.82,217.25 302.90,212.99 C302.68,211.94 302.39,210.84 302.03,209.70 C302.40,210.87 302.70,212.01 302.94,213.09 L 304.11 218.50 L 302.67 219.80 ZM 462.20 561.06 C463.38,560.14 464.74,559.20 466.26,558.25 C469.30,556.38 470.75,555.49 472.95,555.10 C470.27,555.87 465.59,558.53 462.20,561.06 ZM 504.81 558.81 C503.65,558.49 500.99,558.21 497.65,558.00 C497.71,558.00 497.78,558.00 497.84,558.00 C501.53,558.00 503.72,558.12 504.81,558.81 ZM 478.53 481.07 C476.36,473.02 473.87,464.42 471.38,456.26 C474.21,465.38 476.64,473.83 478.53,481.07 ZM 312.33 207.52 C313.37,207.17 315.16,206.44 317.10,205.53 C318.69,204.79 320.29,204.12 321.54,203.66 C320.32,204.16 318.88,204.81 317.10,205.61 C315.15,206.48 313.38,207.19 312.33,207.52 ZM 503.44 555.90 C505.25,556.03 507.20,556.47 507.92,556.93 C508.01,556.99 508.10,557.06 508.19,557.15 C507.21,556.61 505.45,556.18 503.44,555.90 ZM 447.97 204.29 C447.34,205.61 446.67,207.15 445.92,208.95 L 442.74 216.53 C443.29,215.21 443.88,213.76 444.54,212.15 C445.85,208.92 446.97,206.34 447.97,204.29 ZM 504.58 565.05 C504.60,564.99 504.62,564.93 504.64,564.87 C505.30,562.84 505.66,561.00 505.63,559.94 C505.87,560.99 505.43,562.60 504.58,565.05 ZM 282.37 304.78 C275.06,303.06 268.55,301.61 262.68,300.38 C267.65,301.40 272.61,302.48 276.50,303.40 C278.55,303.88 280.48,304.33 282.37,304.78 ZM 340.50 186.54 C341.79,185.47 342.93,184.58 343.80,184.01 C344.75,183.38 345.51,182.86 346.25,182.47 C345.57,182.85 344.83,183.37 343.90,184.00 C343.00,184.60 341.81,185.50 340.50,186.54 ZM 474.88 277.18 C475.86,274.67 476.81,272.02 477.63,269.57 C477.53,269.88 477.43,270.20 477.33,270.50 C476.60,272.73 475.78,274.97 474.88,277.18 ZM 457.49 567.99 C457.07,567.31 457.29,566.34 458.06,565.20 C457.43,566.33 457.17,567.47 457.49,567.99 ZM 485.29 518.04 C484.91,515.34 484.40,512.98 484.07,512.50 C483.96,512.33 483.83,512.00 483.71,511.58 C483.84,511.92 483.98,512.22 484.15,512.50 C484.44,512.98 484.92,515.34 485.29,518.04 ZM 593.54 592.15 C590.82,593.44 588.77,595.00 588.09,595.98 C588.60,595.06 590.58,593.55 593.54,592.15 ZM 353.57 182.30 C355.35,182.72 357.59,183.35 360.52,184.25 C357.55,183.38 355.31,182.74 353.57,182.30 ZM 340.01 350.34 C340.65,356.07 341.38,361.49 341.98,364.28 C342.32,365.83 342.48,366.76 342.32,367.45 C342.48,366.76 342.32,365.83 341.98,364.28 C341.36,361.42 340.65,356.20 340.01,350.34 ZM 261.40 235.51 C261.14,235.39 261.00,235.24 261.00,235.07 C261.00,234.89 261.17,234.60 261.46,234.25 C261.07,234.80 261.05,235.22 261.40,235.51 ZM 590.86 604.58 C591.62,605.02 592.81,605.44 594.14,605.70 C592.59,605.39 591.51,605.04 590.86,604.58 ZM 396.94 193.44 C396.55,191.86 395.65,189.84 394.49,188.58 C395.68,189.87 396.59,191.86 396.94,193.44 ZM 461.67 193.67 C459.67,195.50 456.98,197.00 455.71,197.00 C455.44,197.00 455.17,197.01 454.92,197.03 C455.15,197.01 455.38,197.00 455.63,197.00 C456.96,197.00 459.65,195.51 461.67,193.67 ZM 466.74 562.47 C465.22,564.09 464.00,565.66 464.00,566.22 C464.00,565.64 465.21,564.09 466.74,562.47 ZM 333.75 267.53 C332.76,267.13 331.64,266.56 330.16,265.75 C331.56,266.51 332.75,267.11 333.75,267.53 ZM 503.00 570.94 C503.00,570.89 503.00,570.83 503.01,570.75 C503.01,571.00 503.07,571.24 503.18,571.43 C503.06,571.28 503.00,571.12 503.00,570.94 ZM 312.74 203.04 C311.82,205.53 311.23,207.52 311.38,207.71 C311.37,207.71 311.37,207.71 311.37,207.70 C311.22,207.55 311.81,205.54 312.74,203.04 ZM 319.24 313.85 C316.57,313.18 313.05,312.31 309.48,311.41 C312.42,312.15 315.64,312.95 319.24,313.85 ZM 310.39 252.08 C310.20,252.04 310.01,252.00 309.83,251.96 C309.28,251.85 308.77,251.75 308.29,251.65 C308.88,251.77 309.52,251.90 310.21,252.04 C310.27,252.05 310.33,252.07 310.39,252.08 ZM 590.55 601.83 C590.44,602.04 590.35,602.26 590.27,602.46 C590.34,602.26 590.43,602.05 590.55,601.83 Z" fill="rgba(29,41,47,1)"/>
<path d="M 321.16 385.61 C320.92,385.52 320.65,385.44 320.34,385.36 C318.78,384.96 316.75,384.69 315.83,384.75 C315.06,384.80 313.26,385.27 310.95,385.98 C313.76,384.97 315.88,384.14 316.50,383.78 C317.60,383.15 321.65,381.88 325.50,380.97 C331.56,379.53 332.55,378.99 332.85,376.91 C333.24,374.14 335.38,371.89 339.74,369.63 C342.61,368.15 342.75,367.82 341.98,364.28 C340.37,356.84 337.86,330.74 338.67,329.93 C339.54,329.06 398.71,327.37 409.13,327.92 C411.77,328.05 411.86,331.12 409.45,338.55 C406.60,347.36 405.86,355.00 407.87,355.00 C408.94,355.00 414.01,341.27 414.00,338.37 C414.00,335.71 416.68,333.28 418.07,334.67 C418.73,335.33 418.58,337.51 417.66,341.08 C416.88,344.06 415.70,349.88 415.02,354.00 C414.34,358.12 413.11,362.26 412.29,363.19 C410.41,365.32 411.40,367.00 414.56,367.00 C415.90,367.00 417.86,367.86 418.92,368.92 C420.66,370.66 420.72,371.24 419.55,375.17 L 418.27 379.50 L 413.38 379.35 C410.70,379.27 406.20,378.88 403.38,378.48 C399.97,378.01 398.03,378.14 397.57,378.89 C396.70,380.29 401.01,382.00 405.42,382.00 C413.36,382.00 419.00,385.72 420.96,392.26 C421.65,394.56 423.35,398.61 424.73,401.26 C426.12,403.91 426.99,406.34 426.68,406.66 C426.01,407.32 419.48,405.77 398.50,399.97 C383.14,395.72 359.81,390.42 350.00,388.95 C346.98,388.49 340.07,387.19 334.65,386.06 C329.24,384.93 322.94,384.04 320.65,384.09 L 316.50 384.18 L 319.83 385.14 C320.35,385.29 320.80,385.45 321.16,385.61 ZM 397.97 229.88 L 402.43 236.21 L 408.47 235.68 C411.79,235.39 417.20,234.46 420.50,233.62 C420.84,233.54 421.20,233.45 421.57,233.35 C419.71,233.89 418.03,234.58 417.60,235.00 C417.08,235.52 419.24,238.44 422.82,242.06 L 428.94 248.24 L 434.35 247.56 C438.47,247.05 439.57,247.04 440.88,248.39 C439.06,246.76 438.42,246.83 428.25,249.32 C391.03,258.41 372.48,262.72 358.69,265.27 C360.71,264.33 360.34,262.60 358.94,258.22 C356.76,251.43 352.13,240.13 349.05,234.10 C346.69,229.47 346.03,222.76 347.37,216.82 C348.13,213.45 348.03,213.18 346.21,213.65 C344.76,214.04 343.34,213.06 340.87,209.98 C339.01,207.67 335.30,204.02 332.60,201.88 L 327.71 197.97 L 333.60 192.47 C336.85,189.44 341.48,185.62 343.90,184.00 C345.48,182.93 346.51,182.20 347.64,181.85 C350.00,181.13 352.85,182.01 362.25,184.76 C370.43,187.14 371.00,187.48 371.00,189.98 C371.00,191.54 372.05,193.63 373.52,195.02 C374.90,196.32 377.34,200.11 378.93,203.44 C380.52,206.77 383.44,211.00 385.41,212.83 C387.39,214.66 389.00,216.58 389.00,217.08 C389.00,217.59 389.46,218.00 390.02,218.00 C390.88,218.00 390.92,216.81 389.96,213.27 C390.26,214.34 390.48,215.18 390.57,215.63 C391.32,219.40 393.40,223.40 397.97,229.88 ZM 442.51 318.01 C442.17,317.47 443.25,313.08 444.91,308.26 C453.16,284.20 452.94,261.58 444.31,247.26 C441.07,241.87 440.98,241.49 442.69,240.23 C443.69,239.50 445.40,239.16 446.50,239.48 C447.60,239.79 450.72,240.49 453.43,241.03 C456.14,241.57 459.74,243.14 461.43,244.51 C463.12,245.89 467.99,249.59 472.25,252.74 C477.59,256.69 480.00,259.12 480.00,260.55 C480.00,263.51 474.80,278.50 471.51,285.00 C466.93,294.07 457.35,307.36 451.06,313.36 C445.12,319.03 443.63,319.84 442.51,318.01 ZM 213.82 205.60 C212.07,203.12 210.67,200.21 210.67,198.45 C210.67,197.92 210.52,197.46 210.30,197.21 C211.01,197.63 215.81,197.98 221.01,197.98 C229.28,198.00 230.67,198.25 231.71,199.91 C233.27,202.40 232.45,202.70 221.65,203.57 C214.64,204.14 213.43,204.25 213.82,205.60 ZM 237.54 458.80 C235.60,457.68 235.60,457.66 237.54,456.91 C240.53,455.74 252.23,455.82 251.50,457.00 C251.16,457.55 249.81,458.00 248.50,458.00 C247.19,458.00 245.84,458.45 245.50,459.00 C244.68,460.33 239.98,460.22 237.54,458.80 ZM 338.00 323.93 C338.00,322.34 338.46,322.00 340.00,322.43 C341.10,322.74 342.96,323.27 344.13,323.61 C345.80,324.09 345.96,324.41 344.88,325.09 C344.12,325.58 342.26,325.98 340.75,325.98 C338.63,326.00 338.00,325.52 338.00,323.93 ZM 596.75 565.19 C597.87,565.75 598.75,566.28 599.18,566.66 C600.81,568.14 601.00,568.15 601.00,566.73 C601.00,566.36 600.88,565.97 600.67,565.57 C601.54,566.61 602.19,567.69 602.49,568.75 C603.42,572.01 601.33,571.55 599.55,568.10 C598.93,566.91 598.12,566.01 596.75,565.19 ZM 401.00 365.00 C401.00,364.45 399.85,364.00 398.44,364.00 C396.99,364.00 396.15,364.43 396.50,365.00 C396.84,365.55 397.99,366.00 399.06,366.00 C400.13,366.00 401.00,365.55 401.00,365.00 ZM 349.21 323.60 C350.54,322.17 352.00,322.40 352.00,324.06 C352.00,324.58 351.08,325.00 349.96,325.00 C348.27,325.00 348.14,324.76 349.21,323.60 ZM 210.11 197.05 C210.05,197.02 209.98,197.00 209.91,197.00 C208.96,197.00 206.29,185.31 206.02,180.30 C206.51,185.98 208.57,195.47 210.11,197.05 ZM 446.00 288.48 C447.90,278.77 447.85,268.08 446.16,259.97 C447.94,268.08 447.96,278.63 446.00,288.48 ZM 223.30 210.98 C227.70,211.25 233.01,210.28 237.84,208.00 C232.95,210.31 227.85,211.33 223.30,210.98 ZM 329.45 265.36 C335.14,268.49 335.87,268.64 341.50,267.91 C343.16,267.69 345.28,267.41 347.37,267.14 C345.59,267.40 343.81,267.64 342.01,267.87 C335.80,268.66 335.26,268.56 329.45,265.36 ZM 298.91 390.10 C294.88,391.61 291.56,392.99 290.95,393.55 C291.60,392.96 294.84,391.58 298.91,390.10 ZM 313.41 391.56 C318.03,389.88 320.82,388.57 321.89,387.55 C320.89,388.57 318.13,389.84 313.41,391.56 ZM 593.16 560.64 C592.71,560.52 592.26,560.43 591.82,560.36 C589.69,560.01 586.32,558.45 584.33,556.87 C586.32,558.45 589.75,560.02 591.97,560.38 C592.36,560.44 592.76,560.53 593.16,560.64 ZM 585.62 561.00 L 585.65 560.99 L 589.69 562.38 L 585.62 561.00 Z" fill="rgba(50,68,66,1)"/>
<path d="M 463.64 498.31 C463.26,497.92 461.19,497.72 459.04,497.84 C456.18,498.01 454.86,497.60 454.10,496.29 C453.53,495.30 453.05,495.03 453.03,495.68 C453.02,495.92 452.88,496.10 452.65,496.23 C453.47,495.13 453.14,492.36 451.81,487.61 C450.72,483.70 448.99,477.35 447.96,473.50 C446.94,469.65 445.23,463.58 444.15,460.00 C443.08,456.42 439.61,444.50 436.44,433.50 C433.28,422.50 430.16,412.92 429.51,412.20 C428.47,411.05 424.18,409.71 419.99,408.84 C423.94,409.60 427.99,410.75 429.31,411.79 C430.56,412.77 434.78,413.96 439.00,414.52 C439.49,414.58 440.37,414.76 441.49,415.01 C439.57,414.59 438.28,414.39 438.15,414.52 C437.91,414.76 438.64,417.39 439.77,420.36 C441.56,425.04 448.44,447.21 449.55,451.88 C449.76,452.77 451.09,457.33 452.49,462.00 C453.90,466.67 456.44,476.35 458.14,483.50 C459.92,491.00 461.89,497.03 462.80,497.75 C463.81,498.55 467.75,499.00 473.69,499.00 C468.54,499.00 464.02,498.69 463.64,498.31 ZM 601.05 621.83 C601.02,620.91 602.20,618.73 603.66,617.00 C605.29,615.05 605.77,613.92 604.91,614.04 C604.13,614.15 602.39,614.18 601.04,614.12 C598.79,614.01 598.71,613.86 600.15,612.42 C601.02,611.56 603.55,610.60 605.78,610.30 C608.75,609.90 610.83,608.73 613.62,605.88 C617.86,601.54 617.82,601.52 609.59,603.48 C604.84,604.62 602.73,605.83 598.86,609.64 C593.55,614.87 591.15,614.99 595.51,609.80 L 598.28 606.52 L 594.14 605.70 C591.86,605.25 590.00,604.33 590.00,603.66 C590.00,601.71 592.98,598.00 594.56,598.00 C595.35,598.00 596.00,597.27 596.00,596.38 C596.00,595.23 595.43,594.94 594.00,595.38 C592.90,595.72 591.04,596.29 589.87,596.65 C585.71,597.92 588.46,594.56 593.54,592.15 C596.47,590.77 599.93,588.00 602.00,585.40 C606.30,579.98 610.53,579.07 606.47,584.44 C604.25,587.37 604.68,588.01 608.08,586.82 C610.31,586.05 611.46,586.06 612.28,586.88 C613.84,588.44 612.53,589.41 605.73,591.71 C601.63,593.10 599.25,594.63 597.49,597.01 C596.13,598.85 595.18,600.52 595.38,600.71 C595.57,600.91 597.69,600.75 600.09,600.37 C603.39,599.84 605.27,598.75 607.88,595.84 C609.78,593.73 611.70,592.00 612.16,592.00 C613.71,592.00 613.02,594.35 610.75,596.79 L 608.50 599.20 L 614.00 598.98 C617.03,598.85 619.83,598.81 620.23,598.88 C620.63,598.94 619.83,601.03 618.45,603.50 L 615.94 608.00 L 618.97 608.00 C620.64,608.00 622.00,608.40 622.00,608.89 C622.00,609.92 614.75,613.00 612.31,613.00 C611.40,613.00 608.51,615.36 605.87,618.25 C602.75,621.68 601.08,622.92 601.05,621.83 ZM 276.58 603.25 C276.17,602.84 271.58,602.05 266.39,601.50 C257.64,600.57 253.79,598.96 258.50,598.21 C262.94,597.49 263.16,597.05 260.32,594.60 L 257.51 592.18 L 260.26 592.71 C261.78,593.00 263.00,592.78 263.00,592.23 C263.00,591.67 264.65,590.91 266.67,590.53 L 270.34 589.85 L 267.53 587.60 L 264.72 585.36 L 268.36 583.63 C271.47,582.16 271.92,581.54 271.40,579.45 C271.06,578.10 271.08,577.00 271.44,577.00 C272.38,577.00 278.06,580.00 281.00,582.05 C282.38,583.01 285.92,584.05 288.89,584.37 C291.85,584.68 294.51,585.18 294.80,585.47 C295.65,586.32 294.18,587.32 291.75,587.54 C290.51,587.65 289.63,588.30 289.79,588.98 C290.25,590.97 287.95,593.00 285.22,593.00 C282.83,593.00 282.78,593.10 284.35,594.83 C287.05,597.82 285.05,598.11 280.45,595.42 C276.86,593.31 275.12,592.95 269.83,593.20 L 263.50 593.50 L 268.38 595.75 C271.06,596.99 274.66,598.01 276.38,598.01 C280.68,598.03 284.09,599.05 283.43,600.11 C283.13,600.60 281.95,601.00 280.82,601.00 C279.10,601.00 278.96,601.25 280.00,602.50 C281.03,603.75 280.91,604.00 279.29,604.00 C278.21,604.00 277.00,603.66 276.58,603.25 ZM 306.63 623.16 C306.43,622.80 303.66,617.55 300.49,611.50 C297.31,605.45 294.36,600.04 293.92,599.47 C293.47,598.89 294.56,596.74 296.47,594.47 C298.31,592.29 299.99,590.72 300.21,591.00 C300.43,591.28 303.71,597.66 307.51,605.20 C314.17,618.42 314.35,618.96 312.64,620.85 C310.77,622.91 307.26,624.26 306.63,623.16 ZM 617.89 587.79 C615.92,586.20 611.00,579.59 611.00,578.54 C611.00,578.11 613.84,577.95 617.32,578.17 C622.85,578.52 624.29,579.07 628.78,582.54 C631.60,584.72 633.78,586.95 633.62,587.50 C633.18,589.06 619.78,589.31 617.89,587.79 ZM 583.00 592.51 C583.00,591.04 596.41,579.33 600.10,577.59 C606.37,574.64 600.37,582.36 590.41,590.06 C584.98,594.26 583.00,594.91 583.00,592.51 ZM 270.00 609.38 C265.88,608.14 262.50,607.04 262.50,606.93 C262.50,606.83 261.60,606.64 260.50,606.51 C257.56,606.16 250.60,603.07 251.26,602.41 C252.92,600.75 279.00,607.90 279.00,610.01 C279.00,611.71 277.41,611.60 270.00,609.38 ZM 602.00 628.58 C602.00,625.51 620.40,611.30 623.18,612.23 C623.78,612.43 621.85,614.57 618.88,617.00 C615.92,619.42 611.38,623.34 608.79,625.70 C603.88,630.18 602.00,630.98 602.00,628.58 ZM 284.75 579.84 C275.21,575.84 271.90,573.13 278.05,574.36 C282.76,575.30 296.30,581.39 296.76,582.77 C297.42,584.75 295.10,584.18 284.75,579.84 ZM 580.23 562.76 C585.86,560.71 586.64,559.36 584.51,557.01 C584.50,557.00 584.50,557.00 584.49,556.99 C586.49,558.53 589.74,560.02 591.82,560.36 C596.23,561.06 601.00,564.37 601.00,566.73 C601.00,568.15 600.81,568.14 599.18,566.66 C598.18,565.76 594.73,564.11 591.51,563.00 L 585.65 560.99 L 580.23 562.76 ZM 284.00 588.50 C282.62,587.71 279.50,587.05 277.06,587.04 C272.94,587.00 272.76,587.11 274.56,588.47 C275.67,589.31 278.65,589.93 281.50,589.93 C286.33,589.93 286.42,589.88 284.00,588.50 ZM 311.49 572.42 C311.82,570.73 311.60,568.08 311.01,566.54 C309.70,563.08 310.65,561.81 312.58,564.44 C314.44,566.99 314.39,571.13 312.45,573.56 C310.99,575.40 310.94,575.34 311.49,572.42 ZM 448.06 495.69 C448.27,495.80 448.48,495.90 448.69,496.00 C447.75,495.69 446.89,495.24 446.38,494.70 C445.80,494.07 444.10,490.14 442.12,485.08 C444.64,491.21 446.73,495.01 448.06,495.69 ZM 565.57 569.92 C567.91,567.69 571.33,565.74 575.56,564.31 C571.24,565.88 567.87,567.78 565.57,569.92 ZM 580.95 554.49 C580.93,554.48 580.90,554.47 580.87,554.46 C580.60,554.37 580.35,554.24 580.12,554.06 C580.32,554.14 580.61,554.29 580.95,554.49 ZM 445.95 416.11 C446.88,416.35 447.83,416.60 448.76,416.86 C448.29,416.74 447.82,416.62 447.35,416.49 C446.87,416.36 446.41,416.23 445.95,416.11 ZM 436.57 469.75 C436.43,469.32 436.30,468.91 436.16,468.50 C435.45,466.31 434.20,462.79 432.93,459.39 C434.20,462.79 435.46,466.31 436.17,468.50 C436.30,468.92 436.44,469.33 436.57,469.75 Z" fill="rgba(97,105,116,1)"/>
<path d="M 219.72 197.98 C221.14,197.92 222.77,197.84 224.62,197.75 C234.90,197.22 235.00,197.24 235.00,199.48 C235.00,201.29 234.23,202.08 229.75,202.73 C232.73,202.21 232.71,201.51 231.71,199.91 C230.67,198.25 229.28,198.00 221.01,197.98 C220.57,197.98 220.14,197.98 219.72,197.98 ZM 283.66 165.81 C286.28,166.76 286.11,166.84 281.50,166.85 C277.32,166.86 276.85,166.69 278.66,165.82 C280.15,165.10 281.70,165.09 283.66,165.81 ZM 209.24 195.49 C209.81,196.50 210.56,197.14 211.74,197.53 C210.99,197.43 210.48,197.32 210.29,197.20 C209.96,196.99 209.60,196.38 209.24,195.49 ZM 206.48 176.00 C205.80,176.00 205.85,179.43 206.44,183.74 C205.81,179.55 205.65,176.00 206.48,176.00 ZM 213.75 205.20 C213.75,205.54 213.95,205.98 214.22,206.58 C213.95,205.98 213.75,205.54 213.75,205.20 Z" fill="rgba(106,79,50,1)"/>
<path d="M 304.09 560.91 C304.03,560.89 303.97,560.86 303.90,560.84 L 264.90 524.50 C249.59,502.61 243.49,492.92 237.52,481.00 C233.84,473.65 232.14,470.69 232.99,469.13 C233.68,467.87 236.00,467.51 240.26,466.48 C243.08,465.80 245.66,465.34 248.63,465.04 C252.34,464.66 256.62,464.52 262.50,464.53 C267.49,464.54 270.88,464.59 273.68,464.81 C277.39,465.06 279.76,465.55 283.03,466.58 L 283.03 466.58 C283.99,466.86 285.03,467.17 286.17,467.52 L 295.84 470.48 L 297.41 478.99 C297.66,480.35 297.95,481.98 298.28,483.83 C298.38,484.43 298.49,485.05 298.60,485.69 C302.23,506.61 309.17,549.78 309.21,552.00 C309.38,562.30 309.05,562.89 304.09,560.91 ZM 328.00 254.00 C328.00,254.06 328.03,254.11 328.08,254.17 C322.60,253.91 314.91,253.00 310.21,252.04 C301.14,250.19 300.80,250.19 297.69,251.98 C295.94,252.99 290.45,254.87 285.50,256.15 C285.26,256.22 285.02,256.28 284.79,256.34 C288.40,255.21 290.38,254.00 288.14,254.00 C287.45,254.00 287.16,253.54 287.51,252.98 C287.86,252.42 288.56,252.23 289.07,252.54 C289.58,252.86 290.00,252.70 290.00,252.19 C290.00,251.68 292.18,250.36 294.85,249.25 L 299.70 247.24 L 300.37 238.25 C300.79,232.72 300.65,228.21 300.01,226.52 C299.01,223.90 298.87,223.85 296.73,225.39 C294.95,226.67 292.53,228.08 289.89,229.42 C293.40,227.49 296.64,225.24 299.30,222.84 L 304.11 218.50 L 302.94 213.09 C301.54,206.62 297.64,198.23 293.04,191.79 C292.61,191.19 292.12,190.56 291.57,189.92 C292.51,190.97 293.38,192.01 294.16,193.03 C296.50,196.09 296.98,196.32 298.25,195.00 C299.04,194.18 300.72,191.02 301.99,188.00 C303.89,183.48 304.30,180.73 304.28,172.50 C304.27,167.00 303.68,159.91 302.97,156.75 C301.73,151.20 301.53,150.95 297.59,149.88 C297.33,149.81 297.04,149.75 296.71,149.69 C305.00,150.20 306.98,152.02 309.99,157.98 C314.71,167.34 316.28,175.10 315.74,186.50 C315.42,193.36 314.61,198.21 313.16,201.94 C312.00,204.93 311.19,207.53 311.37,207.70 C311.55,207.88 314.13,206.94 317.10,205.61 C322.31,203.28 324.65,202.16 326.66,202.60 C328.45,203.00 329.97,204.64 333.03,207.79 C336.23,211.08 339.99,216.02 341.38,218.76 L 343.91 223.75 L 342.42 234.12 C341.89,237.80 341.30,241.97 340.83,245.21 L 340.58 243.12 C340.22,240.05 339.27,236.53 338.45,235.29 C336.46,232.24 331.29,229.71 328.25,230.29 C326.88,230.55 324.50,230.05 322.97,229.17 C320.50,227.75 319.87,227.73 317.46,229.02 C315.91,229.85 313.65,232.71 312.20,235.67 C310.80,238.52 308.83,241.07 307.83,241.34 C305.65,241.90 305.53,242.97 307.34,245.45 C308.16,246.58 311.15,247.77 315.09,248.54 C322.30,249.96 331.59,250.29 337.37,249.34 L 340.31 248.85 C340.27,249.09 340.24,249.30 340.22,249.50 L 339.50 254.50 L 338.55 254.47 C339.06,254.33 339.39,254.17 339.50,254.00 C339.89,253.38 337.84,253.00 334.06,253.00 C330.69,253.00 328.00,253.44 328.00,254.00 ZM 310.00 462.00 C311.43,463.98 316.70,464.94 315.50,462.99 C314.34,461.12 318.20,460.69 324.87,461.96 C328.51,462.65 334.25,463.45 337.60,463.72 L 343.71 464.22 L 344.35 461.01 C345.08,457.34 341.52,446.22 336.88,437.68 C335.33,434.83 332.93,430.40 331.56,427.84 C330.19,425.28 328.71,423.03 328.28,422.84 C327.85,422.65 325.61,419.97 323.31,416.87 C321.00,413.77 315.52,407.94 311.12,403.92 C306.55,399.74 304.22,397.73 304.51,396.22 C304.75,394.95 306.83,394.03 310.96,392.49 C307.97,393.66 305.68,394.71 305.48,395.03 C305.23,395.44 307.50,396.08 310.52,396.46 C315.67,397.10 316.55,397.65 324.30,404.98 C337.10,417.09 349.47,435.44 355.43,451.16 C357.06,455.44 358.67,456.92 361.40,455.99 C360.52,456.33 359.79,456.47 359.42,456.33 C358.43,455.95 358.71,458.10 360.51,464.62 C362.35,471.31 362.64,473.61 361.71,474.18 C359.49,475.57 351.95,476.25 343.97,475.79 C339.64,475.54 336.31,475.69 336.58,476.12 C336.73,476.37 337.43,477.03 338.49,477.97 C336.77,476.58 335.54,475.61 335.15,475.34 C334.24,474.70 325.17,472.11 315.00,469.58 C303.03,466.61 296.06,464.40 295.26,463.32 C294.58,462.39 292.96,458.17 291.66,453.93 C289.40,446.57 286.50,440.45 282.39,434.68 C283.65,436.40 284.72,438.02 285.52,439.50 C292.60,452.45 298.17,459.41 300.72,458.51 C301.39,458.28 302.20,458.52 302.53,459.04 C302.85,459.57 304.34,460.00 305.84,460.00 C307.41,460.00 309.17,460.84 310.00,462.00 ZM 413.89 221.64 C422.86,223.59 426.73,223.07 431.24,219.30 C433.41,217.48 435.62,216.00 436.15,216.00 C436.68,216.00 436.89,215.63 436.60,215.17 C436.06,214.29 439.89,208.04 443.24,204.33 C444.33,203.13 446.05,202.32 447.10,202.52 C448.23,202.74 449.00,202.32 449.00,201.50 C449.00,200.24 450.75,198.66 452.76,197.74 C450.31,199.22 448.18,203.18 444.54,212.15 C437.96,228.33 437.24,229.35 431.39,230.85 C428.70,231.53 423.80,232.78 420.50,233.62 C417.34,234.43 412.23,235.31 408.88,235.64 L 406.87 232.75 C405.62,230.96 404.31,229.27 403.95,229.00 C403.60,228.73 402.68,227.34 401.90,225.92 C400.64,223.60 388.32,205.01 387.48,204.15 C387.29,203.96 387.81,205.98 388.64,208.65 C389.32,210.86 390.04,213.39 390.39,214.86 C389.98,213.22 389.03,210.06 388.08,207.12 C386.93,203.61 386.00,199.67 386.00,198.37 C386.00,196.23 386.45,195.99 390.75,195.88 C393.36,195.82 395.84,195.82 396.25,195.88 C398.02,196.16 396.79,191.06 394.49,188.58 C390.18,183.93 387.65,177.93 387.57,172.17 C387.51,167.42 387.84,166.54 390.63,164.04 C392.35,162.51 394.29,161.07 394.96,160.85 C395.71,160.60 396.18,158.21 396.20,154.47 C396.20,153.99 396.22,153.50 396.26,153.00 C396.27,154.66 396.61,155.94 397.31,156.65 C398.13,157.46 407.39,160.56 411.74,161.47 C415.53,162.27 416.36,163.28 415.49,166.03 C414.78,168.26 409.12,171.00 405.21,171.00 C403.80,171.00 401.83,171.74 400.83,172.65 C399.11,174.21 399.00,174.18 399.00,172.27 C399.00,171.15 398.32,168.72 397.49,166.86 C396.06,163.66 396.02,163.95 396.57,173.00 C397.47,187.72 397.63,188.88 400.41,200.54 C404.74,218.67 405.46,219.80 413.89,221.64 ZM 237.35 661.91 C222.82,659.48 212.00,651.85 212.00,644.04 C212.00,639.01 213.74,637.92 216.26,641.38 C218.58,644.57 223.13,647.02 232.57,650.17 C238.69,652.21 241.43,652.49 256.00,652.49 C277.04,652.50 280.31,651.51 290.54,642.03 C302.47,630.97 305.98,628.44 317.76,622.48 C324.78,618.93 329.94,615.61 331.46,613.68 L 333.89 610.57 L 334.94 613.35 C336.49,617.43 336.26,619.31 333.74,623.10 C330.62,627.80 323.92,631.00 317.21,631.00 C311.97,631.00 311.55,631.23 300.80,639.66 C294.73,644.42 288.04,650.06 285.93,652.19 C281.39,656.77 275.48,659.58 266.23,661.54 C258.89,663.09 245.48,663.26 237.35,661.91 ZM 448.39 558.04 C445.68,556.92 431.45,540.18 418.89,523.34 C407.89,508.59 402.60,500.61 395.46,487.96 C397.81,491.90 400.03,495.18 400.77,495.75 C402.90,497.40 405.60,497.32 406.54,495.68 C406.51,495.83 406.51,495.97 406.55,496.09 C406.85,497.21 410.13,497.51 428.00,499.46 C435.42,500.27 450.39,501.24 461.26,501.62 C473.54,502.05 481.35,502.72 481.91,503.40 C482.40,504.01 482.94,506.08 483.10,508.00 C483.14,508.39 483.18,508.79 483.23,509.18 C483.23,509.13 483.22,509.07 483.21,509.02 C483.02,507.65 482.76,506.43 482.63,506.30 C482.07,505.74 431.03,505.41 426.00,505.93 C421.75,506.37 420.53,506.87 420.62,508.12 C420.74,509.87 435.40,533.84 440.45,540.56 C442.13,542.80 446.20,547.82 449.50,551.73 C453.00,555.88 454.77,557.84 456.62,558.17 C453.52,558.80 450.30,558.83 448.39,558.04 ZM 381.50 316.90 C366.65,316.48 348.20,316.04 340.50,315.90 C335.92,315.83 331.05,315.56 327.27,315.21 C327.37,315.19 327.45,315.17 327.50,315.14 C328.05,314.81 329.62,314.43 331.00,314.28 C332.38,314.13 335.52,313.71 338.00,313.36 C340.48,313.00 361.48,312.74 384.67,312.79 C407.86,312.83 428.11,312.54 429.67,312.13 C432.84,311.29 434.56,308.30 437.82,298.00 C441.62,285.97 443.43,275.70 443.32,266.75 C443.24,259.85 443.51,258.00 444.62,258.00 C445.31,258.00 445.59,257.80 445.44,257.01 C448.08,266.32 448.20,280.47 445.13,292.30 C442.80,301.29 437.87,314.25 435.87,316.66 C434.62,318.16 427.33,318.19 381.50,316.90 ZM 644.50 657.69 C641.71,656.44 642.10,656.35 650.00,656.42 C657.31,656.49 659.13,656.15 663.00,653.98 C668.24,651.05 669.86,647.53 669.94,638.86 C670.11,622.24 655.56,598.02 637.06,584.10 C630.29,579.01 629.18,577.65 624.79,569.10 C622.13,563.93 620.20,559.47 620.49,559.17 C620.79,558.88 622.93,559.98 625.26,561.61 C628.42,563.82 630.65,566.76 634.00,573.16 C637.69,580.19 639.85,582.91 646.00,588.23 C657.05,597.79 670.30,617.17 674.48,629.89 C677.96,640.47 674.96,651.97 667.64,656.08 C662.60,658.91 649.30,659.84 644.50,657.69 ZM 554.50 578.93 C549.33,577.39 521.36,573.00 516.69,573.00 L 512.23 573.00 L 517.04 563.62 C518.72,560.34 520.34,556.54 521.40,553.52 C520.76,555.62 519.94,557.80 519.12,559.55 L 516.19 565.83 L 524.84 567.43 C529.60,568.31 537.10,569.97 541.50,571.11 C545.90,572.26 551.30,573.55 553.50,573.97 C559.39,575.12 560.79,575.15 563.45,572.43 C562.50,573.90 562.00,575.44 562.00,577.00 C562.00,578.06 561.84,578.82 561.42,579.30 C561.32,579.21 561.17,579.11 561.00,579.00 C559.02,577.72 555.71,577.72 556.50,579.00 C556.77,579.44 557.77,579.81 558.91,579.94 C557.82,579.83 556.38,579.49 554.50,578.93 ZM 220.20 258.80 C220.89,259.49 222.29,259.71 223.45,259.32 C224.05,259.12 227.80,258.93 233.29,258.78 C227.22,258.96 223.37,259.24 223.06,259.55 C222.46,260.15 224.19,262.66 227.72,266.34 C230.19,268.90 231.43,270.46 233.03,271.13 C233.86,271.47 234.78,271.58 236.02,271.47 C234.68,271.60 233.59,271.53 232.55,271.24 C229.90,270.50 227.66,268.32 222.87,264.29 C217.72,259.94 212.95,256.06 212.28,255.66 C211.62,255.25 209.37,255.78 207.28,256.82 C200.46,260.24 198.88,260.21 191.17,256.52 C187.23,254.62 184.00,252.63 184.00,252.07 C184.00,250.74 187.55,248.88 188.42,249.76 C188.80,250.13 189.47,249.85 189.92,249.13 C191.06,247.28 199.48,255.31 198.65,257.46 C197.79,259.72 198.96,259.34 201.59,256.50 C202.86,255.12 205.02,254.00 206.39,254.00 C210.05,254.00 210.40,252.49 207.81,247.86 C206.34,245.23 203.55,242.56 198.60,239.08 C201.01,240.66 203.11,241.88 204.21,242.28 C205.09,242.60 209.51,240.98 216.09,237.95 L 209.79 240.96 L 213.01 246.73 C214.78,249.90 216.86,253.21 217.62,254.08 C218.38,254.95 219.00,256.09 219.00,256.63 C219.00,257.16 219.54,258.14 220.20,258.80 ZM 308.74 311.23 C294.17,307.60 286.89,305.84 276.50,303.40 C268.25,301.46 255.20,298.78 247.50,297.44 C245.90,297.16 244.23,296.86 242.54,296.56 C244.62,296.90 246.95,297.24 249.50,297.59 L 252.50 297.99 L 249.25 296.97 C245.28,295.72 244.99,293.99 248.75,294.02 C254.98,294.06 285.50,300.13 289.07,302.04 C290.06,302.57 292.22,303.00 293.88,303.00 C295.53,303.00 297.16,303.45 297.50,304.00 C297.84,304.55 299.19,305.00 300.50,305.00 C302.07,305.00 303.47,305.99 304.60,307.90 C305.56,309.53 306.74,310.51 308.74,311.23 ZM 432.94 175.21 C432.08,176.95 430.96,178.51 430.44,178.68 C428.34,179.37 418.64,166.02 420.15,164.52 C420.43,164.24 426.69,164.34 434.07,164.75 C445.69,165.40 447.52,165.73 447.81,167.25 C448.00,168.21 447.51,169.64 446.73,170.42 C445.50,171.64 445.07,171.56 443.58,169.82 L 441.85 167.80 L 439.61 169.90 C438.38,171.05 436.73,172.01 435.94,172.02 C435.15,172.04 433.80,173.47 432.94,175.21 ZM 176.97 226.00 L 173.48 226.00 L 171.16 234.25 C169.88,238.79 168.60,243.75 168.30,245.28 L 167.76 248.06 L 173.38 245.96 C181.32,242.99 183.62,243.86 176.86,247.28 C173.75,248.85 169.02,250.27 165.94,250.55 C161.47,250.96 160.88,250.84 162.66,249.91 C165.49,248.42 165.97,246.33 165.99,235.36 L 166.00 226.23 L 161.25 225.56 C160.09,225.40 158.48,225.07 156.74,224.66 C159.94,225.19 163.90,225.50 169.50,225.71 L 176.97 226.00 ZM 190.50 280.56 C189.40,280.99 187.44,281.40 186.15,281.47 C184.00,281.58 183.85,281.29 184.39,278.05 C184.71,276.10 184.98,273.04 184.99,271.25 C185.00,268.41 185.33,268.00 187.63,268.00 C189.46,268.00 191.54,269.37 194.47,272.53 L 198.69 277.05 L 195.59 278.42 C193.89,279.17 191.60,280.14 190.50,280.56 ZM 260.06 230.00 L 266.41 230.00 C265.67,230.71 264.91,231.36 264.10,231.93 C262.40,233.14 261.00,234.56 261.00,235.07 C261.00,235.27 261.19,235.43 261.54,235.57 C253.25,234.99 245.15,233.01 242.41,230.27 C240.13,227.99 241.83,227.58 248.05,228.92 C250.83,229.51 256.23,230.00 260.06,230.00 ZM 461.94 186.62 C460.38,189.53 458.88,189.65 457.23,187.00 C456.55,185.90 455.31,185.00 454.49,185.00 C452.51,185.00 452.60,184.46 455.19,180.96 C458.19,176.89 461.61,176.97 462.53,181.12 C462.94,183.02 462.71,185.17 461.94,186.62 ZM 236.64 295.48 C232.34,294.67 228.50,293.92 226.34,293.45 C221.02,292.30 218.78,291.89 214.12,294.17 C214.85,293.77 215.41,293.48 215.77,293.33 C222.20,290.63 236.53,291.04 232.26,293.81 C231.69,294.17 233.34,294.77 236.64,295.48 ZM 155.64 267.51 C151.70,269.56 151.69,269.54 154.10,264.75 C156.89,259.23 157.15,259.01 156.39,262.82 C155.92,265.16 156.11,266.00 157.12,266.01 C157.88,266.01 157.21,266.68 155.64,267.51 ZM 408.30 188.34 C408.97,190.10 408.76,190.43 407.67,189.33 C406.60,188.27 406.90,185.00 408.06,185.00 C408.64,185.00 408.84,184.55 408.50,184.00 C408.16,183.45 408.36,183.00 408.94,183.00 C409.52,183.00 410.00,184.15 410.00,185.56 C410.00,187.26 409.61,187.88 408.83,187.39 C408.04,186.91 407.87,187.22 408.30,188.34 ZM 244.66 258.58 C246.71,258.55 248.84,258.54 251.00,258.53 C264.73,258.47 273.89,258.16 278.93,257.59 C273.73,258.41 267.33,258.51 250.25,258.55 C248.32,258.55 246.46,258.56 244.66,258.58 ZM 404.98 235.98 L 402.43 236.21 L 397.97 229.88 C401.50,234.88 402.51,235.85 404.98,235.98 ZM 408.83 128.17 C409.35,127.76 409.89,127.38 410.42,127.05 C414.90,124.28 420.51,123.22 426.40,123.54 C424.25,123.46 422.13,123.58 420.08,123.91 C415.39,124.66 411.83,125.92 408.83,128.17 ZM 272.11 423.05 C265.47,416.66 259.57,412.20 252.81,408.66 C255.19,409.86 257.35,411.10 259.19,412.32 C263.29,415.03 267.86,418.89 272.11,423.05 ZM 279.07 149.65 C275.08,150.12 272.53,150.97 268.51,152.85 C265.46,154.28 261.95,156.26 259.90,157.69 C261.97,156.25 265.53,154.22 268.65,152.74 C273.03,150.67 274.82,149.92 279.07,149.65 ZM 147.93 222.20 C145.37,221.55 143.01,221.24 142.10,221.47 C142.73,221.17 143.22,221.00 143.51,221.00 C143.98,221.00 145.76,221.49 147.93,222.20 ZM 127.73 238.30 C127.71,238.25 127.69,238.21 127.67,238.16 L 125.94 233.82 L 128.09 231.85 C127.98,231.96 127.88,232.08 127.79,232.18 C126.18,234.01 126.17,234.39 127.73,238.30 ZM 576.47 564.01 C572.52,565.25 569.22,566.93 566.77,568.87 C569.09,566.68 571.38,565.61 576.44,564.02 C576.45,564.02 576.46,564.01 576.47,564.01 ZM 289.74 558.92 L 287.50 558.73 L 285.75 555.86 C287.28,558.11 288.17,558.73 289.74,558.92 ZM 398.16 144.33 C399.50,140.54 401.44,136.82 403.70,133.69 C402.10,136.01 400.58,138.86 398.99,142.35 C398.69,143.02 398.42,143.68 398.16,144.33 ZM 445.05 255.70 C444.89,255.29 444.70,254.81 444.47,254.25 C443.61,252.19 442.06,249.64 441.01,248.58 C440.75,248.32 440.53,248.10 440.30,247.91 C440.52,248.07 440.74,248.26 440.98,248.48 C442.64,249.98 444.01,252.50 445.05,255.70 ZM 273.54 218.50 C272.24,221.96 270.56,225.06 268.55,227.61 L 270.39 224.74 C271.61,222.84 272.66,220.74 273.54,218.50 ZM 522.82 546.01 C522.88,541.10 521.85,534.89 520.24,530.20 C521.94,535.00 522.97,541.13 522.82,546.01 ZM 299.12 559.87 C297.68,559.66 296.11,559.47 294.59,559.34 L 290.47 558.99 C290.78,559.00 291.12,559.01 291.50,559.02 C293.58,559.07 296.90,559.44 299.12,559.87 ZM 183.95 227.57 C182.92,226.75 181.97,226.33 180.65,226.14 L 182.50 226.21 L 183.95 227.57 ZM 284.32 182.82 C281.20,180.18 277.94,177.82 275.36,176.40 C277.85,177.68 281.08,180.03 284.32,182.82 ZM 388.80 476.77 C388.09,475.88 387.52,475.49 386.95,475.48 C387.40,475.32 387.74,475.34 387.94,475.55 C388.08,475.69 388.38,476.12 388.80,476.77 ZM 404.40 485.79 C404.69,486.61 404.94,487.27 405.13,487.75 C405.95,489.80 406.55,492.03 406.73,493.53 C406.57,492.28 406.14,490.64 405.56,489.11 C405.30,488.45 404.91,487.30 404.40,485.79 ZM 275.66 262.62 C266.52,264.14 257.98,265.96 250.00,268.10 C244.23,269.65 240.47,270.75 237.69,271.24 C240.28,270.77 244.03,269.69 250.00,268.09 C257.99,265.96 266.53,264.13 275.66,262.62 ZM 358.94 494.00 C358.57,494.00 355.87,492.03 352.25,489.17 C355.78,491.92 358.60,494.00 358.94,494.00 ZM 271.92 176.51 C272.29,177.71 272.91,179.52 273.65,181.54 C272.72,179.00 272.15,177.44 271.92,176.51 ZM 187.85 231.17 C186.84,230.34 186.05,229.62 185.56,229.11 C185.50,229.05 185.44,228.99 185.39,228.93 L 186.50 229.97 C186.89,230.34 187.35,230.74 187.85,231.17 ZM 456.46 137.15 C459.45,140.24 461.78,143.74 463.15,147.53 C461.80,143.80 459.47,140.28 456.46,137.15 ZM 233.72 229.83 C235.02,229.30 235.87,229.00 236.11,229.00 C236.87,228.99 236.00,228.08 234.18,226.97 C236.00,228.08 236.89,228.99 236.15,229.00 C235.90,229.00 235.03,229.30 233.72,229.83 ZM 383.86 477.64 C383.69,477.81 383.51,477.98 383.32,478.16 C382.35,479.09 380.41,480.58 378.01,482.28 C380.38,480.59 382.30,479.12 383.25,478.21 C383.46,478.01 383.66,477.82 383.86,477.64 ZM 389.35 441.52 C390.41,443.15 391.43,445.32 392.60,448.49 C391.42,445.31 390.40,443.13 389.35,441.52 ZM 364.15 454.54 C364.23,454.49 364.31,454.43 364.39,454.38 C366.34,453.06 369.07,451.55 370.46,451.01 C369.07,451.55 366.31,453.07 364.34,454.41 C364.28,454.46 364.21,454.50 364.15,454.54 ZM 472.69 546.33 C469.14,550.60 465.48,554.15 462.67,555.85 C462.23,556.12 461.82,556.37 461.43,556.59 C461.79,556.42 462.13,556.23 462.45,556.03 C465.40,554.21 469.12,550.62 472.69,546.33 ZM 485.29 518.02 C485.34,518.43 485.40,518.84 485.45,519.26 C485.63,520.72 485.75,521.83 485.74,522.83 C485.74,521.83 485.63,520.72 485.45,519.26 C485.40,518.84 485.34,518.43 485.29,518.02 ZM 274.81 235.06 C275.31,234.97 275.79,234.87 276.26,234.76 C275.80,234.87 275.31,234.97 274.81,235.06 Z" fill="rgba(138,96,54,1)"/>
<path d="M 422.00 312.50 C426.70,312.11 428.87,311.32 430.19,309.80 C431.52,308.25 431.97,305.94 433.27,302.50 C437.57,291.08 440.17,279.16 440.75,268.27 C441.39,256.07 441.35,256.03 430.87,258.39 C426.96,259.28 422.57,260.00 421.13,260.00 C419.68,260.00 416.25,260.83 413.50,261.85 C403.26,265.65 397.11,266.34 388.30,264.68 C382.92,263.66 379.00,263.44 376.50,264.00 C374.44,264.46 372.12,264.60 371.35,264.30 C369.99,263.78 359.46,265.06 348.00,267.14 C342.55,268.13 340.34,268.41 339.89,269.45 C339.54,270.25 340.21,271.48 341.25,273.79 C344.07,280.14 344.75,292.14 342.57,297.25 C341.69,299.31 340.84,301.00 340.68,301.00 C340.53,301.00 340.52,296.98 340.66,292.07 C340.94,282.94 339.36,275.00 336.36,270.42 C335.46,269.05 332.49,267.04 329.20,265.22 C329.28,265.27 329.36,265.31 329.45,265.36 C335.26,268.56 335.80,268.66 342.01,267.87 C359.77,265.61 374.62,262.41 428.31,249.30 C438.95,246.70 439.14,246.69 441.01,248.58 C442.06,249.64 443.61,252.19 444.47,254.25 C445.78,257.40 445.80,258.00 444.62,258.00 C443.51,258.00 443.24,259.85 443.32,266.75 C443.43,275.70 441.62,285.97 437.82,298.00 C434.56,308.30 432.84,311.29 429.67,312.13 C429.13,312.27 426.36,312.40 422.00,312.50 ZM 315.09 248.54 C311.15,247.77 308.16,246.58 307.34,245.45 C305.53,242.97 305.65,241.90 307.83,241.34 C308.83,241.07 310.80,238.52 312.20,235.67 C313.65,232.71 315.91,229.85 317.46,229.02 C319.87,227.73 320.50,227.75 322.97,229.17 C324.50,230.05 326.88,230.55 328.25,230.29 C331.29,229.71 336.46,232.24 338.45,235.29 C339.27,236.53 340.22,240.05 340.58,243.12 L 341.24 248.70 L 337.37 249.34 C331.59,250.29 322.30,249.96 315.09,248.54 ZM 155.64 267.51 C157.21,266.68 157.88,266.01 157.12,266.01 C156.11,266.00 155.92,265.16 156.39,262.82 C157.15,259.01 156.89,259.23 154.10,264.75 C153.93,265.10 153.76,265.43 153.61,265.73 C155.30,261.96 156.97,256.14 156.99,253.72 C157.00,250.91 157.35,250.64 162.14,249.59 C163.47,249.30 164.42,248.58 165.01,247.40 C164.51,248.66 163.77,249.33 162.66,249.91 C160.88,250.84 161.47,250.96 165.94,250.55 C169.02,250.27 173.75,248.85 176.86,247.28 C182.35,244.50 181.86,243.40 177.22,244.69 L 183.18 242.64 L 187.34 244.87 C190.77,246.72 192.61,247.03 197.83,246.64 C201.31,246.38 204.36,245.97 204.60,245.73 C205.19,245.15 204.88,244.25 203.61,242.96 C205.59,244.72 206.94,246.30 207.81,247.86 C210.40,252.49 210.05,254.00 206.39,254.00 C205.02,254.00 202.86,255.12 201.59,256.50 C198.96,259.34 197.79,259.72 198.65,257.46 C199.48,255.31 191.06,247.28 189.92,249.13 C189.47,249.85 188.80,250.13 188.42,249.76 C187.55,248.88 184.00,250.74 184.00,252.07 C184.00,252.63 187.23,254.62 191.17,256.52 C196.98,259.30 199.31,260.00 203.02,258.72 C199.85,260.04 197.41,260.67 197.11,260.20 C196.77,259.68 192.83,257.41 188.34,255.16 L 180.18 251.07 L 175.09 255.12 C171.49,257.98 170.25,258.92 170.19,259.93 C170.16,260.50 170.51,261.09 171.04,262.07 C172.21,264.27 171.74,264.48 169.21,262.90 C167.79,262.02 166.24,262.51 161.31,265.40 C156.32,268.32 153.36,269.47 152.66,268.80 C153.06,268.85 154.01,268.35 155.64,267.51 ZM 220.20 258.80 C219.54,258.14 219.00,257.16 219.00,256.63 C219.00,256.09 218.38,254.95 217.62,254.08 C216.86,253.21 214.78,249.90 213.01,246.73 L 209.79 240.96 L 213.24 239.31 L 216.73 245.35 C218.69,248.73 220.90,252.22 221.66,253.09 C224.41,256.29 257.84,255.26 277.00,251.38 C285.66,249.63 293.94,247.33 295.77,246.16 C297.07,245.34 299.57,239.08 300.57,234.76 C300.53,235.86 300.47,237.03 300.37,238.25 L 299.70 247.24 L 294.85 249.25 C292.18,250.36 290.00,251.68 290.00,252.19 C290.00,252.70 289.58,252.86 289.07,252.54 C288.56,252.23 287.86,252.42 287.51,252.98 C287.16,253.54 287.45,254.00 288.14,254.00 C290.90,254.00 287.24,255.85 282.00,257.10 C278.28,257.99 268.25,258.45 251.00,258.53 C236.98,258.59 224.58,258.95 223.45,259.32 C222.29,259.71 220.89,259.49 220.20,258.80 ZM 310.00 462.00 C309.17,460.84 307.41,460.00 305.84,460.00 C304.34,460.00 302.85,459.57 302.53,459.04 C302.20,458.52 301.39,458.28 300.72,458.51 C298.17,459.41 292.60,452.45 285.52,439.50 C283.78,436.32 280.85,432.45 277.36,428.54 C280.85,432.42 283.77,436.24 285.49,439.35 C287.58,443.11 290.74,447.79 292.53,449.74 C295.55,453.04 295.98,453.20 298.92,452.18 C300.65,451.57 301.82,451.48 301.52,451.97 C301.22,452.46 301.38,453.12 301.88,453.43 C302.38,453.74 303.05,453.32 303.36,452.51 C303.78,451.41 304.53,451.25 306.21,451.89 C307.47,452.36 310.98,453.07 314.00,453.46 C317.02,453.84 321.16,454.58 323.19,455.10 C325.22,455.62 329.19,456.21 332.00,456.42 C334.82,456.62 337.39,457.06 337.73,457.39 C338.80,458.47 341.05,458.04 341.58,456.66 C342.32,454.73 331.60,429.00 328.41,425.09 C327.70,424.22 324.46,419.88 321.22,415.45 C318.72,412.05 314.93,407.70 311.77,404.53 C316.05,408.51 321.11,413.92 323.31,416.87 C325.61,419.97 327.85,422.65 328.28,422.84 C328.71,423.03 330.19,425.28 331.56,427.84 C332.93,430.40 335.33,434.83 336.88,437.68 C341.52,446.22 345.08,457.34 344.35,461.01 L 343.71 464.22 L 337.60 463.72 C334.25,463.45 328.51,462.65 324.87,461.96 C318.20,460.69 314.34,461.12 315.50,462.99 C316.70,464.94 311.43,463.98 310.00,462.00 ZM 432.94 175.21 C433.80,173.47 435.15,172.04 435.94,172.02 C436.73,172.01 438.38,171.05 439.61,169.90 L 441.85 167.80 L 443.58 169.82 C445.07,171.56 445.50,171.64 446.73,170.42 C447.51,169.64 448.00,168.21 447.81,167.25 C447.52,165.73 445.69,165.40 434.07,164.75 C426.69,164.34 420.43,164.24 420.15,164.52 C420.14,164.53 420.13,164.53 420.12,164.54 L 420.14 164.24 L 434.32 164.37 C442.46,164.44 448.81,164.93 449.23,165.50 C449.69,166.12 449.98,166.02 449.98,165.25 C449.99,164.56 450.45,164.00 451.00,164.00 C451.55,164.00 451.99,165.69 451.97,167.75 C451.94,170.95 451.75,171.26 450.69,169.87 C449.60,168.43 448.99,168.88 445.59,173.57 C442.98,177.16 440.79,179.11 438.86,179.53 C437.29,179.88 435.37,181.06 434.59,182.17 L 433.18 184.18 L 431.15 182.15 C430.03,181.03 428.49,179.98 427.73,179.81 C426.97,179.64 425.24,180.79 423.88,182.36 C420.35,186.45 419.41,184.38 419.81,173.37 L 420.09 165.63 C421.02,169.23 428.61,179.28 430.44,178.68 C430.96,178.51 432.08,176.95 432.94,175.21 ZM 396.64 174.08 C396.61,173.73 396.59,173.37 396.57,173.00 C396.02,163.95 396.06,163.66 397.49,166.86 C398.32,168.72 399.00,171.15 399.00,172.27 C399.00,174.18 399.11,174.21 400.83,172.65 C401.83,171.74 403.80,171.00 405.21,171.00 C408.66,171.00 413.48,168.87 415.05,166.83 C414.69,168.49 414.18,170.55 413.57,172.70 C409.79,186.04 409.82,186.97 414.00,188.35 C417.73,189.57 418.52,191.64 415.90,193.29 C413.59,194.75 409.79,193.40 407.59,190.35 C406.00,188.15 405.86,187.20 406.77,184.80 C407.51,182.85 407.54,180.99 406.89,179.12 C406.09,176.82 405.38,176.36 402.87,176.51 C401.20,176.61 399.23,176.08 398.49,175.34 C397.61,174.46 396.99,174.04 396.64,174.08 ZM 323.47 262.41 C320.02,260.95 317.49,260.37 318.43,261.88 C318.73,262.36 313.42,263.08 306.65,263.47 C299.87,263.86 293.77,264.52 293.09,264.94 C292.42,265.36 289.65,265.30 286.95,264.81 C284.00,264.27 281.32,264.28 280.26,264.83 C279.29,265.33 275.35,265.46 271.50,265.10 C265.49,264.55 262.66,264.94 251.50,267.83 C245.93,269.27 242.07,270.34 239.18,270.94 C241.79,270.37 245.20,269.39 250.00,268.10 C264.25,264.28 280.29,261.46 298.37,259.61 C311.52,258.26 312.53,258.29 317.80,260.10 C319.32,260.63 321.37,261.47 323.47,262.41 ZM 157.00 264.22 C157.00,265.72 166.85,259.77 172.55,254.83 C175.52,252.26 178.85,249.86 179.97,249.51 C181.09,249.16 182.00,248.22 182.00,247.43 C182.00,246.84 182.00,246.45 181.81,246.26 C181.40,245.87 180.14,246.37 176.22,247.91 C173.55,248.97 168.63,250.37 165.30,251.02 L 159.23 252.21 L 158.12 257.77 C157.50,260.83 157.00,263.73 157.00,264.22 ZM 397.89 229.77 C393.40,223.40 391.32,219.40 390.57,215.63 C390.33,214.46 389.47,211.32 388.64,208.65 C387.81,205.98 387.29,203.96 387.48,204.15 C388.32,205.01 400.64,223.60 401.90,225.92 C402.68,227.34 403.60,228.73 403.95,229.00 C404.31,229.27 405.62,230.96 406.87,232.75 L 409.14 236.00 L 405.71 236.00 C402.65,236.00 401.82,235.34 397.89,229.77 ZM 299.50 559.94 C298.99,559.84 298.40,559.73 297.77,559.64 C298.83,559.71 299.75,559.78 300.37,559.82 L 303.24 560.00 L 302.58 545.75 C301.82,529.76 301.65,527.88 300.82,526.48 C300.31,525.64 299.68,519.96 298.50,505.50 C297.61,494.71 293.92,471.82 292.84,470.40 C292.71,470.23 292.33,469.99 291.75,469.70 C294.29,470.84 294.63,471.64 294.83,473.50 C295.02,475.15 295.76,477.17 296.48,478.00 C298.00,479.73 299.82,491.61 299.48,497.50 C299.25,501.32 299.59,504.24 301.97,519.00 C302.97,525.23 304.58,561.12 303.85,560.89 C303.66,560.82 301.70,560.40 299.50,559.94 ZM 274.35 298.24 C264.35,296.13 252.39,294.04 248.75,294.02 C244.99,293.99 245.28,295.72 249.25,296.97 L 252.50 297.99 L 249.50 297.59 C238.25,296.07 231.16,294.51 232.26,293.81 C236.53,291.04 222.20,290.63 215.77,293.33 C214.54,293.85 210.84,296.02 206.43,298.77 C211.37,295.37 214.36,293.00 213.45,293.00 C211.76,293.00 211.81,292.82 213.86,291.38 C215.61,290.16 217.54,289.90 221.84,290.33 C234.24,291.58 240.00,291.76 240.00,290.90 C240.00,289.45 243.73,289.87 244.32,291.38 C244.61,292.14 246.34,293.00 248.17,293.28 C256.06,294.52 266.14,296.46 274.35,298.24 ZM 481.05 534.35 C484.70,527.70 484.77,527.21 483.90,521.79 C483.40,518.65 483.05,514.83 483.13,513.29 C483.24,511.26 483.56,509.89 483.06,508.95 C481.87,506.72 476.00,507.00 451.39,507.00 C428.28,507.00 421.90,507.10 420.62,507.91 C420.68,506.81 422.01,506.34 426.00,505.93 C431.03,505.41 482.07,505.74 482.63,506.30 C482.76,506.43 483.02,507.65 483.21,509.02 C483.40,510.38 483.82,511.95 484.15,512.50 C484.48,513.05 485.06,516.09 485.45,519.26 C486.12,524.80 485.97,525.35 481.52,533.51 C481.37,533.79 481.21,534.07 481.05,534.35 ZM 321.00 314.31 C317.98,313.53 313.43,312.42 310.91,311.84 C307.50,311.07 305.87,310.04 304.60,307.90 C303.47,305.99 302.07,305.00 300.50,305.00 C299.19,305.00 297.84,304.55 297.50,304.00 C297.84,304.55 299.33,305.00 300.81,305.00 C302.29,305.00 309.80,307.02 317.50,309.48 C329.13,313.20 332.35,313.86 336.50,313.39 C336.98,313.34 338.02,313.29 339.54,313.24 C338.80,313.27 338.28,313.31 338.00,313.36 C335.52,313.71 332.38,314.13 331.00,314.28 C329.62,314.43 328.05,314.81 327.50,315.14 C326.95,315.46 324.02,315.08 321.00,314.31 ZM 282.37 165.43 C280.99,165.13 279.81,165.26 278.66,165.82 C277.90,166.19 277.55,166.43 277.69,166.59 C272.86,166.32 270.00,165.73 270.00,164.94 C270.00,164.42 271.24,163.95 272.75,163.88 L 275.50 163.76 L 272.50 163.11 C270.47,162.67 269.91,162.20 270.77,161.66 C271.47,161.22 273.60,161.37 275.50,162.00 C277.41,162.63 279.87,162.86 280.96,162.51 C282.06,162.16 283.76,162.34 284.73,162.91 C286.17,163.75 285.75,163.96 282.50,164.05 L 278.50 164.15 L 282.37 165.43 ZM 430.10 220.19 C431.11,218.84 432.55,216.90 434.13,214.75 C445.15,199.73 446.73,198.26 452.78,197.51 C453.07,197.47 453.36,197.43 453.63,197.39 C451.29,198.19 449.00,200.06 449.00,201.50 C449.00,202.32 448.23,202.74 447.10,202.52 C446.05,202.32 444.33,203.13 443.24,204.33 C439.89,208.04 436.06,214.29 436.60,215.17 C436.89,215.63 436.68,216.00 436.15,216.00 C435.62,216.00 433.41,217.48 431.24,219.30 C430.86,219.62 430.48,219.91 430.10,220.19 ZM 166.00 227.54 L 165.99 235.36 C165.98,239.19 165.92,241.94 165.72,243.96 C165.74,242.86 165.64,241.59 165.41,240.15 L 164.79 236.27 L 157.74 235.68 C147.04,234.78 146.45,232.80 157.00,233.19 L 165.50 233.50 L 165.80 229.87 L 166.00 227.54 ZM 140.04 259.39 C139.65,258.84 139.27,258.29 138.88,257.72 C139.70,257.31 142.01,255.71 144.65,253.72 C153.16,247.30 155.78,245.75 157.22,246.29 C158.07,246.61 157.83,247.04 156.50,247.58 C155.40,248.03 152.24,250.22 149.49,252.45 C146.73,254.68 143.42,257.19 142.13,258.03 L 140.04 259.39 ZM 232.03 230.54 C234.27,229.58 235.80,229.00 236.15,229.00 C236.89,228.99 236.00,228.08 234.18,226.97 L 230.85 224.94 L 235.98 220.33 C238.41,218.14 240.63,215.54 242.25,213.09 C240.85,215.29 239.03,217.57 237.14,219.40 L 233.11 223.30 L 235.55 225.21 C236.88,226.27 238.41,226.87 238.92,226.55 C239.44,226.23 241.59,226.62 243.68,227.42 C245.08,227.96 246.71,228.51 247.97,228.90 C241.81,227.59 240.14,228.00 242.41,230.27 C242.82,230.68 243.35,231.07 243.97,231.44 C240.45,230.18 238.33,229.54 236.22,229.60 C234.92,229.64 233.63,229.94 232.03,230.54 ZM 168.64 278.56 C164.12,284.68 160.64,287.41 163.00,283.00 C163.59,281.90 164.58,281.00 165.20,281.00 C165.82,281.00 166.05,280.72 165.71,280.37 C165.14,279.81 173.55,268.00 174.53,268.00 C175.59,268.00 172.96,272.73 168.64,278.56 ZM 190.50 280.56 C191.19,280.30 192.34,279.82 193.52,279.32 C191.85,280.05 190.04,280.84 189.00,281.29 C187.62,281.88 185.46,283.52 184.20,284.93 L 181.90 287.50 L 182.58 283.50 C182.96,281.30 183.65,278.74 184.13,277.82 C184.35,277.40 184.54,276.64 184.70,275.73 C184.61,276.57 184.50,277.38 184.39,278.05 C183.85,281.29 184.00,281.58 186.15,281.47 C187.44,281.40 189.40,280.99 190.50,280.56 ZM 328.00 254.00 C328.00,253.44 330.69,253.00 334.06,253.00 C337.84,253.00 339.89,253.38 339.50,254.00 C339.16,254.55 336.43,255.00 333.44,255.00 C330.45,255.00 328.00,254.55 328.00,254.00 ZM 461.94 186.62 C462.61,185.36 462.87,183.57 462.66,181.88 C463.09,184.98 462.24,187.96 460.23,190.25 C458.32,192.42 456.58,192.54 457.38,190.44 C457.75,189.50 456.97,187.95 455.41,186.51 L 453.74 184.95 C453.94,184.99 454.19,185.00 454.49,185.00 C455.31,185.00 456.55,185.90 457.23,187.00 C458.88,189.65 460.38,189.53 461.94,186.62 ZM 408.30 188.34 C407.87,187.22 408.04,186.91 408.83,187.39 C409.61,187.88 410.00,187.26 410.00,185.56 C410.00,184.15 409.52,183.00 408.94,183.00 C408.36,183.00 408.16,183.45 408.50,184.00 C408.84,184.55 408.64,185.00 408.06,185.00 C406.90,185.00 406.60,188.27 407.67,189.33 C408.76,190.43 408.97,190.10 408.30,188.34 ZM 248.28 283.86 C247.74,284.21 247.04,285.17 246.73,286.00 C246.39,286.89 246.13,286.40 246.08,284.81 C246.04,283.33 246.42,281.86 246.93,281.54 C248.19,280.77 249.52,283.05 248.28,283.86 ZM 556.50 579.00 C555.71,577.72 559.02,577.72 561.00,579.00 C562.17,579.76 561.91,579.97 559.81,579.98 C558.33,579.99 556.84,579.55 556.50,579.00 ZM 298.77 150.21 C301.59,151.07 301.86,151.81 302.97,156.75 C303.30,158.22 303.60,160.56 303.84,163.18 C303.31,158.76 302.49,155.09 301.55,154.05 C300.70,153.11 300.00,151.84 300.00,151.23 C300.00,150.85 299.56,150.51 298.77,150.21 ZM 245.00 286.94 C245.00,288.07 244.55,289.00 244.00,289.00 C243.45,289.00 243.00,288.35 243.00,287.56 C243.00,286.77 243.45,285.84 244.00,285.50 C244.55,285.16 245.00,285.81 245.00,286.94 ZM 174.44 303.17 C172.55,301.57 170.75,299.90 169.30,298.37 C167.00,295.94 164.35,292.64 161.85,289.19 C165.71,294.29 170.22,299.32 174.44,303.17 ZM 304.11 179.20 C303.86,182.77 303.26,184.99 301.99,188.00 C300.72,191.02 299.04,194.18 298.25,195.00 C298.15,195.10 298.06,195.19 297.98,195.27 C300.09,193.18 303.26,185.20 304.07,179.50 C304.09,179.40 304.10,179.30 304.11,179.20 ZM 280.47 233.49 C286.08,231.51 292.89,228.16 296.73,225.39 C291.65,229.05 286.17,231.76 280.47,233.49 ZM 282.90 466.54 C279.40,465.63 274.98,465.00 270.19,464.66 C276.06,464.82 278.79,465.25 282.90,466.54 ZM 400.26 199.91 C398.14,191.00 397.62,188.37 397.03,180.17 C397.19,181.53 397.34,183.05 397.46,184.50 C397.72,187.63 398.89,193.84 400.26,199.91 ZM 415.14 221.90 C417.97,222.36 421.89,222.59 424.85,222.51 C422.33,222.98 419.31,222.74 415.14,221.90 ZM 269.40 152.44 C273.43,150.61 276.07,149.89 280.73,149.48 C276.97,149.96 273.05,151.00 269.40,152.44 ZM 306.30 394.45 C305.22,395.03 304.63,395.58 304.51,396.22 C304.30,397.30 305.45,398.65 307.82,400.88 C305.38,398.74 304.10,397.46 304.26,396.38 C304.36,395.71 305.01,395.11 306.30,394.45 ZM 207.28 256.82 C209.37,255.78 211.62,255.25 212.28,255.66 C212.30,255.67 212.32,255.68 212.35,255.70 C211.79,255.41 209.31,256.08 206.39,257.26 C206.68,257.12 206.98,256.98 207.28,256.82 ZM 267.02 230.00 L 260.06 230.00 C258.27,230.00 256.14,229.89 254.09,229.72 C255.67,229.80 257.48,229.86 259.26,229.88 L 267.02 230.00 ZM 127.91 238.74 C128.77,240.71 131.08,245.05 133.38,249.15 C131.07,245.30 129.09,241.60 127.91,238.74 ZM 429.41 523.65 C433.88,530.78 438.69,538.22 440.45,540.56 C438.06,537.39 433.54,530.36 429.41,523.65 ZM 275.24 176.34 C274.55,176.00 273.92,175.73 273.36,175.57 C272.06,175.18 271.56,175.04 271.92,176.51 C271.63,175.57 271.49,175.00 271.56,175.00 C272.40,175.00 273.69,175.50 275.24,176.34 ZM 185.95 310.94 C185.05,310.71 183.56,309.90 181.77,308.72 C181.88,308.78 181.99,308.84 182.10,308.90 L 185.95 310.94 ZM 186.86 230.33 C189.11,232.30 193.09,235.32 196.81,237.85 C196.77,237.82 196.73,237.79 196.69,237.77 C193.20,235.50 189.10,232.38 186.86,230.33 ZM 257.37 235.16 C260.36,235.54 263.48,235.74 266.49,235.73 C263.46,235.81 260.41,235.61 257.37,235.16 ZM 291.36 189.68 C289.16,187.25 286.62,184.80 284.10,182.63 C286.82,184.91 289.43,187.41 291.36,189.68 ZM 171.97 246.49 L 167.76 248.06 L 167.79 247.92 L 171.97 246.49 ZM 455.11 181.06 C453.80,182.84 453.16,183.83 453.12,184.38 L 452.85 184.13 L 455.11 181.06 ZM 284.91 166.77 C285.62,166.68 285.47,166.51 284.62,166.17 L 286.50 166.79 L 284.91 166.77 ZM 250.42 464.88 C246.71,465.23 243.23,465.77 240.26,466.48 C243.62,465.67 246.65,465.17 250.42,464.88 ZM 284.88 554.54 C284.31,553.63 283.64,552.53 282.85,551.21 C280.29,546.97 272.22,534.95 264.90,524.50 C272.22,534.95 280.29,546.96 282.85,551.18 L 284.88 554.54 ZM 455.67 197.00 C456.91,196.69 457.96,196.29 458.95,195.71 C457.68,196.49 456.47,197.00 455.74,197.00 C455.71,197.00 455.69,197.00 455.67,197.00 ZM 153.06 274.48 C152.24,272.61 150.90,270.94 149.97,270.70 C149.35,270.54 148.37,269.74 147.17,268.47 C148.41,269.71 149.47,270.57 150.00,270.71 C150.91,270.95 152.24,272.61 153.06,274.48 ZM 297.10 195.76 C296.68,195.80 296.24,195.51 295.59,194.80 C296.22,195.38 296.76,195.73 297.10,195.76 ZM 415.58 163.33 C415.37,162.95 415.03,162.63 414.52,162.36 C415.03,162.59 415.40,162.83 415.52,163.03 C415.55,163.09 415.57,163.19 415.58,163.33 ZM 231.60 270.91 C229.28,269.96 227.09,267.84 222.87,264.29 C227.08,267.83 229.32,269.94 231.60,270.91 ZM 462.67 555.85 C464.92,554.49 467.85,551.79 470.80,548.53 C467.87,551.80 464.98,554.45 462.67,555.85 ZM 462.51 181.05 C462.07,179.13 461.08,178.10 459.85,177.97 C461.09,178.07 462.08,179.07 462.50,180.98 C462.50,181.00 462.51,181.03 462.51,181.05 ZM 179.94 226.06 C181.85,226.22 183.00,226.70 184.37,227.93 C182.93,226.69 181.79,226.22 179.94,226.06 ZM 411.45 221.06 C410.15,220.70 409.08,220.30 408.16,219.75 C409.04,220.26 410.10,220.67 411.45,221.06 ZM 152.54 268.08 C152.60,267.83 152.72,267.52 152.92,267.16 C152.92,267.15 152.92,267.14 152.93,267.13 C152.75,267.52 152.62,267.83 152.54,268.08 ZM 187.63 268.00 C186.68,268.00 186.06,268.07 185.67,268.35 C186.06,268.05 186.67,268.00 187.63,268.00 ZM 161.07 225.53 C161.13,225.54 161.19,225.55 161.25,225.56 L 166.00 226.23 L 166.00 226.23 L 161.30 225.57 C161.23,225.56 161.15,225.55 161.07,225.53 ZM 461.32 193.98 C461.45,193.86 461.59,193.74 461.72,193.61 C461.71,193.63 461.69,193.65 461.67,193.66 C461.55,193.77 461.44,193.88 461.32,193.98 ZM 299.99 226.47 C300.00,226.49 300.00,226.51 300.01,226.52 C300.02,226.56 300.04,226.60 300.05,226.64 C300.03,226.58 300.01,226.52 299.99,226.47 Z" fill="rgba(159,116,64,1)"/>
<path d="M 249.50 229.32 C248.40,229.08 245.78,228.22 243.68,227.42 C241.59,226.62 239.44,226.23 238.92,226.55 C238.41,226.87 236.88,226.27 235.55,225.21 L 233.11 223.30 L 237.14 219.40 C241.26,215.41 245.00,209.29 245.00,206.54 C245.00,205.91 245.02,205.47 244.82,205.28 C244.38,204.88 242.88,205.61 237.84,208.00 C228.20,212.56 216.63,211.87 214.22,206.59 C213.18,204.30 213.26,204.27 221.07,203.61 C233.37,202.59 235.00,202.10 235.00,199.48 C235.00,197.24 234.90,197.22 224.62,197.75 C209.67,198.51 209.48,198.43 207.58,190.05 C206.06,183.35 205.48,176.00 206.48,176.00 C206.75,176.00 210.85,177.12 215.60,178.50 C224.10,180.96 238.27,181.99 239.37,180.22 C239.63,179.79 238.33,178.39 236.47,177.12 C228.33,171.54 222.95,160.57 222.24,148.07 L 221.74 139.39 L 225.12 136.54 C230.58,131.93 241.74,127.20 249.69,126.14 C257.11,125.15 269.54,126.11 274.71,128.08 L 277.40 129.10 L 272.33 131.99 C263.35,137.12 255.02,148.84 254.42,157.16 C254.10,161.67 254.80,161.88 258.83,158.49 C264.65,153.59 274.40,149.85 282.87,149.27 C291.83,148.66 300.00,149.59 300.00,151.23 C300.00,151.84 300.70,153.11 301.55,154.05 C303.64,156.36 305.17,171.78 304.07,179.50 C303.17,185.87 299.32,195.08 297.28,195.75 C296.61,195.97 294.62,194.11 292.87,191.62 C288.26,185.08 275.34,175.00 271.56,175.00 C271.39,175.00 272.36,178.04 273.73,181.75 C278.90,195.86 277.53,213.58 270.39,224.74 L 267.02 230.00 L 259.26 229.88 C254.99,229.82 250.60,229.57 249.50,229.32 ZM 278.50 164.15 L 282.50 164.05 C285.75,163.96 286.17,163.75 284.73,162.91 C283.76,162.34 282.06,162.16 280.96,162.51 C279.87,162.86 277.41,162.63 275.50,162.00 C273.60,161.37 271.47,161.22 270.77,161.66 C269.91,162.20 270.47,162.67 272.50,163.11 L 275.50 163.76 L 272.75 163.88 C271.24,163.95 270.00,164.42 270.00,164.94 C270.00,165.94 274.60,166.62 282.00,166.73 L 286.50 166.79 L 278.50 164.15 Z" fill="rgba(176,136,44,1)"/>
<path d="M 317.50 309.48 C309.80,307.02 302.29,305.00 300.81,305.00 C299.33,305.00 297.84,304.55 297.50,304.00 C297.16,303.45 295.53,303.00 293.88,303.00 C292.22,303.00 290.06,302.57 289.07,302.04 C286.36,300.59 263.26,295.64 248.17,293.28 C246.34,293.00 244.61,292.14 244.32,291.38 C243.73,289.87 240.00,289.45 240.00,290.90 C240.00,291.76 234.24,291.58 221.84,290.33 C217.54,289.90 215.61,290.16 213.86,291.38 C211.81,292.82 211.76,293.00 213.45,293.00 C215.12,293.00 203.66,300.99 191.07,308.62 L 186.63 311.30 L 182.10 308.90 C173.01,304.09 157.52,285.83 153.21,274.86 C152.42,272.83 150.97,270.96 150.00,270.71 C149.04,270.46 146.34,267.84 144.02,264.90 L 139.79 259.55 L 142.13 258.03 C143.42,257.19 146.73,254.68 149.49,252.45 C152.24,250.22 155.40,248.03 156.50,247.58 C157.83,247.04 158.07,246.61 157.22,246.29 C155.78,245.75 153.16,247.30 144.65,253.72 C141.43,256.15 138.70,257.99 138.57,257.82 C136.48,254.97 128.97,241.45 127.73,238.32 C126.18,234.40 126.18,234.01 127.79,232.18 C130.35,229.26 139.73,222.22 142.03,221.49 C143.14,221.14 146.85,221.76 150.27,222.87 C153.70,223.99 158.66,225.20 161.30,225.57 L 166.11 226.24 L 165.80 229.87 L 165.50 233.50 L 157.00 233.19 C146.45,232.80 147.04,234.78 157.74,235.68 L 164.79 236.27 L 165.41 240.15 C166.32,245.85 165.26,248.91 162.14,249.59 C157.35,250.64 157.00,250.91 156.99,253.72 C156.97,256.48 154.81,263.62 152.92,267.16 C151.34,270.10 154.36,269.47 161.31,265.40 C166.24,262.51 167.79,262.02 169.21,262.90 C171.74,264.48 172.21,264.27 171.04,262.07 C170.51,261.09 170.16,260.50 170.19,259.93 C170.25,258.92 171.49,257.98 175.09,255.12 L 180.18 251.07 L 188.34 255.16 C192.83,257.41 196.77,259.68 197.11,260.20 C197.45,260.74 200.62,259.83 204.47,258.09 C208.19,256.40 211.74,255.33 212.36,255.70 C212.99,256.08 217.72,259.94 222.87,264.29 C227.52,268.20 229.71,270.38 232.31,271.16 C235.76,272.20 239.94,270.82 251.50,267.83 C262.66,264.94 265.49,264.55 271.50,265.10 C275.35,265.46 279.29,265.33 280.26,264.83 C281.32,264.28 284.00,264.27 286.95,264.81 C289.65,265.30 292.42,265.36 293.09,264.94 C293.77,264.52 299.87,263.86 306.65,263.47 C313.42,263.08 318.73,262.36 318.43,261.88 C316.18,258.25 333.92,266.70 336.36,270.42 C339.36,275.00 340.94,282.94 340.66,292.07 C340.52,296.98 340.53,301.00 340.68,301.00 C340.84,301.00 341.69,299.31 342.57,297.25 C344.75,292.14 344.07,280.14 341.25,273.79 C340.21,271.48 339.54,270.25 339.89,269.45 C340.34,268.41 342.55,268.13 348.00,267.14 C359.46,265.06 369.99,263.78 371.35,264.30 C372.12,264.60 374.44,264.46 376.50,264.00 C379.00,263.44 382.92,263.66 388.30,264.68 C397.11,266.34 403.26,265.65 413.50,261.85 C416.25,260.83 419.68,260.00 421.13,260.00 C422.57,260.00 426.96,259.28 430.87,258.39 C441.35,256.03 441.39,256.07 440.75,268.27 C440.17,279.16 437.57,291.08 433.27,302.50 C431.97,305.94 431.52,308.25 430.19,309.80 C427.08,313.40 419.18,312.87 384.65,312.85 C360.92,312.83 339.25,313.08 336.50,313.39 C332.35,313.86 329.13,313.20 317.50,309.48 ZM 413.89 221.66 C407.74,220.30 406.02,219.02 404.22,214.50 C402.16,209.30 397.97,190.75 397.46,184.50 C397.19,181.20 396.74,177.49 396.46,176.25 C395.89,173.69 396.54,173.40 398.49,175.34 C399.23,176.08 401.20,176.61 402.87,176.51 C405.38,176.36 406.09,176.82 406.89,179.12 C407.54,180.99 407.51,182.85 406.77,184.80 C405.86,187.20 406.00,188.15 407.59,190.35 C409.79,193.40 413.59,194.75 415.90,193.29 C418.52,191.64 417.73,189.57 414.00,188.35 C409.82,186.97 409.79,186.04 413.57,172.70 C414.94,167.87 415.82,163.51 415.52,163.03 C415.22,162.55 413.52,161.85 411.74,161.47 C407.39,160.56 398.13,157.46 397.31,156.65 C396.58,155.91 396.24,154.54 396.26,152.78 C396.75,153.94 397.93,152.91 399.54,149.77 C400.73,147.42 402.85,143.25 404.26,140.50 C405.66,137.75 408.17,134.20 409.85,132.61 L 412.90 129.72 L 424.70 130.26 C431.19,130.56 438.92,131.39 441.87,132.10 C446.39,133.19 447.65,134.03 449.87,137.40 C452.47,141.35 452.50,141.60 452.24,157.38 C452.05,169.38 452.29,173.57 453.24,174.17 C454.57,175.01 460.19,174.30 462.99,172.97 C462.40,173.60 462.76,174.25 464.19,176.27 C465.85,178.59 466.15,180.21 465.77,184.73 C465.37,189.58 464.83,190.77 461.76,193.58 C459.03,196.08 456.96,196.99 452.78,197.51 C446.73,198.26 445.15,199.73 434.13,214.75 C431.20,218.74 428.74,222.03 428.66,222.06 C426.73,222.84 418.14,222.60 413.89,221.66 ZM 292.50 559.25 L 287.50 558.86 L 282.85 551.18 C280.29,546.96 272.22,534.95 264.90,524.50 C249.59,502.61 243.49,492.92 237.52,481.00 C233.84,473.65 232.14,470.69 232.99,469.13 C233.68,467.87 236.00,467.51 240.26,466.48 C252.67,463.50 273.73,463.71 284.25,466.92 C288.51,468.22 292.38,469.79 292.84,470.40 C293.92,471.82 297.61,494.71 298.50,505.50 C299.68,519.96 300.31,525.64 300.82,526.48 C301.65,527.88 301.82,529.76 302.58,545.75 L 303.24 560.00 L 300.37 559.82 C298.79,559.71 295.25,559.46 292.50,559.25 ZM 337.73 457.39 C337.39,457.06 334.82,456.62 332.00,456.42 C329.19,456.21 325.22,455.62 323.19,455.10 C321.16,454.58 317.02,453.84 314.00,453.46 C310.98,453.07 307.47,452.36 306.21,451.89 C304.53,451.25 303.78,451.41 303.36,452.51 C303.05,453.32 302.38,453.74 301.88,453.43 C301.38,453.12 301.22,452.46 301.52,451.97 C301.82,451.48 300.65,451.57 298.92,452.18 C295.98,453.20 295.55,453.04 292.53,449.74 C290.74,447.79 287.58,443.11 285.49,439.35 C281.06,431.36 268.64,418.58 259.19,412.32 C253.86,408.78 245.76,405.11 237.61,402.55 C236.57,402.22 235.96,401.71 236.26,401.41 C238.41,399.26 267.61,395.00 280.21,395.00 C286.79,395.00 289.79,394.59 290.95,393.55 C291.17,393.35 291.74,393.04 292.57,392.66 C290.24,394.10 291.35,394.92 295.69,395.26 C298.33,395.47 301.49,395.72 302.69,395.82 C303.39,395.88 304.09,395.80 304.62,395.63 C304.42,395.87 304.30,396.12 304.26,396.38 C304.08,397.64 305.86,399.19 309.15,402.05 C312.54,405.00 317.97,411.03 321.22,415.45 C324.46,419.88 327.70,424.22 328.41,425.09 C331.60,429.00 342.32,454.73 341.58,456.66 C341.05,458.04 338.80,458.47 337.73,457.39 ZM 553.50 573.97 C551.30,573.55 545.90,572.26 541.50,571.11 C537.10,569.97 529.60,568.31 524.84,567.43 L 516.19 565.83 L 519.12 559.55 C520.74,556.10 522.33,550.97 522.67,548.16 C523.43,541.72 521.54,531.76 518.51,526.29 L 516.18 522.08 L 518.34 521.45 C519.53,521.10 522.41,519.92 524.75,518.82 C530.73,516.01 535.39,517.05 544.81,523.29 C559.43,532.98 579.00,549.41 579.00,552.00 C579.00,553.03 579.84,554.13 580.87,554.46 C581.90,554.78 583.53,555.93 584.51,557.01 C587.04,559.81 585.46,561.19 576.44,564.02 C570.14,565.99 568.14,567.17 565.03,570.71 C561.14,575.12 560.44,575.32 553.50,573.97 ZM 449.50 551.73 C446.20,547.82 442.13,542.80 440.45,540.56 C436.94,535.89 421.31,510.96 420.40,508.59 C419.85,507.16 422.93,507.00 451.39,507.00 C476.00,507.00 481.87,506.72 483.06,508.95 C483.56,509.89 483.24,511.26 483.13,513.29 C483.05,514.83 483.40,518.65 483.90,521.79 C484.79,527.33 484.69,527.72 480.81,534.80 C476.50,542.65 467.81,552.75 462.67,555.85 C456.51,559.58 455.99,559.42 449.50,551.73 ZM 221.66 253.09 C220.90,252.22 218.69,248.73 216.73,245.35 L 213.18 239.21 L 224.25 234.02 C230.51,231.08 233.35,229.68 236.22,229.60 C238.85,229.52 241.50,230.54 246.86,232.48 C263.81,238.62 281.98,236.03 296.73,225.39 C298.87,223.85 299.01,223.90 299.98,226.45 C300.54,227.93 301.00,230.34 301.00,231.83 C301.00,235.31 297.42,245.11 295.77,246.16 C293.94,247.33 285.66,249.63 277.00,251.38 C257.84,255.26 224.41,256.29 221.66,253.09 ZM 168.31 245.21 C168.60,243.72 169.88,238.79 171.16,234.25 L 173.48 226.00 L 178.05 226.00 C181.95,226.00 183.10,226.51 186.02,229.52 C187.90,231.46 192.70,235.17 196.69,237.77 C203.33,242.09 205.78,244.56 204.60,245.73 C204.36,245.97 201.31,246.38 197.83,246.64 C192.61,247.03 190.77,246.72 187.34,244.87 L 183.18 242.64 L 175.48 245.28 L 167.78 247.92 ZM 427.73 179.81 C428.49,179.98 430.03,181.03 431.15,182.15 L 433.18 184.18 L 434.59 182.17 C435.37,181.06 437.29,179.88 438.86,179.53 C440.79,179.11 442.98,177.16 445.59,173.57 C448.99,168.88 449.60,168.43 450.69,169.87 C451.75,171.26 451.94,170.95 451.97,167.75 C451.99,165.69 451.55,164.00 451.00,164.00 C450.45,164.00 449.99,164.56 449.98,165.25 C449.98,166.02 449.69,166.12 449.23,165.50 C448.81,164.93 442.46,164.44 434.32,164.37 L 420.14 164.24 L 419.81 173.37 C419.41,184.38 420.35,186.45 423.88,182.36 C425.24,180.79 426.97,179.64 427.73,179.81 ZM 157.00 264.22 C157.00,263.73 157.50,260.83 158.12,257.77 L 159.23 252.21 L 165.30 251.02 C168.63,250.37 173.55,248.97 176.22,247.91 C180.14,246.37 181.40,245.87 181.81,246.26 C182.00,246.45 182.00,246.84 182.00,247.43 C182.00,248.22 181.09,249.16 179.97,249.51 C178.85,249.86 175.52,252.26 172.55,254.83 C166.85,259.77 157.00,265.72 157.00,264.22 ZM 189.00 281.29 C190.38,280.69 193.12,279.50 195.09,278.63 L 198.69 277.05 L 194.47 272.53 C191.54,269.37 189.46,268.00 187.63,268.00 C185.22,268.00 185.00,268.34 185.00,272.07 C185.00,274.30 184.61,276.89 184.13,277.82 C183.65,278.74 182.96,281.30 182.58,283.50 L 181.90 287.50 L 184.20 284.93 C185.46,283.52 187.62,281.88 189.00,281.29 ZM 460.23 190.25 C462.43,187.74 463.25,184.40 462.50,180.98 C461.60,176.92 458.14,176.96 455.11,181.06 L 452.85 184.13 L 455.41 186.51 C456.97,187.95 457.75,189.50 457.38,190.44 C456.58,192.54 458.32,192.42 460.23,190.25 ZM 168.64 278.56 C172.96,272.73 175.59,268.00 174.53,268.00 C173.55,268.00 165.14,279.81 165.71,280.37 C166.05,280.72 165.82,281.00 165.20,281.00 C164.58,281.00 163.59,281.90 163.00,283.00 C160.64,287.41 164.12,284.68 168.64,278.56 ZM 248.28 283.86 C249.52,283.05 248.19,280.77 246.93,281.54 C246.42,281.86 246.04,283.33 246.08,284.81 C246.13,286.40 246.39,286.89 246.73,286.00 C247.04,285.17 247.74,284.21 248.28,283.86 ZM 245.00 286.94 C245.00,285.81 244.55,285.16 244.00,285.50 C243.45,285.84 243.00,286.77 243.00,287.56 C243.00,288.35 243.45,289.00 244.00,289.00 C244.55,289.00 245.00,288.07 245.00,286.94 ZM 435.29 124.90 C442.44,126.79 449.32,130.52 454.61,135.34 C449.38,130.82 442.37,126.95 435.29,124.90 ZM 306.88 387.28 C311.02,385.90 314.65,384.83 315.83,384.75 C316.38,384.71 317.34,384.80 318.35,384.96 C316.16,384.74 313.47,385.27 308.50,386.79 C307.95,386.95 307.41,387.12 306.88,387.28 ZM 406.96 129.76 C409.54,127.27 412.48,125.72 416.23,124.72 C412.68,125.79 409.49,127.51 406.96,129.76 ZM 398.38 143.77 C398.58,143.30 398.78,142.83 398.99,142.35 C400.10,139.92 401.17,137.80 402.26,135.95 C400.94,138.29 399.53,141.15 398.38,143.77 ZM 320.19 385.32 C320.24,385.33 320.29,385.35 320.34,385.36 C322.32,385.86 322.88,386.55 321.95,387.50 C322.80,386.58 322.18,385.90 320.19,385.32 ZM 465.02 169.88 C464.75,171.09 464.37,171.94 463.88,172.30 C464.35,171.75 464.73,170.92 465.02,169.88 ZM 317.69 389.90 C316.60,390.37 315.33,390.87 313.85,391.42 C312.78,391.82 311.79,392.18 310.91,392.52 C311.70,392.20 312.55,391.88 313.41,391.56 C315.08,390.96 316.50,390.40 317.69,389.90 ZM 463.36 148.14 C463.57,148.78 463.76,149.46 463.95,150.18 C463.76,149.49 463.57,148.80 463.36,148.14 Z" fill="rgba(188,147,85,1)"/>
<path d="M 503.01 570.75 C503.02,570.06 503.72,567.52 504.56,565.10 C506.82,558.62 506.23,558.00 497.84,558.00 C491.34,558.00 490.81,557.86 492.56,556.57 C495.30,554.55 509.00,555.81 509.00,558.08 C509.00,558.65 508.55,558.84 508.00,558.50 C507.44,558.15 507.00,558.95 507.00,560.32 C507.00,561.66 506.31,564.41 505.47,566.42 C504.63,568.44 504.20,570.52 504.53,571.04 C504.85,571.57 504.64,572.00 504.06,572.00 C503.48,572.00 503.01,571.44 503.01,570.75 ZM 457.49 567.99 C457.09,567.33 457.60,565.68 458.63,564.31 C461.03,561.11 470.76,555.15 474.00,554.89 C479.61,554.44 487.08,555.06 486.54,555.93 C486.23,556.44 486.99,557.05 488.24,557.28 C489.48,557.51 486.82,557.52 482.32,557.28 C477.08,557.01 473.33,557.29 471.89,558.06 C469.43,559.38 464.00,564.99 464.00,566.22 C464.00,566.65 463.19,567.00 462.20,567.00 C461.21,567.00 459.91,567.49 459.31,568.09 C458.53,568.87 458.02,568.84 457.49,567.99 ZM 490.81 555.32 C491.53,555.03 492.40,555.06 492.73,555.40 C493.06,555.73 492.47,555.96 491.42,555.92 C490.25,555.87 490.01,555.64 490.81,555.32 ZM 462.80 497.75 C461.89,497.03 459.92,491.00 458.14,483.50 C456.44,476.35 453.90,466.67 452.49,462.00 C451.09,457.33 449.76,452.77 449.55,451.88 C448.44,447.21 441.56,425.04 439.77,420.36 C438.64,417.39 437.91,414.76 438.15,414.52 C438.39,414.28 442.53,415.16 447.35,416.49 C452.17,417.81 456.72,418.66 457.48,418.37 C459.68,417.53 475.65,467.47 482.39,496.25 L 483.04 499.00 L 473.71 499.00 C467.76,499.00 463.81,498.55 462.80,497.75 ZM 400.77 495.75 C399.88,495.06 396.84,490.45 394.02,485.50 C391.20,480.55 388.46,476.07 387.94,475.55 C387.35,474.95 385.61,475.93 383.25,478.21 C379.53,481.80 360.74,494.00 358.94,494.00 C358.00,494.00 337.49,477.61 336.58,476.12 C336.31,475.69 339.64,475.54 343.97,475.79 C351.95,476.25 359.49,475.57 361.71,474.18 C362.64,473.61 362.35,471.31 360.51,464.62 C358.71,458.10 358.43,455.95 359.42,456.33 C360.16,456.61 362.37,455.75 364.34,454.41 C366.31,453.07 369.07,451.55 370.46,451.01 C372.04,450.42 373.00,449.27 373.00,448.00 C373.00,445.96 365.46,430.51 362.38,426.25 C358.52,420.90 366.93,425.03 385.33,437.50 C390.11,440.74 391.74,444.37 398.50,466.88 C401.41,476.57 404.58,486.57 405.56,489.11 C406.53,491.64 407.04,494.45 406.69,495.36 C405.95,497.31 403.03,497.50 400.77,495.75 ZM 448.06 495.69 C445.77,494.52 441.23,484.14 436.17,468.50 C435.10,465.20 432.79,458.90 431.05,454.50 C429.30,450.10 426.41,441.97 424.62,436.44 C422.82,430.90 419.99,424.38 418.31,421.94 C415.37,417.64 411.00,409.64 411.00,408.54 C411.00,406.57 427.33,409.80 429.51,412.20 C430.16,412.92 433.28,422.50 436.44,433.50 C439.61,444.50 443.08,456.42 444.15,460.00 C445.23,463.58 446.94,469.65 447.96,473.50 C448.99,477.35 450.72,483.70 451.81,487.61 C454.25,496.36 453.32,498.37 448.06,495.69 ZM 258.08 455.42 C258.13,454.25 258.36,454.01 258.68,454.81 C258.97,455.53 258.94,456.40 258.60,456.73 C258.27,457.06 258.04,456.47 258.08,455.42 ZM 254.75 455.34 C255.44,455.06 256.00,453.69 256.00,452.29 C256.00,450.19 256.25,449.96 257.46,450.96 C258.62,451.93 258.67,452.55 257.71,454.09 C257.06,455.14 255.84,455.96 255.01,455.92 C253.98,455.87 253.90,455.68 254.75,455.34 ZM 295.69 395.26 C287.27,394.60 291.01,392.13 308.50,386.79 C314.63,384.92 317.28,384.55 319.83,385.22 C324.49,386.45 322.76,388.16 313.41,391.56 C309.30,393.06 305.70,394.67 305.41,395.15 C305.12,395.62 303.90,395.92 302.69,395.82 C301.49,395.72 298.33,395.47 295.69,395.26 ZM 453.24 174.17 C452.29,173.57 452.05,169.38 452.24,157.38 C452.50,141.60 452.47,141.35 449.87,137.40 C447.65,134.03 446.39,133.19 441.87,132.10 C438.92,131.39 431.19,130.56 424.70,130.26 L 412.90 129.72 L 409.85 132.61 C408.17,134.20 405.66,137.75 404.26,140.50 C402.85,143.25 400.73,147.42 399.54,149.77 C397.39,153.99 396.00,154.40 396.00,150.81 C396.00,148.25 401.50,136.34 404.50,132.41 C409.96,125.26 421.09,121.86 431.88,124.05 C444.76,126.67 458.33,135.99 462.14,144.85 C466.37,154.67 466.98,170.91 463.19,172.87 C460.47,174.27 454.61,175.03 453.24,174.17 Z" fill="rgba(13,18,26,1)"/>
</g>
</svg>